  0
SECTION
  2
HEADER
  9
$ACADVER
  1
AC1018
  9
$ACADMAINTVER
 70
     0
  9
$DWGCODEPAGE
  3
ANSI_932
  9
$INSBASE
 10
0.0
 20
0.0
 30
0.0
  9
$EXTMIN
 10
1.000000000000000E+20
 20
1.000000000000000E+20
 30
1.000000000000000E+20
  9
$EXTMAX
 10
-1.000000000000000E+20
 20
-1.000000000000000E+20
 30
-1.000000000000000E+20
  9
$LIMMIN
 10
0.0
 20
0.0
  9
$LIMMAX
 10
12.0
 20
9.0
  9
$ORTHOMODE
 70
     0
  9
$REGENMODE
 70
     1
  9
$FILLMODE
 70
     1
  9
$QTEXTMODE
 70
     0
  9
$MIRRTEXT
 70
     1
  9
$LTSCALE
 40
1.0
  9
$ATTMODE
 70
     1
  9
$TEXTSIZE
 40
0.2
  9
$TRACEWID
 40
0.05
  9
$TEXTSTYLE
  7
Standard
  9
$CLAYER
  8
0
  9
$CELTYPE
  6
ByLayer
  9
$CECOLOR
 62
   256
  9
$CELTSCALE
 40
1.0
  9
$DISPSILH
 70
     0
  9
$DIMSCALE
 40
1.0
  9
$DIMASZ
 40
0.18
  9
$DIMEXO
 40
0.0625
  9
$DIMDLI
 40
0.38
  9
$DIMRND
 40
0.0
  9
$DIMDLE
 40
0.0
  9
$DIMEXE
 40
0.18
  9
$DIMTP
 40
0.0
  9
$DIMTM
 40
0.0
  9
$DIMTXT
 40
0.18
  9
$DIMCEN
 40
0.09
  9
$DIMTSZ
 40
0.0
  9
$DIMTOL
 70
     0
  9
$DIMLIM
 70
     0
  9
$DIMTIH
 70
     1
  9
$DIMTOH
 70
     1
  9
$DIMSE1
 70
     0
  9
$DIMSE2
 70
     0
  9
$DIMTAD
 70
     0
  9
$DIMZIN
 70
     0
  9
$DIMBLK
  1

  9
$DIMASO
 70
     1
  9
$DIMSHO
 70
     1
  9
$DIMPOST
  1

  9
$DIMAPOST
  1

  9
$DIMALT
 70
     0
  9
$DIMALTD
 70
     2
  9
$DIMALTF
 40
25.4
  9
$DIMLFAC
 40
1.0
  9
$DIMTOFL
 70
     0
  9
$DIMTVP
 40
0.0
  9
$DIMTIX
 70
     0
  9
$DIMSOXD
 70
     0
  9
$DIMSAH
 70
     0
  9
$DIMBLK1
  1

  9
$DIMBLK2
  1

  9
$DIMSTYLE
  2
Standard
  9
$DIMCLRD
 70
     0
  9
$DIMCLRE
 70
     0
  9
$DIMCLRT
 70
     0
  9
$DIMTFAC
 40
1.0
  9
$DIMGAP
 40
0.09
  9
$DIMJUST
 70
     0
  9
$DIMSD1
 70
     0
  9
$DIMSD2
 70
     0
  9
$DIMTOLJ
 70
     1
  9
$DIMTZIN
 70
     0
  9
$DIMALTZ
 70
     0
  9
$DIMALTTZ
 70
     0
  9
$DIMUPT
 70
     0
  9
$DIMDEC
 70
     4
  9
$DIMTDEC
 70
     4
  9
$DIMALTU
 70
     2
  9
$DIMALTTD
 70
     2
  9
$DIMTXSTY
  7
Standard
  9
$DIMAUNIT
 70
     0
  9
$DIMADEC
 70
     0
  9
$DIMALTRND
 40
0.0
  9
$DIMAZIN
 70
     0
  9
$DIMDSEP
 70
    46
  9
$DIMATFIT
 70
     3
  9
$DIMFRAC
 70
     0
  9
$DIMLDRBLK
  1

  9
$DIMLUNIT
 70
     2
  9
$DIMLWD
 70
    -2
  9
$DIMLWE
 70
    -2
  9
$DIMTMOVE
 70
     0
  9
$LUNITS
 70
     2
  9
$LUPREC
 70
     4
  9
$SKETCHINC
 40
0.1
  9
$FILLETRAD
 40
0.5
  9
$AUNITS
 70
     0
  9
$AUPREC
 70
     0
  9
$MENU
  1
.
  9
$ELEVATION
 40
0.0
  9
$PELEVATION
 40
0.0
  9
$THICKNESS
 40
0.0
  9
$LIMCHECK
 70
     0
  9
$CHAMFERA
 40
0.5
  9
$CHAMFERB
 40
0.5
  9
$CHAMFERC
 40
1.0
  9
$CHAMFERD
 40
0.0
  9
$SKPOLY
 70
     0
  9
$TDCREATE
 40
2456921.311631944
  9
$TDUCREATE
 40
2456921.228298611
  9
$TDUPDATE
 40
2456921.311631956
  9
$TDUUPDATE
 40
2456921.228298623
  9
$TDINDWG
 40
0.0000000116
  9
$TDUSRTIMER
 40
0.0000000116
  9
$USRTIMER
 70
     1
  9
$ANGBASE
 50
0.0
  9
$ANGDIR
 70
     0
  9
$PDMODE
 70
     0
  9
$PDSIZE
 40
0.0
  9
$PLINEWID
 40
0.0
  9
$SPLFRAME
 70
     0
  9
$SPLINETYPE
 70
     6
  9
$SPLINESEGS
 70
     8
  9
$HANDSEED
  5
C8
  9
$SURFTAB1
 70
     6
  9
$SURFTAB2
 70
     6
  9
$SURFTYPE
 70
     6
  9
$SURFU
 70
     6
  9
$SURFV
 70
     6
  9
$UCSBASE
  2

  9
$UCSNAME
  2

  9
$UCSORG
 10
0.0
 20
0.0
 30
0.0
  9
$UCSXDIR
 10
1.0
 20
0.0
 30
0.0
  9
$UCSYDIR
 10
0.0
 20
1.0
 30
0.0
  9
$UCSORTHOREF
  2

  9
$UCSORTHOVIEW
 70
     0
  9
$UCSORGTOP
 10
0.0
 20
0.0
 30
0.0
  9
$UCSORGBOTTOM
 10
0.0
 20
0.0
 30
0.0
  9
$UCSORGLEFT
 10
0.0
 20
0.0
 30
0.0
  9
$UCSORGRIGHT
 10
0.0
 20
0.0
 30
0.0
  9
$UCSORGFRONT
 10
0.0
 20
0.0
 30
0.0
  9
$UCSORGBACK
 10
0.0
 20
0.0
 30
0.0
  9
$PUCSBASE
  2

  9
$PUCSNAME
  2

  9
$PUCSORG
 10
0.0
 20
0.0
 30
0.0
  9
$PUCSXDIR
 10
1.0
 20
0.0
 30
0.0
  9
$PUCSYDIR
 10
0.0
 20
1.0
 30
0.0
  9
$PUCSORTHOREF
  2

  9
$PUCSORTHOVIEW
 70
     0
  9
$PUCSORGTOP
 10
0.0
 20
0.0
 30
0.0
  9
$PUCSORGBOTTOM
 10
0.0
 20
0.0
 30
0.0
  9
$PUCSORGLEFT
 10
0.0
 20
0.0
 30
0.0
  9
$PUCSORGRIGHT
 10
0.0
 20
0.0
 30
0.0
  9
$PUCSORGFRONT
 10
0.0
 20
0.0
 30
0.0
  9
$PUCSORGBACK
 10
0.0
 20
0.0
 30
0.0
  9
$USERI1
 70
     0
  9
$USERI2
 70
     0
  9
$USERI3
 70
     0
  9
$USERI4
 70
     0
  9
$USERI5
 70
     0
  9
$USERR1
 40
0.0
  9
$USERR2
 40
0.0
  9
$USERR3
 40
0.0
  9
$USERR4
 40
0.0
  9
$USERR5
 40
0.0
  9
$WORLDVIEW
 70
     1
  9
$SHADEDGE
 70
     3
  9
$SHADEDIF
 70
    70
  9
$TILEMODE
 70
     1
  9
$MAXACTVP
 70
    64
  9
$PINSBASE
 10
0.0
 20
0.0
 30
0.0
  9
$PLIMCHECK
 70
     0
  9
$PEXTMIN
 10
1.000000000000000E+20
 20
1.000000000000000E+20
 30
1.000000000000000E+20
  9
$PEXTMAX
 10
-1.000000000000000E+20
 20
-1.000000000000000E+20
 30
-1.000000000000000E+20
  9
$PLIMMIN
 10
0.0
 20
0.0
  9
$PLIMMAX
 10
12.0
 20
9.0
  9
$UNITMODE
 70
     0
  9
$VISRETAIN
 70
     1
  9
$PLINEGEN
 70
     0
  9
$PSLTSCALE
 70
     1
  9
$TREEDEPTH
 70
  3020
  9
$CMLSTYLE
  2
Standard
  9
$CMLJUST
 70
     0
  9
$CMLSCALE
 40
1.0
  9
$PROXYGRAPHICS
 70
     1
  9
$MEASUREMENT
 70
     0
  9
$CELWEIGHT
370
    -1
  9
$ENDCAPS
280
     0
  9
$JOINSTYLE
280
     0
  9
$LWDISPLAY
290
     1
  9
$INSUNITS
 70
     1
  9
$HYPERLINKBASE
  1

  9
$STYLESHEET
  1

  9
$XEDIT
290
     1
  9
$CEPSNTYPE
380
     0
  9
$PSTYLEMODE
290
     1
  9
$FINGERPRINTGUID
  2
{2DAB4072-F611-013F-DCF6-828F1BD910F8}
  9
$VERSIONGUID
  2
{FAEB1C32-E019-11D5-929B-00C0DF256EC4}
  9
$EXTNAMES
290
     1
  9
$PSVPSCALE
 40
0.0
  9
$OLESTARTUP
290
     0
  9
$SORTENTS
280
   127
  9
$INDEXCTL
280
     0
  9
$HIDETEXT
280
     1
  9
$XCLIPFRAME
290
     0
  9
$HALOGAP
280
     0
  9
$OBSCOLOR
 70
   257
  9
$OBSLTYPE
280
     0
  9
$INTERSECTIONDISPLAY
280
     0
  9
$INTERSECTIONCOLOR
 70
   257
  9
$DIMASSOC
280
     2
  9
$PROJECTNAME
  1

  0
ENDSEC
  0
SECTION
  2
CLASSES
  0
CLASS
  1
ACDBDICTIONARYWDFLT
  2
AcDbDictionaryWithDefault
  3
ObjectDBX Classes
 90
        0
 91
        3
280
     0
281
     0
  0
CLASS
  1
VISUALSTYLE
  2
AcDbVisualStyle
  3
ObjectDBX Classes
 90
     4095
 91
        3
280
     0
281
     0
  0
ENDSEC
  0
SECTION
  2
TABLES
  0
TABLE
  2
VPORT
  5
8
330
0
100
AcDbSymbolTable
 70
     1
  0
VPORT
  5
29
330
8
100
AcDbSymbolTableRecord
100
AcDbViewportTableRecord
  2
*Active
 70
     0
 10
0.0
 20
0.0
 11
1.0
 21
1.0
 12
0.0
 22
0.0
 13
0.0
 23
0.0
 14
0.5
 24
0.5
 15
0.5
 25
0.5
 16
0.0
 26
0.0
 36
1.0
 17
24.99995550590279
 27
-14.99992851730036
 37
0.0
 40
29.99985703460073
 41
1.666671642939415
 42
50.0
 43
0.0
 44
0.0
 50
0.0
 51
0.0
 71
     0
 72
   100
 73
     1
 74
     3
 75
     0
 76
     0
 77
     0
 78
     0
281
     0
 65
     1
110
0.0
120
0.0
130
0.0
111
1.0
121
0.0
131
0.0
112
0.0
122
1.0
132
0.0
 79
     0
146
0.0
  0
ENDTAB
  0
TABLE
  2
LTYPE
  5
5
330
0
100
AcDbSymbolTable
 70
     1
  0
LTYPE
  5
14
330
5
100
AcDbSymbolTableRecord
100
AcDbLinetypeTableRecord
  2
ByBlock
 70
     0
  3

 72
    65
 73
     0
 40
0.0
  0
LTYPE
  5
15
330
5
100
AcDbSymbolTableRecord
100
AcDbLinetypeTableRecord
  2
ByLayer
 70
     0
  3

 72
    65
 73
     0
 40
0.0
  0
LTYPE
  5
16
330
5
100
AcDbSymbolTableRecord
100
AcDbLinetypeTableRecord
  2
Continuous
 70
     0
  3
Solid line
 72
    65
 73
     0
 40
0.0
  0
ENDTAB
  0
TABLE
  2
LAYER
  5
2
330
0
100
AcDbSymbolTable
 70
     2
  0
LAYER
  5
10
330
2
100
AcDbSymbolTableRecord
100
AcDbLayerTableRecord
  2
0
 70
     0
 62
     7
  6
Continuous
370
    -3
390
F
  0
LAYER
  5
3B
330
2
100
AcDbSymbolTableRecord
100
AcDbLayerTableRecord
  2
Layer 1
 70
     0
 62
     7
  6
Continuous
370
    -3
390
F
  0
ENDTAB
  0
TABLE
  2
STYLE
  5
3
330
0
100
AcDbSymbolTable
 70
     1
  0
STYLE
  5
11
330
3
100
AcDbSymbolTableRecord
100
AcDbTextStyleTableRecord
  2
Standard
 70
     0
 40
0.0
 41
1.0
 50
0.0
 71
     0
 42
0.2
  3
txt
  4

  0
ENDTAB
  0
TABLE
  2
VIEW
  5
6
330
0
100
AcDbSymbolTable
 70
     0
  0
ENDTAB
  0
TABLE
  2
UCS
  5
7
330
0
100
AcDbSymbolTable
 70
     0
  0
ENDTAB
  0
TABLE
  2
APPID
  5
9
330
0
100
AcDbSymbolTable
 70
     1
  0
APPID
  5
12
330
9
100
AcDbSymbolTableRecord
100
AcDbRegAppTableRecord
  2
ACAD
 70
     0
  0
ENDTAB
  0
TABLE
  2
DIMSTYLE
  5
A
330
0
100
AcDbSymbolTable
 70
     1
100
AcDbDimStyleTable
  0
DIMSTYLE
105
27
330
A
100
AcDbSymbolTableRecord
100
AcDbDimStyleTableRecord
  2
Standard
 70
     0
340
11
  0
ENDTAB
  0
TABLE
  2
BLOCK_RECORD
  5
1
330
0
100
AcDbSymbolTable
 70
     1
  0
BLOCK_RECORD
  5
1F
330
1
100
AcDbSymbolTableRecord
100
AcDbBlockTableRecord
  2
*Model_Space
340
22
  0
BLOCK_RECORD
  5
1B
330
1
100
AcDbSymbolTableRecord
100
AcDbBlockTableRecord
  2
*Paper_Space
340
1E
  0
BLOCK_RECORD
  5
23
330
1
100
AcDbSymbolTableRecord
100
AcDbBlockTableRecord
  2
*Paper_Space0
340
26
  0
ENDTAB
  0
ENDSEC
  0
SECTION
  2
BLOCKS
  0
BLOCK
  5
20
330
1F
100
AcDbEntity
  8
0
100
AcDbBlockBegin
  2
*Model_Space
 70
     0
 71
     0
 10
0.0
 20
0.0
 30
0.0
  3
*Model_Space
  1

  0
ENDBLK
  5
21
330
1F
100
AcDbEntity
  8
0
100
AcDbBlockEnd
  0
BLOCK
  5
1C
330
1B
100
AcDbEntity
 67
     1
  8
0
100
AcDbBlockBegin
  2
*Paper_Space
 70
     0
 71
     0
 10
0.0
 20
0.0
 30
0.0
  3
*Paper_Space
  1

  0
ENDBLK
  5
1D
330
1B
100
AcDbEntity
 67
     1
  8
0
100
AcDbBlockEnd
  0
BLOCK
  5
24
330
23
100
AcDbEntity
  8
0
100
AcDbBlockBegin
  2
*Paper_Space0
 70
     0
 71
     0
 10
0.0
 20
0.0
 30
0.0
  3
*Paper_Space0
  1

  0
ENDBLK
  5
25
330
23
100
AcDbEntity
  8
0
100
AcDbBlockEnd
  0
ENDSEC
  0
SECTION
  2
ENTITIES
  0
SPLINE
  5
3C
330
1F
100
AcDbEntity
  8
Layer 1
 62
   179
420
  2301728
370
    35
100
AcDbSpline
210
0.0
220
0.0
230
1.0
 70
    11
 71
     3
 72
    23
 73
    19
 74
     0
 42
0.0000000001
 43
0.0000000001
 40
0.0
 40
0.0
 40
0.0
 40
0.0
 40
1.0
 40
1.0
 40
1.0
 40
2.0
 40
2.0
 40
2.0
 40
3.0
 40
3.0
 40
3.0
 40
4.0
 40
4.0
 40
4.0
 40
5.0
 40
5.0
 40
5.0
 40
6.0
 40
6.0
 40
6.0
 40
6.0
 10
10.1500264460302
 20
-6.134715981539237
 30
0.0
 10
10.1500264460302
 20
-6.134715981539237
 30
0.0
 10
16.1201357652842
 20
-6.134715981539237
 30
0.0
 10
16.1201357652842
 20
-6.134715981539237
 30
0.0
 10
16.1201357652842
 20
-6.134715981539237
 30
0.0
 10
22.18067884102601
 20
-6.089481877817907
 30
0.0
 10
22.18067884102601
 20
-12.01433986787315
 30
0.0
 10
22.18067884102601
 20
-17.9391978579284
 30
0.0
 10
22.18067884102601
 20
-23.9997409336702
 30
0.0
 10
22.18067884102601
 20
-23.9997409336702
 30
0.0
 10
22.18067884102601
 20
-23.9997409336702
 30
0.0
 10
4.134717474009723
 20
-23.9997409336702
 30
0.0
 10
4.134717474009723
 20
-23.9997409336702
 30
0.0
 10
4.134717474009723
 20
-23.9997409336702
 30
0.0
 10
4.134717474009723
 20
-12.05957397159448
 30
0.0
 10
4.134717474009723
 20
-12.05957397159448
 30
0.0
 10
4.134717474009723
 20
-12.05957397159448
 30
0.0
 10
4.179917126776201
 20
-6.134715981539237
 30
0.0
 10
10.1500264460302
 20
-6.134715981539237
 30
0.0
  0
SPLINE
  5
3D
330
1F
100
AcDbEntity
  8
Layer 1
 62
   179
420
  2301728
370
    35
100
AcDbSpline
210
0.0
220
0.0
230
1.0
 70
    11
 71
     3
 72
    17
 73
    13
 74
     0
 42
0.0000000001
 43
0.0000000001
 40
0.0
 40
0.0
 40
0.0
 40
0.0
 40
1.0
 40
1.0
 40
1.0
 40
2.0
 40
2.0
 40
2.0
 40
3.0
 40
3.0
 40
3.0
 40
4.0
 40
4.0
 40
4.0
 40
4.0
 10
20.19547701860564
 20
-14.99996296825522
 30
0.0
 10
20.19547701860564
 20
-18.86589409250575
 30
0.0
 10
17.06147365567386
 20
-21.99993190639238
 30
0.0
 10
13.19547362951363
 20
-21.99993190639238
 30
0.0
 10
9.32949082883082
 20
-21.99993190639238
 30
0.0
 10
6.195453014944192
 20
-18.86589409250575
 30
0.0
 10
6.195453014944192
 20
-14.99996296825522
 30
0.0
 10
6.195453014944192
 20
-11.13394571661756
 30
0.0
 10
9.32949082883082
 20
-7.999925128208352
 30
0.0
 10
13.19547362951363
 20
-7.999925128208352
 30
0.0
 10
17.06147365567386
 20
-7.999925128208352
 30
0.0
 10
20.19547701860564
 20
-11.13394571661756
 30
0.0
 10
20.19547701860564
 20
-14.99996296825522
 30
0.0
  0
SPLINE
  5
3E
330
1F
100
AcDbEntity
  8
Layer 1
 62
   179
420
  2301728
370
    35
100
AcDbSpline
210
0.0
220
0.0
230
1.0
 70
    11
 71
     3
 72
    17
 73
    13
 74
     0
 42
0.0000000001
 43
0.0000000001
 40
0.0
 40
0.0
 40
0.0
 40
0.0
 40
1.0
 40
1.0
 40
1.0
 40
2.0
 40
2.0
 40
2.0
 40
3.0
 40
3.0
 40
3.0
 40
4.0
 40
4.0
 40
4.0
 40
4.0
 10
17.8120910600001
 20
-7.634710555817017
 30
0.0
 10
17.8120910600001
 20
-7.910869409914643
 30
0.0
 10
17.58822875536857
 20
-8.134731714546177
 30
0.0
 10
17.31210435222579
 20
-8.134731714546177
 30
0.0
 10
17.03597994908302
 20
-8.134731714546177
 30
0.0
 10
16.81211764445148
 20
-7.910869409914643
 30
0.0
 10
16.81211764445148
 20
-7.634710555817017
 30
0.0
 10
16.81211764445148
 20
-7.35855170171939
 30
0.0
 10
17.03597994908302
 20
-7.134706622565282
 30
0.0
 10
17.31210435222579
 20
-7.134706622565282
 30
0.0
 10
17.58822875536857
 20
-7.134706622565282
 30
0.0
 10
17.8120910600001
 20
-7.35855170171939
 30
0.0
 10
17.8120910600001
 20
-7.634710555817017
 30
0.0
  0
SPLINE
  5
3F
330
1F
100
AcDbEntity
  8
Layer 1
 62
   179
420
  2301728
370
    35
100
AcDbSpline
210
0.0
220
0.0
230
1.0
 70
    11
 71
     3
 72
    17
 73
    13
 74
     0
 42
0.0000000001
 43
0.0000000001
 40
0.0
 40
0.0
 40
0.0
 40
0.0
 40
1.0
 40
1.0
 40
1.0
 40
2.0
 40
2.0
 40
2.0
 40
3.0
 40
3.0
 40
3.0
 40
4.0
 40
4.0
 40
4.0
 40
4.0
 10
10.12336140697437
 20
-7.634710555817017
 30
0.0
 10
10.12336140697437
 20
-7.910869409914643
 30
0.0
 10
9.899499102342833
 20
-8.134731714546177
 30
0.0
 10
9.623374699200058
 20
-8.134731714546177
 30
0.0
 10
9.347250296057284
 20
-8.134731714546177
 30
0.0
 10
9.123370765948323
 20
-7.910869409914643
 30
0.0
 10
9.123370765948323
 20
-7.634710555817017
 30
0.0
 10
9.123370765948323
 20
-7.35855170171939
 30
0.0
 10
9.347250296057284
 20
-7.134706622565282
 30
0.0
 10
9.623374699200058
 20
-7.134706622565282
 30
0.0
 10
9.899499102342833
 20
-7.134706622565282
 30
0.0
 10
10.12336140697437
 20
-7.35855170171939
 30
0.0
 10
10.12336140697437
 20
-7.634710555817017
 30
0.0
  0
SPLINE
  5
40
330
1F
100
AcDbEntity
  8
Layer 1
 62
   179
420
  2301728
370
    35
100
AcDbSpline
210
0.0
220
0.0
230
1.0
 70
    11
 71
     3
 72
    17
 73
    13
 74
     0
 42
0.0000000001
 43
0.0000000001
 40
0.0
 40
0.0
 40
0.0
 40
0.0
 40
1.0
 40
1.0
 40
1.0
 40
2.0
 40
2.0
 40
2.0
 40
3.0
 40
3.0
 40
3.0
 40
4.0
 40
4.0
 40
4.0
 40
4.0
 10
7.905408933570522
 20
-8.971166447409985
 30
0.0
 10
7.905408933570522
 20
-9.247325301507612
 30
0.0
 10
7.681546628938988
 20
-9.471187606139146
 30
0.0
 10
7.405422225796213
 20
-9.471187606139146
 30
0.0
 10
7.129297822653439
 20
-9.471187606139146
 30
0.0
 10
6.905418292544478
 20
-9.247325301507612
 30
0.0
 10
6.905418292544478
 20
-8.971166447409985
 30
0.0
 10
6.905418292544478
 20
-8.695007593312358
 30
0.0
 10
7.129297822653439
 20
-8.47116251415825
 30
0.0
 10
7.405422225796213
 20
-8.47116251415825
 30
0.0
 10
7.681546628938988
 20
-8.47116251415825
 30
0.0
 10
7.905408933570522
 20
-8.695007593312358
 30
0.0
 10
7.905408933570522
 20
-8.971166447409985
 30
0.0
  0
SPLINE
  5
41
330
1F
100
AcDbEntity
  8
Layer 1
 62
   179
420
  2301728
370
    35
100
AcDbSpline
210
0.0
220
0.0
230
1.0
 70
    11
 71
     3
 72
    17
 73
    13
 74
     0
 42
0.0000000001
 43
0.0000000001
 40
0.0
 40
0.0
 40
0.0
 40
0.0
 40
1.0
 40
1.0
 40
1.0
 40
2.0
 40
2.0
 40
2.0
 40
3.0
 40
3.0
 40
3.0
 40
4.0
 40
4.0
 40
4.0
 40
4.0
 10
6.195470240421618
 20
-10.74795721845016
 30
0.0
 10
6.195470240421618
 20
-11.02411607254779
 30
0.0
 10
5.971607935790083
 20
-11.24797837717932
 30
0.0
 10
5.69548353264731
 20
-11.24797837717932
 30
0.0
 10
5.419359129504535
 20
-11.24797837717932
 30
0.0
 10
5.195479599395574
 20
-11.02411607254779
 30
0.0
 10
5.195479599395574
 20
-10.74795721845016
 30
0.0
 10
5.195479599395574
 20
-10.47179836435254
 30
0.0
 10
5.419359129504535
 20
-10.24795328519843
 30
0.0
 10
5.69548353264731
 20
-10.24795328519843
 30
0.0
 10
5.971607935790083
 20
-10.24795328519843
 30
0.0
 10
6.195470240421618
 20
-10.47179836435254
 30
0.0
 10
6.195470240421618
 20
-10.74795721845016
 30
0.0
  0
SPLINE
  5
42
330
1F
100
AcDbEntity
  8
Layer 1
 62
   179
420
  2301728
370
    35
100
AcDbSpline
210
0.0
220
0.0
230
1.0
 70
    11
 71
     3
 72
    17
 73
    13
 74
     0
 42
0.0000000001
 43
0.0000000001
 40
0.0
 40
0.0
 40
0.0
 40
0.0
 40
1.0
 40
1.0
 40
1.0
 40
2.0
 40
2.0
 40
2.0
 40
3.0
 40
3.0
 40
3.0
 40
4.0
 40
4.0
 40
4.0
 40
4.0
 10
19.65035955997456
 20
-8.971166447409985
 30
0.0
 10
19.65035955997456
 20
-9.247325301507612
 30
0.0
 10
19.42649725534303
 20
-9.471187606139146
 30
0.0
 10
19.15037285220025
 20
-9.471187606139146
 30
0.0
 10
18.87424844905748
 20
-9.471187606139146
 30
0.0
 10
18.65035169347109
 20
-9.247325301507612
 30
0.0
 10
18.65035169347109
 20
-8.971166447409985
 30
0.0
 10
18.65035169347109
 20
-8.695007593312358
 30
0.0
 10
18.87424844905748
 20
-8.47116251415825
 30
0.0
 10
19.15037285220025
 20
-8.47116251415825
 30
0.0
 10
19.42649725534303
 20
-8.47116251415825
 30
0.0
 10
19.65035955997456
 20
-8.695007593312358
 30
0.0
 10
19.65035955997456
 20
-8.971166447409985
 30
0.0
  0
SPLINE
  5
43
330
1F
100
AcDbEntity
  8
Layer 1
 62
   179
420
  2301728
370
    35
100
AcDbSpline
210
0.0
220
0.0
230
1.0
 70
    11
 71
     3
 72
    17
 73
    13
 74
     0
 42
0.0000000001
 43
0.0000000001
 40
0.0
 40
0.0
 40
0.0
 40
0.0
 40
1.0
 40
1.0
 40
1.0
 40
2.0
 40
2.0
 40
2.0
 40
3.0
 40
3.0
 40
3.0
 40
4.0
 40
4.0
 40
4.0
 40
4.0
 10
20.9167766603524
 20
-10.74793999297274
 30
0.0
 10
20.9167766603524
 20
-11.02409884707036
 30
0.0
 10
20.69291435572087
 20
-11.2479611517019
 30
0.0
 10
20.41678995257809
 20
-11.2479611517019
 30
0.0
 10
20.14066554943532
 20
-11.2479611517019
 30
0.0
 10
19.91676879384893
 20
-11.02409884707036
 30
0.0
 10
19.91676879384893
 20
-10.74793999297274
 30
0.0
 10
19.91676879384893
 20
-10.47178113887511
 30
0.0
 10
20.14066554943532
 20
-10.247936059721
 30
0.0
 10
20.41678995257809
 20
-10.247936059721
 30
0.0
 10
20.69291435572087
 20
-10.247936059721
 30
0.0
 10
20.9167766603524
 20
-10.47178113887511
 30
0.0
 10
20.9167766603524
 20
-10.74793999297274
 30
0.0
  0
SPLINE
  5
44
330
1F
100
AcDbEntity
  8
Layer 1
 62
   179
420
  2301728
370
    35
100
AcDbSpline
210
0.0
220
0.0
230
1.0
 70
    11
 71
     3
 72
    17
 73
    13
 74
     0
 42
0.0000000001
 43
0.0000000001
 40
0.0
 40
0.0
 40
0.0
 40
0.0
 40
1.0
 40
1.0
 40
1.0
 40
2.0
 40
2.0
 40
2.0
 40
3.0
 40
3.0
 40
3.0
 40
4.0
 40
4.0
 40
4.0
 40
4.0
 10
7.890612248461374
 20
-22.85200737275922
 30
0.0
 10
7.890612248461374
 20
-23.12816622685684
 30
0.0
 10
7.666749943829839
 20
-23.35202853148838
 30
0.0
 10
7.390625540687065
 20
-23.35202853148838
 30
0.0
 10
7.114501137544291
 20
-23.35202853148838
 30
0.0
 10
6.89062160743533
 20
-23.12816622685684
 30
0.0
 10
6.89062160743533
 20
-22.85200737275922
 30
0.0
 10
6.89062160743533
 20
-22.57584851866159
 30
0.0
 10
7.114501137544291
 20
-22.35198621403006
 30
0.0
 10
7.390625540687065
 20
-22.35198621403006
 30
0.0
 10
7.666749943829839
 20
-22.35198621403006
 30
0.0
 10
7.890612248461374
 20
-22.57584851866159
 30
0.0
 10
7.890612248461374
 20
-22.85200737275922
 30
0.0
  0
SPLINE
  5
45
330
1F
100
AcDbEntity
  8
Layer 1
 62
   179
420
  2301728
370
    35
100
AcDbSpline
210
0.0
220
0.0
230
1.0
 70
    11
 71
     3
 72
    17
 73
    13
 74
     0
 42
0.0000000001
 43
0.0000000001
 40
0.0
 40
0.0
 40
0.0
 40
0.0
 40
1.0
 40
1.0
 40
1.0
 40
2.0
 40
2.0
 40
2.0
 40
3.0
 40
3.0
 40
3.0
 40
4.0
 40
4.0
 40
4.0
 40
4.0
 10
6.111358234149243
 20
-22.85200737275922
 30
0.0
 10
6.111358234149243
 20
-23.12816622685684
 30
0.0
 10
5.887495929517709
 20
-23.35202853148838
 30
0.0
 10
5.611371526374935
 20
-23.35202853148838
 30
0.0
 10
5.33524712323216
 20
-23.35202853148838
 30
0.0
 10
5.111367593123199
 20
-23.12816622685684
 30
0.0
 10
5.111367593123199
 20
-22.85200737275922
 30
0.0
 10
5.111367593123199
 20
-22.57584851866159
 30
0.0
 10
5.33524712323216
 20
-22.35198621403006
 30
0.0
 10
5.611371526374935
 20
-22.35198621403006
 30
0.0
 10
5.887495929517709
 20
-22.35198621403006
 30
0.0
 10
6.111358234149243
 20
-22.57584851866159
 30
0.0
 10
6.111358234149243
 20
-22.85200737275922
 30
0.0
  0
SPLINE
  5
46
330
1F
100
AcDbEntity
  8
Layer 1
 62
   179
420
  2301728
370
    35
100
AcDbSpline
210
0.0
220
0.0
230
1.0
 70
    11
 71
     3
 72
    17
 73
    13
 74
     0
 42
0.0000000001
 43
0.0000000001
 40
0.0
 40
0.0
 40
0.0
 40
0.0
 40
1.0
 40
1.0
 40
1.0
 40
2.0
 40
2.0
 40
2.0
 40
3.0
 40
3.0
 40
3.0
 40
4.0
 40
4.0
 40
4.0
 40
4.0
 10
9.699494083946654
 20
-22.85200737275922
 30
0.0
 10
9.699494083946654
 20
-23.12816622685684
 30
0.0
 10
9.475631779315119
 20
-23.35202853148838
 30
0.0
 10
9.199507376172345
 20
-23.35202853148838
 30
0.0
 10
8.92338297302957
 20
-23.35202853148838
 30
0.0
 10
8.699520668398035
 20
-23.12816622685684
 30
0.0
 10
8.699520668398035
 20
-22.85200737275922
 30
0.0
 10
8.699520668398035
 20
-22.57584851866159
 30
0.0
 10
8.92338297302957
 20
-22.35198621403006
 30
0.0
 10
9.199507376172345
 20
-22.35198621403006
 30
0.0
 10
9.475631779315119
 20
-22.35198621403006
 30
0.0
 10
9.699494083946654
 20
-22.57584851866159
 30
0.0
 10
9.699494083946654
 20
-22.85200737275922
 30
0.0
  0
SPLINE
  5
47
330
1F
100
AcDbEntity
  8
Layer 1
 62
   179
420
  2301728
370
    35
100
AcDbSpline
210
0.0
220
0.0
230
1.0
 70
    11
 71
     3
 72
    17
 73
    13
 74
     0
 42
0.0000000001
 43
0.0000000001
 40
0.0
 40
0.0
 40
0.0
 40
0.0
 40
1.0
 40
1.0
 40
1.0
 40
2.0
 40
2.0
 40
2.0
 40
3.0
 40
3.0
 40
3.0
 40
4.0
 40
4.0
 40
4.0
 40
4.0
 10
19.63554564938799
 20
-22.85204182371407
 30
0.0
 10
19.63554564938799
 20
-23.1282006778117
 30
0.0
 10
19.41168334475645
 20
-23.35206298244323
 30
0.0
 10
19.13559339256853
 20
-23.35206298244323
 30
0.0
 10
18.8594345384709
 20
-23.35206298244323
 30
0.0
 10
18.63557223383937
 20
-23.1282006778117
 30
0.0
 10
18.63557223383937
 20
-22.85204182371407
 30
0.0
 10
18.63557223383937
 20
-22.57588296961644
 30
0.0
 10
18.8594345384709
 20
-22.35205511593976
 30
0.0
 10
19.13559339256853
 20
-22.35205511593976
 30
0.0
 10
19.41168334475645
 20
-22.35205511593976
 30
0.0
 10
19.63554564938799
 20
-22.57588296961644
 30
0.0
 10
19.63554564938799
 20
-22.85204182371407
 30
0.0
  0
SPLINE
  5
48
330
1F
100
AcDbEntity
  8
Layer 1
 62
   179
420
  2301728
370
    35
100
AcDbSpline
210
0.0
220
0.0
230
1.0
 70
    11
 71
     3
 72
    17
 73
    13
 74
     0
 42
0.0000000001
 43
0.0000000001
 40
0.0
 40
0.0
 40
0.0
 40
0.0
 40
1.0
 40
1.0
 40
1.0
 40
2.0
 40
2.0
 40
2.0
 40
3.0
 40
3.0
 40
3.0
 40
4.0
 40
4.0
 40
4.0
 40
4.0
 10
17.85632608603071
 20
-22.85204182371407
 30
0.0
 10
17.85632608603071
 20
-23.1282006778117
 30
0.0
 10
17.63246378139917
 20
-23.35206298244323
 30
0.0
 10
17.35630492730155
 20
-23.35206298244323
 30
0.0
 10
17.08021497511363
 20
-23.35206298244323
 30
0.0
 10
16.85631821952724
 20
-23.1282006778117
 30
0.0
 10
16.85631821952724
 20
-22.85204182371407
 30
0.0
 10
16.85631821952724
 20
-22.57588296961644
 30
0.0
 10
17.08021497511363
 20
-22.35205511593976
 30
0.0
 10
17.35630492730155
 20
-22.35205511593976
 30
0.0
 10
17.63246378139917
 20
-22.35205511593976
 30
0.0
 10
17.85632608603071
 20
-22.57588296961644
 30
0.0
 10
17.85632608603071
 20
-22.85204182371407
 30
0.0
  0
SPLINE
  5
49
330
1F
100
AcDbEntity
  8
Layer 1
 62
   179
420
  2301728
370
    35
100
AcDbSpline
210
0.0
220
0.0
230
1.0
 70
    11
 71
     3
 72
    17
 73
    13
 74
     0
 42
0.0000000001
 43
0.0000000001
 40
0.0
 40
0.0
 40
0.0
 40
0.0
 40
1.0
 40
1.0
 40
1.0
 40
2.0
 40
2.0
 40
2.0
 40
3.0
 40
3.0
 40
3.0
 40
4.0
 40
4.0
 40
4.0
 40
4.0
 10
21.44442748487327
 20
-22.85204182371407
 30
0.0
 10
21.44442748487327
 20
-23.1282006778117
 30
0.0
 10
21.22056518024173
 20
-23.35206298244323
 30
0.0
 10
20.94447522805381
 20
-23.35206298244323
 30
0.0
 10
20.66831637395618
 20
-23.35206298244323
 30
0.0
 10
20.44445406932465
 20
-23.1282006778117
 30
0.0
 10
20.44445406932465
 20
-22.85204182371407
 30
0.0
 10
20.44445406932465
 20
-22.57588296961644
 30
0.0
 10
20.66831637395618
 20
-22.35205511593976
 30
0.0
 10
20.94447522805381
 20
-22.35205511593976
 30
0.0
 10
21.22056518024173
 20
-22.35205511593976
 30
0.0
 10
21.44442748487327
 20
-22.57588296961644
 30
0.0
 10
21.44442748487327
 20
-22.85204182371407
 30
0.0
  0
SPLINE
  5
4A
330
1F
100
AcDbEntity
  8
Layer 1
 62
   179
420
  2301728
370
    35
100
AcDbSpline
210
0.0
220
0.0
230
1.0
 70
    11
 71
     3
 72
    17
 73
    13
 74
     0
 42
0.0000000001
 43
0.0000000001
 40
0.0
 40
0.0
 40
0.0
 40
0.0
 40
1.0
 40
1.0
 40
1.0
 40
2.0
 40
2.0
 40
2.0
 40
3.0
 40
3.0
 40
3.0
 40
4.0
 40
4.0
 40
4.0
 40
4.0
 10
5.195479599395574
 20
-19.29370604986407
 30
0.0
 10
4.919320745297947
 20
-19.29370604986407
 30
0.0
 10
4.695458440666413
 20
-19.06984374523254
 30
0.0
 10
4.695458440666413
 20
-18.79375379304462
 30
0.0
 10
4.695458440666413
 20
-18.51759493894699
 30
0.0
 10
4.919320745297947
 20
-18.29373263431545
 30
0.0
 10
5.195479599395574
 20
-18.29373263431545
 30
0.0
 10
5.471638453493201
 20
-18.29373263431545
 30
0.0
 10
5.695500758124735
 20
-18.51759493894699
 30
0.0
 10
5.695500758124735
 20
-18.79375379304462
 30
0.0
 10
5.695500758124735
 20
-19.06984374523254
 30
0.0
 10
5.471638453493201
 20
-19.29370604986407
 30
0.0
 10
5.195479599395574
 20
-19.29370604986407
 30
0.0
  0
SPLINE
  5
4B
330
1F
100
AcDbEntity
  8
Layer 1
 62
   179
420
  2301728
370
    35
100
AcDbSpline
210
0.0
220
0.0
230
1.0
 70
    11
 71
     3
 72
    17
 73
    13
 74
     0
 42
0.0000000001
 43
0.0000000001
 40
0.0
 40
0.0
 40
0.0
 40
0.0
 40
1.0
 40
1.0
 40
1.0
 40
2.0
 40
2.0
 40
2.0
 40
3.0
 40
3.0
 40
3.0
 40
4.0
 40
4.0
 40
4.0
 40
4.0
 10
5.195479599395574
 20
-17.51448648650679
 30
0.0
 10
4.919320745297947
 20
-17.51448648650679
 30
0.0
 10
4.695458440666413
 20
-17.29062418187526
 30
0.0
 10
4.695458440666413
 20
-17.01449977873249
 30
0.0
 10
4.695458440666413
 20
-16.73837537558971
 30
0.0
 10
4.919320745297947
 20
-16.51447862000332
 30
0.0
 10
5.195479599395574
 20
-16.51447862000332
 30
0.0
 10
5.471638453493201
 20
-16.51447862000332
 30
0.0
 10
5.695500758124735
 20
-16.73837537558971
 30
0.0
 10
5.695500758124735
 20
-17.01449977873249
 30
0.0
 10
5.695500758124735
 20
-17.29062418187526
 30
0.0
 10
5.471638453493201
 20
-17.51448648650679
 30
0.0
 10
5.195479599395574
 20
-17.51448648650679
 30
0.0
  0
SPLINE
  5
4C
330
1F
100
AcDbEntity
  8
Layer 1
 62
   179
420
  2301728
370
    35
100
AcDbSpline
210
0.0
220
0.0
230
1.0
 70
    11
 71
     3
 72
    17
 73
    13
 74
     0
 42
0.0000000001
 43
0.0000000001
 40
0.0
 40
0.0
 40
0.0
 40
0.0
 40
1.0
 40
1.0
 40
1.0
 40
2.0
 40
2.0
 40
2.0
 40
3.0
 40
3.0
 40
3.0
 40
4.0
 40
4.0
 40
4.0
 40
4.0
 10
5.195479599395574
 20
-21.10258788534935
 30
0.0
 10
4.919320745297947
 20
-21.10258788534935
 30
0.0
 10
4.695458440666413
 20
-20.87872558071782
 30
0.0
 10
4.695458440666413
 20
-20.6026356285299
 30
0.0
 10
4.695458440666413
 20
-20.32647677443227
 30
0.0
 10
4.919320745297947
 20
-20.10261446980073
 30
0.0
 10
5.195479599395574
 20
-20.10261446980073
 30
0.0
 10
5.471638453493201
 20
-20.10261446980073
 30
0.0
 10
5.695500758124735
 20
-20.32647677443227
 30
0.0
 10
5.695500758124735
 20
-20.6026356285299
 30
0.0
 10
5.695500758124735
 20
-20.87872558071782
 30
0.0
 10
5.471638453493201
 20
-21.10258788534935
 30
0.0
 10
5.195479599395574
 20
-21.10258788534935
 30
0.0
  0
SPLINE
  5
4D
330
1F
100
AcDbEntity
  8
Layer 1
 62
   179
420
  2301728
370
    35
100
AcDbSpline
210
0.0
220
0.0
230
1.0
 70
    11
 71
     3
 72
    17
 73
    13
 74
     0
 42
0.0000000001
 43
0.0000000001
 40
0.0
 40
0.0
 40
0.0
 40
0.0
 40
1.0
 40
1.0
 40
1.0
 40
2.0
 40
2.0
 40
2.0
 40
3.0
 40
3.0
 40
3.0
 40
4.0
 40
4.0
 40
4.0
 40
4.0
 10
20.91681111130725
 20
-19.2788921392775
 30
0.0
 10
20.64065225720963
 20
-19.2788921392775
 30
0.0
 10
20.41678995257809
 20
-19.05502983464596
 30
0.0
 10
20.41678995257809
 20
-18.77893988245804
 30
0.0
 10
20.41678995257809
 20
-18.50278102836041
 30
0.0
 10
20.64065225720963
 20
-18.27891872372888
 30
0.0
 10
20.91681111130725
 20
-18.27891872372888
 30
0.0
 10
21.19296996540488
 20
-18.27891872372888
 30
0.0
 10
21.41683227003642
 20
-18.50278102836041
 30
0.0
 10
21.41683227003642
 20
-18.77893988245804
 30
0.0
 10
21.41683227003642
 20
-19.05502983464596
 30
0.0
 10
21.19296996540488
 20
-19.2788921392775
 30
0.0
 10
20.91681111130725
 20
-19.2788921392775
 30
0.0
  0
SPLINE
  5
4E
330
1F
100
AcDbEntity
  8
Layer 1
 62
   179
420
  2301728
370
    35
100
AcDbSpline
210
0.0
220
0.0
230
1.0
 70
    11
 71
     3
 72
    17
 73
    13
 74
     0
 42
0.0000000001
 43
0.0000000001
 40
0.0
 40
0.0
 40
0.0
 40
0.0
 40
1.0
 40
1.0
 40
1.0
 40
2.0
 40
2.0
 40
2.0
 40
3.0
 40
3.0
 40
3.0
 40
4.0
 40
4.0
 40
4.0
 40
4.0
 10
20.91681111130725
 20
-17.49967257592022
 30
0.0
 10
20.64065225720963
 20
-17.49967257592022
 30
0.0
 10
20.41678995257809
 20
-17.27581027128868
 30
0.0
 10
20.41678995257809
 20
-16.99968586814591
 30
0.0
 10
20.41678995257809
 20
-16.72356146500314
 30
0.0
 10
20.64065225720963
 20
-16.49966470941675
 30
0.0
 10
20.91681111130725
 20
-16.49966470941675
 30
0.0
 10
21.19296996540488
 20
-16.49966470941675
 30
0.0
 10
21.41683227003642
 20
-16.72356146500314
 30
0.0
 10
21.41683227003642
 20
-16.99968586814591
 30
0.0
 10
21.41683227003642
 20
-17.27581027128868
 30
0.0
 10
21.19296996540488
 20
-17.49967257592022
 30
0.0
 10
20.91681111130725
 20
-17.49967257592022
 30
0.0
  0
SPLINE
  5
4F
330
1F
100
AcDbEntity
  8
Layer 1
 62
   179
420
  2301728
370
    35
100
AcDbSpline
210
0.0
220
0.0
230
1.0
 70
    11
 71
     3
 72
    17
 73
    13
 74
     0
 42
0.0000000001
 43
0.0000000001
 40
0.0
 40
0.0
 40
0.0
 40
0.0
 40
1.0
 40
1.0
 40
1.0
 40
2.0
 40
2.0
 40
2.0
 40
3.0
 40
3.0
 40
3.0
 40
4.0
 40
4.0
 40
4.0
 40
4.0
 10
20.91681111130725
 20
-21.08777397476278
 30
0.0
 10
20.64065225720963
 20
-21.08777397476278
 30
0.0
 10
20.41678995257809
 20
-20.86391167013124
 30
0.0
 10
20.41678995257809
 20
-20.58782171794332
 30
0.0
 10
20.41678995257809
 20
-20.31166286384569
 30
0.0
 10
20.64065225720963
 20
-20.08780055921416
 30
0.0
 10
20.91681111130725
 20
-20.08780055921416
 30
0.0
 10
21.19296996540488
 20
-20.08780055921416
 30
0.0
 10
21.41683227003642
 20
-20.31166286384569
 30
0.0
 10
21.41683227003642
 20
-20.58782171794332
 30
0.0
 10
21.41683227003642
 20
-20.86391167013124
 30
0.0
 10
21.19296996540488
 20
-21.08777397476278
 30
0.0
 10
20.91681111130725
 20
-21.08777397476278
 30
0.0
  0
SPLINE
  5
50
330
1F
100
AcDbEntity
  8
Layer 1
 62
   179
420
  2301728
370
    35
100
AcDbSpline
210
0.0
220
0.0
230
1.0
 70
    11
 71
     3
 72
    23
 73
    19
 74
     0
 42
0.0000000001
 43
0.0000000001
 40
0.0
 40
0.0
 40
0.0
 40
0.0
 40
1.0
 40
1.0
 40
1.0
 40
2.0
 40
2.0
 40
2.0
 40
3.0
 40
3.0
 40
3.0
 40
4.0
 40
4.0
 40
4.0
 40
5.0
 40
5.0
 40
5.0
 40
6.0
 40
6.0
 40
6.0
 40
6.0
 10
31.01529892887812
 20
-6.191267223929613
 30
0.0
 10
31.01529892887812
 20
-6.191267223929613
 30
0.0
 10
36.98537379717727
 20
-6.191267223929613
 30
0.0
 10
36.98537379717727
 20
-6.191267223929613
 30
0.0
 10
36.98537379717727
 20
-6.191267223929613
 30
0.0
 10
43.04591687291907
 20
-6.146033120208283
 30
0.0
 10
43.04591687291907
 20
-12.07089111026353
 30
0.0
 10
43.04591687291907
 20
-17.99573187484134
 30
0.0
 10
43.04591687291907
 20
-24.05627495058315
 30
0.0
 10
43.04591687291907
 20
-24.05627495058315
 30
0.0
 10
43.04591687291907
 20
-24.05627495058315
 30
0.0
 10
24.99995550590279
 20
-24.05627495058315
 30
0.0
 10
24.99995550590279
 20
-24.05627495058315
 30
0.0
 10
24.99995550590279
 20
-24.05627495058315
 30
0.0
 10
24.99995550590279
 20
-12.11612521398486
 30
0.0
 10
24.99995550590279
 20
-12.11612521398486
 30
0.0
 10
24.99995550590279
 20
-12.11612521398486
 30
0.0
 10
25.04515515866926
 20
-6.191267223929613
 30
0.0
 10
31.01529892887812
 20
-6.191267223929613
 30
0.0
  0
SPLINE
  5
51
330
1F
100
AcDbEntity
  8
Layer 1
 62
   179
420
  2301728
370
    35
100
AcDbSpline
210
0.0
220
0.0
230
1.0
 70
    11
 71
     3
 72
    17
 73
    13
 74
     0
 42
0.0000000001
 43
0.0000000001
 40
0.0
 40
0.0
 40
0.0
 40
0.0
 40
1.0
 40
1.0
 40
1.0
 40
2.0
 40
2.0
 40
2.0
 40
3.0
 40
3.0
 40
3.0
 40
4.0
 40
4.0
 40
4.0
 40
4.0
 10
38.67732909189316
 20
-7.691261798207393
 30
0.0
 10
38.67732909189316
 20
-7.96742065230502
 30
0.0
 10
38.45346678726163
 20
-8.191282956936554
 30
0.0
 10
38.17737683507371
 20
-8.191282956936554
 30
0.0
 10
37.90121798097609
 20
-8.191282956936554
 30
0.0
 10
37.67735567634455
 20
-7.96742065230502
 30
0.0
 10
37.67735567634455
 20
-7.691261798207393
 30
0.0
 10
37.67735567634455
 20
-7.415102944109766
 30
0.0
 10
37.90121798097609
 20
-7.191257864955658
 30
0.0
 10
38.17737683507371
 20
-7.191257864955658
 30
0.0
 10
38.45346678726163
 20
-7.191257864955658
 30
0.0
 10
38.67732909189316
 20
-7.415102944109766
 30
0.0
 10
38.67732909189316
 20
-7.691261798207393
 30
0.0
  0
SPLINE
  5
52
330
1F
100
AcDbEntity
  8
Layer 1
 62
   179
420
  2301728
370
    35
100
AcDbSpline
210
0.0
220
0.0
230
1.0
 70
    11
 71
     3
 72
    17
 73
    13
 74
     0
 42
0.0000000001
 43
0.0000000001
 40
0.0
 40
0.0
 40
0.0
 40
0.0
 40
1.0
 40
1.0
 40
1.0
 40
2.0
 40
2.0
 40
2.0
 40
3.0
 40
3.0
 40
3.0
 40
4.0
 40
4.0
 40
4.0
 40
4.0
 10
40.51563204282247
 20
-9.027717689800362
 30
0.0
 10
40.51563204282247
 20
-9.303876543897989
 30
0.0
 10
40.29176973819094
 20
-9.527738848529523
 30
0.0
 10
40.01561088409332
 20
-9.527738848529523
 30
0.0
 10
39.7395209319054
 20
-9.527738848529523
 30
0.0
 10
39.51558972536416
 20
-9.303876543897989
 30
0.0
 10
39.51558972536416
 20
-9.027717689800362
 30
0.0
 10
39.51558972536416
 20
-8.751558835702735
 30
0.0
 10
39.7395209319054
 20
-8.527713756548627
 30
0.0
 10
40.01561088409332
 20
-8.527713756548627
 30
0.0
 10
40.29176973819094
 20
-8.527713756548627
 30
0.0
 10
40.51563204282247
 20
-8.751558835702735
 30
0.0
 10
40.51563204282247
 20
-9.027717689800362
 30
0.0
  0
SPLINE
  5
53
330
1F
100
AcDbEntity
  8
Layer 1
 62
   179
420
  2301728
370
    35
100
AcDbSpline
210
0.0
220
0.0
230
1.0
 70
    11
 71
     3
 72
    17
 73
    13
 74
     0
 42
0.0000000001
 43
0.0000000001
 40
0.0
 40
0.0
 40
0.0
 40
0.0
 40
1.0
 40
1.0
 40
1.0
 40
2.0
 40
2.0
 40
2.0
 40
3.0
 40
3.0
 40
3.0
 40
4.0
 40
4.0
 40
4.0
 40
4.0
 10
41.78204914320032
 20
-10.80449123536311
 30
0.0
 10
41.78204914320032
 20
-11.08065008946074
 30
0.0
 10
41.55818683856879
 20
-11.30451239409227
 30
0.0
 10
41.28202798447116
 20
-11.30451239409227
 30
0.0
 10
41.00593803228323
 20
-11.30451239409227
 30
0.0
 10
40.78200682574199
 20
-11.08065008946074
 30
0.0
 10
40.78200682574199
 20
-10.80449123536311
 30
0.0
 10
40.78200682574199
 20
-10.52833238126549
 30
0.0
 10
41.00593803228323
 20
-10.30448730211138
 30
0.0
 10
41.28202798447116
 20
-10.30448730211138
 30
0.0
 10
41.55818683856879
 20
-10.30448730211138
 30
0.0
 10
41.78204914320032
 20
-10.52833238126549
 30
0.0
 10
41.78204914320032
 20
-10.80449123536311
 30
0.0
  0
SPLINE
  5
54
330
1F
100
AcDbEntity
  8
Layer 1
 62
   179
420
  2301728
370
    35
100
AcDbSpline
210
0.0
220
0.0
230
1.0
 70
    11
 71
     3
 72
    17
 73
    13
 74
     0
 42
0.0000000001
 43
0.0000000001
 40
0.0
 40
0.0
 40
0.0
 40
0.0
 40
1.0
 40
1.0
 40
1.0
 40
2.0
 40
2.0
 40
2.0
 40
3.0
 40
3.0
 40
3.0
 40
4.0
 40
4.0
 40
4.0
 40
4.0
 10
28.75586750583187
 20
-22.90857584062702
 30
0.0
 10
28.75586750583187
 20
-23.18473469472465
 30
0.0
 10
28.53200520120033
 20
-23.40859699935618
 30
0.0
 10
28.25588079805756
 20
-23.40859699935618
 30
0.0
 10
27.97975639491478
 20
-23.40859699935618
 30
0.0
 10
27.75589409028325
 20
-23.18473469472465
 30
0.0
 10
27.75589409028325
 20
-22.90857584062702
 30
0.0
 10
27.75589409028325
 20
-22.63241698652939
 30
0.0
 10
27.97975639491478
 20
-22.40855468189786
 30
0.0
 10
28.25588079805756
 20
-22.40855468189786
 30
0.0
 10
28.53200520120033
 20
-22.40855468189786
 30
0.0
 10
28.75586750583187
 20
-22.63241698652939
 30
0.0
 10
28.75586750583187
 20
-22.90857584062702
 30
0.0
  0
SPLINE
  5
55
330
1F
100
AcDbEntity
  8
Layer 1
 62
   179
420
  2301728
370
    35
100
AcDbSpline
210
0.0
220
0.0
230
1.0
 70
    11
 71
     3
 72
    17
 73
    13
 74
     0
 42
0.0000000001
 43
0.0000000001
 40
0.0
 40
0.0
 40
0.0
 40
0.0
 40
1.0
 40
1.0
 40
1.0
 40
2.0
 40
2.0
 40
2.0
 40
3.0
 40
3.0
 40
3.0
 40
4.0
 40
4.0
 40
4.0
 40
4.0
 10
26.97661349151973
 20
-22.90857584062702
 30
0.0
 10
26.97661349151973
 20
-23.18473469472465
 30
0.0
 10
26.7527511868882
 20
-23.40859699935618
 30
0.0
 10
26.47662678374542
 20
-23.40859699935618
 30
0.0
 10
26.20050238060265
 20
-23.40859699935618
 30
0.0
 10
25.97664007597112
 20
-23.18473469472465
 30
0.0
 10
25.97664007597112
 20
-22.90857584062702
 30
0.0
 10
25.97664007597112
 20
-22.63241698652939
 30
0.0
 10
26.20050238060265
 20
-22.40855468189786
 30
0.0
 10
26.47662678374542
 20
-22.40855468189786
 30
0.0
 10
26.7527511868882
 20
-22.40855468189786
 30
0.0
 10
26.97661349151973
 20
-22.63241698652939
 30
0.0
 10
26.97661349151973
 20
-22.90857584062702
 30
0.0
  0
SPLINE
  5
56
330
1F
100
AcDbEntity
  8
Layer 1
 62
   179
420
  2301728
370
    35
100
AcDbSpline
210
0.0
220
0.0
230
1.0
 70
    11
 71
     3
 72
    17
 73
    13
 74
     0
 42
0.0000000001
 43
0.0000000001
 40
0.0
 40
0.0
 40
0.0
 40
0.0
 40
1.0
 40
1.0
 40
1.0
 40
2.0
 40
2.0
 40
2.0
 40
3.0
 40
3.0
 40
3.0
 40
4.0
 40
4.0
 40
4.0
 40
4.0
 10
30.56474934131714
 20
-22.90857584062702
 30
0.0
 10
30.56474934131714
 20
-23.18473469472465
 30
0.0
 10
30.34088703668561
 20
-23.40859699935618
 30
0.0
 10
30.06476263354283
 20
-23.40859699935618
 30
0.0
 10
29.78863823040006
 20
-23.40859699935618
 30
0.0
 10
29.56477592576853
 20
-23.18473469472465
 30
0.0
 10
29.56477592576853
 20
-22.90857584062702
 30
0.0
 10
29.56477592576853
 20
-22.63241698652939
 30
0.0
 10
29.78863823040006
 20
-22.40855468189786
 30
0.0
 10
30.06476263354283
 20
-22.40855468189786
 30
0.0
 10
30.34088703668561
 20
-22.40855468189786
 30
0.0
 10
30.56474934131714
 20
-22.63241698652939
 30
0.0
 10
30.56474934131714
 20
-22.90857584062702
 30
0.0
  0
SPLINE
  5
57
330
1F
100
AcDbEntity
  8
Layer 1
 62
   179
420
  2301728
370
    35
100
AcDbSpline
210
0.0
220
0.0
230
1.0
 70
    11
 71
     3
 72
    17
 73
    13
 74
     0
 42
0.0000000001
 43
0.0000000001
 40
0.0
 40
0.0
 40
0.0
 40
0.0
 40
1.0
 40
1.0
 40
1.0
 40
2.0
 40
2.0
 40
2.0
 40
3.0
 40
3.0
 40
3.0
 40
4.0
 40
4.0
 40
4.0
 40
4.0
 10
40.50081813223591
 20
-22.90857584062702
 30
0.0
 10
40.50081813223591
 20
-23.18473469472465
 30
0.0
 10
40.27695582760437
 20
-23.40859699935618
 30
0.0
 10
40.00086587541644
 20
-23.40859699935618
 30
0.0
 10
39.72470702131882
 20
-23.40859699935618
 30
0.0
 10
39.50084471668728
 20
-23.18473469472465
 30
0.0
 10
39.50084471668728
 20
-22.90857584062702
 30
0.0
 10
39.50084471668728
 20
-22.63241698652939
 30
0.0
 10
39.72470702131882
 20
-22.40862358380756
 30
0.0
 10
40.00086587541644
 20
-22.40862358380756
 30
0.0
 10
40.27695582760437
 20
-22.40862358380756
 30
0.0
 10
40.50081813223591
 20
-22.63241698652939
 30
0.0
 10
40.50081813223591
 20
-22.90857584062702
 30
0.0
  0
SPLINE
  5
58
330
1F
100
AcDbEntity
  8
Layer 1
 62
   179
420
  2301728
370
    35
100
AcDbSpline
210
0.0
220
0.0
230
1.0
 70
    11
 71
     3
 72
    17
 73
    13
 74
     0
 42
0.0000000001
 43
0.0000000001
 40
0.0
 40
0.0
 40
0.0
 40
0.0
 40
1.0
 40
1.0
 40
1.0
 40
2.0
 40
2.0
 40
2.0
 40
3.0
 40
3.0
 40
3.0
 40
4.0
 40
4.0
 40
4.0
 40
4.0
 10
38.72156411792377
 20
-22.90857584062702
 30
0.0
 10
38.72156411792377
 20
-23.18473469472465
 30
0.0
 10
38.49770181329224
 20
-23.40859699935618
 30
0.0
 10
38.22154295919461
 20
-23.40859699935618
 30
0.0
 10
37.94545300700669
 20
-23.40859699935618
 30
0.0
 10
37.72159070237515
 20
-23.18473469472465
 30
0.0
 10
37.72159070237515
 20
-22.90857584062702
 30
0.0
 10
37.72159070237515
 20
-22.63241698652939
 30
0.0
 10
37.94545300700669
 20
-22.40862358380756
 30
0.0
 10
38.22154295919461
 20
-22.40862358380756
 30
0.0
 10
38.49770181329224
 20
-22.40862358380756
 30
0.0
 10
38.72156411792377
 20
-22.63241698652939
 30
0.0
 10
38.72156411792377
 20
-22.90857584062702
 30
0.0
  0
SPLINE
  5
59
330
1F
100
AcDbEntity
  8
Layer 1
 62
   179
420
  2301728
370
    35
100
AcDbSpline
210
0.0
220
0.0
230
1.0
 70
    11
 71
     3
 72
    17
 73
    13
 74
     0
 42
0.0000000001
 43
0.0000000001
 40
0.0
 40
0.0
 40
0.0
 40
0.0
 40
1.0
 40
1.0
 40
1.0
 40
2.0
 40
2.0
 40
2.0
 40
3.0
 40
3.0
 40
3.0
 40
4.0
 40
4.0
 40
4.0
 40
4.0
 10
42.30969996772118
 20
-22.90857584062702
 30
0.0
 10
42.30969996772118
 20
-23.18473469472465
 30
0.0
 10
42.08583766308965
 20
-23.40859699935618
 30
0.0
 10
41.80974771090172
 20
-23.40859699935618
 30
0.0
 10
41.5335888568041
 20
-23.40859699935618
 30
0.0
 10
41.30972655217256
 20
-23.18473469472465
 30
0.0
 10
41.30972655217256
 20
-22.90857584062702
 30
0.0
 10
41.30972655217256
 20
-22.63241698652939
 30
0.0
 10
41.5335888568041
 20
-22.40862358380756
 30
0.0
 10
41.80974771090172
 20
-22.40862358380756
 30
0.0
 10
42.08583766308965
 20
-22.40862358380756
 30
0.0
 10
42.30969996772118
 20
-22.63241698652939
 30
0.0
 10
42.30969996772118
 20
-22.90857584062702
 30
0.0
  0
SPLINE
  5
5A
330
1F
100
AcDbEntity
  8
Layer 1
 62
   179
420
  2301728
370
    35
100
AcDbSpline
210
0.0
220
0.0
230
1.0
 70
    11
 71
     3
 72
    17
 73
    13
 74
     0
 42
0.0000000001
 43
0.0000000001
 40
0.0
 40
0.0
 40
0.0
 40
0.0
 40
1.0
 40
1.0
 40
1.0
 40
2.0
 40
2.0
 40
2.0
 40
3.0
 40
3.0
 40
3.0
 40
4.0
 40
4.0
 40
4.0
 40
4.0
 10
26.06073485676606
 20
-19.35027451773188
 30
0.0
 10
25.78457600266844
 20
-19.35027451773188
 30
0.0
 10
25.5607136980369
 20
-19.12641221310034
 30
0.0
 10
25.5607136980369
 20
-18.85032226091242
 30
0.0
 10
25.5607136980369
 20
-18.57416340681479
 30
0.0
 10
25.78457600266844
 20
-18.35030110218326
 30
0.0
 10
26.06073485676606
 20
-18.35030110218326
 30
0.0
 10
26.33689371086369
 20
-18.35030110218326
 30
0.0
 10
26.56075601549523
 20
-18.57416340681479
 30
0.0
 10
26.56075601549523
 20
-18.85032226091242
 30
0.0
 10
26.56075601549523
 20
-19.12641221310034
 30
0.0
 10
26.33689371086369
 20
-19.35027451773188
 30
0.0
 10
26.06073485676606
 20
-19.35027451773188
 30
0.0
  0
SPLINE
  5
5B
330
1F
100
AcDbEntity
  8
Layer 1
 62
   179
420
  2301728
370
    35
100
AcDbSpline
210
0.0
220
0.0
230
1.0
 70
    11
 71
     3
 72
    17
 73
    13
 74
     0
 42
0.0000000001
 43
0.0000000001
 40
0.0
 40
0.0
 40
0.0
 40
0.0
 40
1.0
 40
1.0
 40
1.0
 40
2.0
 40
2.0
 40
2.0
 40
3.0
 40
3.0
 40
3.0
 40
4.0
 40
4.0
 40
4.0
 40
4.0
 10
26.06073485676606
 20
-17.57102050341974
 30
0.0
 10
25.78457600266844
 20
-17.57102050341974
 30
0.0
 10
25.5607136980369
 20
-17.34715819878821
 30
0.0
 10
25.5607136980369
 20
-17.07106824660029
 30
0.0
 10
25.5607136980369
 20
-16.79490939250266
 30
0.0
 10
25.78457600266844
 20
-16.57104708787113
 30
0.0
 10
26.06073485676606
 20
-16.57104708787113
 30
0.0
 10
26.33689371086369
 20
-16.57104708787113
 30
0.0
 10
26.56075601549523
 20
-16.79490939250266
 30
0.0
 10
26.56075601549523
 20
-17.07106824660029
 30
0.0
 10
26.56075601549523
 20
-17.34715819878821
 30
0.0
 10
26.33689371086369
 20
-17.57102050341974
 30
0.0
 10
26.06073485676606
 20
-17.57102050341974
 30
0.0
  0
SPLINE
  5
5C
330
1F
100
AcDbEntity
  8
Layer 1
 62
   179
420
  2301728
370
    35
100
AcDbSpline
210
0.0
220
0.0
230
1.0
 70
    11
 71
     3
 72
    17
 73
    13
 74
     0
 42
0.0000000001
 43
0.0000000001
 40
0.0
 40
0.0
 40
0.0
 40
0.0
 40
1.0
 40
1.0
 40
1.0
 40
2.0
 40
2.0
 40
2.0
 40
3.0
 40
3.0
 40
3.0
 40
4.0
 40
4.0
 40
4.0
 40
4.0
 10
26.06073485676606
 20
-21.15915635321715
 30
0.0
 10
25.78457600266844
 20
-21.15915635321715
 30
0.0
 10
25.5607136980369
 20
-20.93529404858562
 30
0.0
 10
25.5607136980369
 20
-20.6592040963977
 30
0.0
 10
25.5607136980369
 20
-20.38304524230007
 30
0.0
 10
25.78457600266844
 20
-20.15918293766854
 30
0.0
 10
26.06073485676606
 20
-20.15918293766854
 30
0.0
 10
26.33689371086369
 20
-20.15918293766854
 30
0.0
 10
26.56075601549523
 20
-20.38304524230007
 30
0.0
 10
26.56075601549523
 20
-20.6592040963977
 30
0.0
 10
26.56075601549523
 20
-20.93529404858562
 30
0.0
 10
26.33689371086369
 20
-21.15915635321715
 30
0.0
 10
26.06073485676606
 20
-21.15915635321715
 30
0.0
  0
SPLINE
  5
5D
330
1F
100
AcDbEntity
  8
Layer 1
 62
   179
420
  2301728
370
    35
100
AcDbSpline
210
0.0
220
0.0
230
1.0
 70
    11
 71
     3
 72
    17
 73
    13
 74
     0
 42
0.0000000001
 43
0.0000000001
 40
0.0
 40
0.0
 40
0.0
 40
0.0
 40
1.0
 40
1.0
 40
1.0
 40
2.0
 40
2.0
 40
2.0
 40
3.0
 40
3.0
 40
3.0
 40
4.0
 40
4.0
 40
4.0
 40
4.0
 10
41.78204914320032
 20
-19.3354606071453
 30
0.0
 10
41.50589028910269
 20
-19.3354606071453
 30
0.0
 10
41.28202798447116
 20
-19.11159830251377
 30
0.0
 10
41.28202798447116
 20
-18.83550835032584
 30
0.0
 10
41.28202798447116
 20
-18.55934949622822
 30
0.0
 10
41.50589028910269
 20
-18.33548719159668
 30
0.0
 10
41.78204914320032
 20
-18.33548719159668
 30
0.0
 10
42.05820799729794
 20
-18.33548719159668
 30
0.0
 10
42.28207030192948
 20
-18.55934949622822
 30
0.0
 10
42.28207030192948
 20
-18.83550835032584
 30
0.0
 10
42.28207030192948
 20
-19.11159830251377
 30
0.0
 10
42.05820799729794
 20
-19.3354606071453
 30
0.0
 10
41.78204914320032
 20
-19.3354606071453
 30
0.0
  0
SPLINE
  5
5E
330
1F
100
AcDbEntity
  8
Layer 1
 62
   179
420
  2301728
370
    35
100
AcDbSpline
210
0.0
220
0.0
230
1.0
 70
    11
 71
     3
 72
    17
 73
    13
 74
     0
 42
0.0000000001
 43
0.0000000001
 40
0.0
 40
0.0
 40
0.0
 40
0.0
 40
1.0
 40
1.0
 40
1.0
 40
2.0
 40
2.0
 40
2.0
 40
3.0
 40
3.0
 40
3.0
 40
4.0
 40
4.0
 40
4.0
 40
4.0
 10
41.78204914320032
 20
-17.55620659283317
 30
0.0
 10
41.50589028910269
 20
-17.55620659283317
 30
0.0
 10
41.28202798447116
 20
-17.33234428820164
 30
0.0
 10
41.28202798447116
 20
-17.05625433601371
 30
0.0
 10
41.28202798447116
 20
-16.78009548191609
 30
0.0
 10
41.50589028910269
 20
-16.55623317728455
 30
0.0
 10
41.78204914320032
 20
-16.55623317728455
 30
0.0
 10
42.05820799729794
 20
-16.55623317728455
 30
0.0
 10
42.28207030192948
 20
-16.78009548191609
 30
0.0
 10
42.28207030192948
 20
-17.05625433601371
 30
0.0
 10
42.28207030192948
 20
-17.33234428820164
 30
0.0
 10
42.05820799729794
 20
-17.55620659283317
 30
0.0
 10
41.78204914320032
 20
-17.55620659283317
 30
0.0
  0
SPLINE
  5
5F
330
1F
100
AcDbEntity
  8
Layer 1
 62
   179
420
  2301728
370
    35
100
AcDbSpline
210
0.0
220
0.0
230
1.0
 70
    11
 71
     3
 72
    17
 73
    13
 74
     0
 42
0.0000000001
 43
0.0000000001
 40
0.0
 40
0.0
 40
0.0
 40
0.0
 40
1.0
 40
1.0
 40
1.0
 40
2.0
 40
2.0
 40
2.0
 40
3.0
 40
3.0
 40
3.0
 40
4.0
 40
4.0
 40
4.0
 40
4.0
 10
41.78204914320032
 20
-21.14434244263058
 30
0.0
 10
41.50589028910269
 20
-21.14434244263058
 30
0.0
 10
41.28202798447116
 20
-20.92048013799905
 30
0.0
 10
41.28202798447116
 20
-20.64439018581112
 30
0.0
 10
41.28202798447116
 20
-20.3682313317135
 30
0.0
 10
41.50589028910269
 20
-20.14436902708196
 30
0.0
 10
41.78204914320032
 20
-20.14436902708196
 30
0.0
 10
42.05820799729794
 20
-20.14436902708196
 30
0.0
 10
42.28207030192948
 20
-20.3682313317135
 30
0.0
 10
42.28207030192948
 20
-20.64439018581112
 30
0.0
 10
42.28207030192948
 20
-20.92048013799905
 30
0.0
 10
42.05820799729794
 20
-21.14434244263058
 30
0.0
 10
41.78204914320032
 20
-21.14434244263058
 30
0.0
  0
POLYLINE
  5
60
330
1F
100
AcDbEntity
  8
Layer 1
 62
   179
420
  2301728
370
    35
100
AcDb2dPolyline
 66
     1
 10
0.0
 20
0.0
 30
0.0
  0
VERTEX
  5
61
330
60
100
AcDbEntity
  8
Layer 1
 62
   179
420
  2301728
370
    35
100
AcDbVertex
100
AcDb2dVertex
 10
36.47136555077799
 20
-1.97939683652772
 30
0.0
  0
VERTEX
  5
C4
330
60
100
AcDbEntity
  8
0
100
AcDbVertex
100
AcDb2dVertex
 10
36.47136555077799
 20
-1.97939683652772
 30
0.0
  0
SEQEND
  5
62
330
60
100
AcDbEntity
  8
Layer 1
370
    35
  0
POLYLINE
  5
63
330
1F
100
AcDbEntity
  8
Layer 1
 62
   179
420
  2301728
370
    35
100
AcDb2dPolyline
 66
     1
 10
0.0
 20
0.0
 30
0.0
  0
VERTEX
  5
64
330
63
100
AcDbEntity
  8
Layer 1
 62
   179
420
  2301728
370
    35
100
AcDbVertex
100
AcDb2dVertex
 10
31.57454127899872
 20
-1.97939683652772
 30
0.0
  0
VERTEX
  5
C5
330
63
100
AcDbEntity
  8
0
100
AcDbVertex
100
AcDb2dVertex
 10
31.57454127899872
 20
-1.97939683652772
 30
0.0
  0
SEQEND
  5
65
330
63
100
AcDbEntity
  8
Layer 1
370
    35
  0
POLYLINE
  5
66
330
1F
100
AcDbEntity
  8
Layer 1
370
     0
100
AcDb2dPolyline
 66
     1
 10
0.0
 20
0.0
 30
0.0
  0
VERTEX
  5
67
330
66
100
AcDbEntity
  8
Layer 1
370
     0
100
AcDbVertex
100
AcDb2dVertex
 10
1.944549695694418
 20
-0.6036324054480502
 30
0.0
  0
VERTEX
  5
C6
330
66
100
AcDbEntity
  8
0
100
AcDbVertex
100
AcDb2dVertex
 10
1.944549695694418
 20
-0.6036324054480502
 30
0.0
  0
SEQEND
  5
68
330
66
100
AcDbEntity
  8
Layer 1
370
     0
  0
POLYLINE
  5
69
330
1F
100
AcDbEntity
  8
Layer 1
370
     0
100
AcDb2dPolyline
 66
     1
 10
0.0
 20
0.0
 30
0.0
  0
VERTEX
  5
6A
330
69
100
AcDbEntity
  8
Layer 1
370
     0
100
AcDbVertex
100
AcDb2dVertex
 10
3.273374700787559
 20
-6.326056584790013
 30
0.0
  0
VERTEX
  5
6B
330
69
100
AcDbEntity
  8
Layer 1
370
     0
100
AcDbVertex
100
AcDb2dVertex
 10
2.203155788294697
 20
-2.529613036476972
 30
0.0
  0
SEQEND
  5
6C
330
69
100
AcDbEntity
  8
Layer 1
370
     0
  0
POLYLINE
  5
6D
330
1F
100
AcDbEntity
  8
Layer 1
370
     0
100
AcDb2dPolyline
 66
     1
 10
0.0
 20
0.0
 30
0.0
  0
VERTEX
  5
6E
330
6D
100
AcDbEntity
  8
Layer 1
370
     0
100
AcDbVertex
100
AcDb2dVertex
 10
2.203155788294697
 20
-0.6036324054480502
 30
0.0
  0
VERTEX
  5
6F
330
6D
100
AcDbEntity
  8
Layer 1
370
     0
100
AcDbVertex
100
AcDb2dVertex
 10
23.01148084277143
 20
-0.6036324054480502
 30
0.0
  0
VERTEX
  5
70
330
6D
100
AcDbEntity
  8
Layer 1
370
     0
100
AcDbVertex
100
AcDb2dVertex
 10
23.01148084277143
 20
-5.403632268614369
 30
0.0
  0
VERTEX
  5
71
330
6D
100
AcDbEntity
  8
Layer 1
370
     0
100
AcDbVertex
100
AcDb2dVertex
 10
2.203155788294697
 20
-5.403632268614369
 30
0.0
  0
VERTEX
  5
72
330
6D
100
AcDbEntity
  8
Layer 1
370
     0
100
AcDbVertex
100
AcDb2dVertex
 10
2.203155788294697
 20
-0.6036324054480502
 30
0.0
  0
SEQEND
  5
73
330
6D
100
AcDbEntity
  8
Layer 1
370
     0
  0
HATCH
  5
74
330
1F
100
AcDbEntity
  8
Layer 1
 62
   240
420
 15539236
100
AcDbHatch
 10
0.0
 20
0.0
 30
0.0
210
0.0
220
0.0
230
1.0
  2
SOLID
 70
     1
 71
     0
 91
        1
 92
        1
 93
        4
 72
     1
 10
2.203155788294697
 20
-0.6036324054480502
 11
23.01148084277143
 21
-0.6036324054480502
 72
     1
 10
23.01148084277143
 20
-0.6036324054480502
 11
23.01148084277143
 21
-5.403632268614369
 72
     1
 10
23.01148084277143
 20
-5.403632268614369
 11
2.203155788294698
 21
-5.403632268614369
 72
     1
 10
2.203155788294697
 20
-5.403632268614369
 11
2.203155788294697
 21
-0.6036324054480504
 97
        0
 75
     2
 76
     1
 98
        0
  0
SPLINE
  5
75
330
1F
100
AcDbEntity
  8
Layer 1
370
     0
100
AcDbSpline
210
0.0
220
0.0
230
1.0
 70
    11
 71
     3
 72
    14
 73
    10
 74
     0
 42
0.0000000001
 43
0.0000000001
 40
0.0
 40
0.0
 40
0.0
 40
0.0
 40
1.0
 40
1.0
 40
1.0
 40
2.0
 40
2.0
 40
2.0
 40
3.0
 40
3.0
 40
3.0
 40
3.0
 10
31.57454127899872
 20
-9.027717689800362
 30
0.0
 10
31.57454127899872
 20
-9.027717689800362
 30
0.0
 10
31.57454127899872
 20
-21.99996635734723
 30
0.0
 10
31.57454127899872
 20
-21.99996635734723
 30
0.0
 10
31.57454127899872
 20
-21.99996635734723
 30
0.0
 10
27.02291557484149
 20
-20.25096028139559
 30
0.0
 10
27.02291557484149
 20
-15.52773437111806
 30
0.0
 10
27.02291557484149
 20
-10.80450846084054
 30
0.0
 10
31.57454127899872
 20
-9.027717689800362
 30
0.0
 10
31.57454127899872
 20
-9.027717689800362
 30
0.0
  0
HATCH
  5
76
330
1F
100
AcDbEntity
  8
Layer 1
 62
   240
420
 15539236
100
AcDbHatch
 10
0.0
 20
0.0
 30
0.0
210
0.0
220
0.0
230
1.0
  2
SOLID
 70
     1
 71
     0
 91
        1
 92
        1
 93
        1
 72
     4
 94
        3
 73
     0
 74
     1
 95
       14
 96
       10
 40
0.0
 40
0.0
 40
0.0
 40
0.0
 40
1.0
 40
1.0
 40
1.0
 40
2.0
 40
2.0
 40
2.0
 40
3.0
 40
3.0
 40
3.0
 40
3.0
 10
31.57454127899872
 20
-9.027717689800362
 10
31.57454127899872
 20
-9.027717689800362
 10
31.57454127899872
 20
-21.99996635734723
 10
31.57454127899872
 20
-21.99996635734723
 10
31.57454127899872
 20
-21.99996635734723
 10
27.02291557484149
 20
-20.25096028139559
 10
27.02291557484149
 20
-15.52773437111806
 10
27.02291557484149
 20
-10.80450846084054
 10
31.57454127899872
 20
-9.027717689800362
 10
31.57454127899872
 20
-9.027717689800362
 97
        0
 75
     2
 76
     1
 98
        0
  0
SPLINE
  5
77
330
1F
100
AcDbEntity
  8
Layer 1
370
     0
100
AcDbSpline
210
0.0
220
0.0
230
1.0
 70
    11
 71
     3
 72
    14
 73
    10
 74
     0
 42
0.0000000001
 43
0.0000000001
 40
0.0
 40
0.0
 40
0.0
 40
0.0
 40
1.0
 40
1.0
 40
1.0
 40
2.0
 40
2.0
 40
2.0
 40
3.0
 40
3.0
 40
3.0
 40
3.0
 10
36.44573404036773
 20
-21.99996635734723
 30
0.0
 10
36.44573404036773
 20
-21.99996635734723
 30
0.0
 10
36.44573404036773
 20
-9.027717689800362
 30
0.0
 10
36.44573404036773
 20
-9.027717689800362
 30
0.0
 10
36.44573404036773
 20
-9.027717689800362
 30
0.0
 10
40.99739419547981
 20
-10.776723765752
 30
0.0
 10
40.99739419547981
 20
-15.49996690150695
 30
0.0
 10
40.99739419547981
 20
-20.22319281178448
 30
0.0
 10
36.44573404036773
 20
-21.99996635734723
 30
0.0
 10
36.44573404036773
 20
-21.99996635734723
 30
0.0
  0
HATCH
  5
78
330
1F
100
AcDbEntity
  8
Layer 1
 62
   240
420
 15539236
100
AcDbHatch
 10
0.0
 20
0.0
 30
0.0
210
0.0
220
0.0
230
1.0
  2
SOLID
 70
     1
 71
     0
 91
        1
 92
        1
 93
        1
 72
     4
 94
        3
 73
     0
 74
     1
 95
       14
 96
       10
 40
0.0
 40
0.0
 40
0.0
 40
0.0
 40
1.0
 40
1.0
 40
1.0
 40
2.0
 40
2.0
 40
2.0
 40
3.0
 40
3.0
 40
3.0
 40
3.0
 10
36.44573404036773
 20
-21.99996635734723
 10
36.44573404036773
 20
-21.99996635734723
 10
36.44573404036773
 20
-9.027717689800362
 10
36.44573404036773
 20
-9.027717689800362
 10
36.44573404036773
 20
-9.027717689800362
 10
40.99739419547981
 20
-10.776723765752
 10
40.99739419547981
 20
-15.49996690150695
 10
40.99739419547981
 20
-20.22319281178448
 10
36.44573404036773
 20
-21.99996635734723
 10
36.44573404036773
 20
-21.99996635734723
 97
        0
 75
     2
 76
     1
 98
        0
  0
SPLINE
  5
79
330
1F
100
AcDbEntity
  8
Layer 1
 62
   179
420
  2301728
370
    35
100
AcDbSpline
210
0.0
220
0.0
230
1.0
 70
    11
 71
     3
 72
    17
 73
    13
 74
     0
 42
0.0000000001
 43
0.0000000001
 40
0.0
 40
0.0
 40
0.0
 40
0.0
 40
1.0
 40
1.0
 40
1.0
 40
2.0
 40
2.0
 40
2.0
 40
3.0
 40
3.0
 40
3.0
 40
4.0
 40
4.0
 40
4.0
 40
4.0
 10
30.71984754006309
 20
-7.691261798207393
 30
0.0
 10
30.71984754006309
 20
-7.96742065230502
 30
0.0
 10
30.49598523543156
 20
-8.191282956936554
 30
0.0
 10
30.21989528324363
 20
-8.191282956936554
 30
0.0
 10
29.94373642914601
 20
-8.191282956936554
 30
0.0
 10
29.71987412451447
 20
-7.96742065230502
 30
0.0
 10
29.71987412451447
 20
-7.691261798207393
 30
0.0
 10
29.71987412451447
 20
-7.415102944109766
 30
0.0
 10
29.94373642914601
 20
-7.191257864955658
 30
0.0
 10
30.21989528324363
 20
-7.191257864955658
 30
0.0
 10
30.49598523543156
 20
-7.191257864955658
 30
0.0
 10
30.71984754006309
 20
-7.415102944109766
 30
0.0
 10
30.71984754006309
 20
-7.691261798207393
 30
0.0
  0
SPLINE
  5
7A
330
1F
100
AcDbEntity
  8
Layer 1
 62
   179
420
  2301728
370
    35
100
AcDbSpline
210
0.0
220
0.0
230
1.0
 70
    11
 71
     3
 72
    17
 73
    13
 74
     0
 42
0.0000000001
 43
0.0000000001
 40
0.0
 40
0.0
 40
0.0
 40
0.0
 40
1.0
 40
1.0
 40
1.0
 40
2.0
 40
2.0
 40
2.0
 40
3.0
 40
3.0
 40
3.0
 40
4.0
 40
4.0
 40
4.0
 40
4.0
 10
28.50189506665925
 20
-9.027717689800362
 30
0.0
 10
28.50189506665925
 20
-9.303876543897989
 30
0.0
 10
28.27803276202771
 20
-9.527738848529523
 30
0.0
 10
28.00190835888494
 20
-9.527738848529523
 30
0.0
 10
27.72578395574216
 20
-9.527738848529523
 30
0.0
 10
27.50192165111063
 20
-9.303876543897989
 30
0.0
 10
27.50192165111063
 20
-9.027717689800362
 30
0.0
 10
27.50192165111063
 20
-8.751558835702735
 30
0.0
 10
27.72578395574216
 20
-8.5276965310712
 30
0.0
 10
28.00190835888494
 20
-8.5276965310712
 30
0.0
 10
28.27803276202771
 20
-8.5276965310712
 30
0.0
 10
28.50189506665925
 20
-8.751558835702735
 30
0.0
 10
28.50189506665925
 20
-9.027717689800362
 30
0.0
  0
SPLINE
  5
7B
330
1F
100
AcDbEntity
  8
Layer 1
 62
   179
420
  2301728
370
    35
100
AcDbSpline
210
0.0
220
0.0
230
1.0
 70
    11
 71
     3
 72
    17
 73
    13
 74
     0
 42
0.0000000001
 43
0.0000000001
 40
0.0
 40
0.0
 40
0.0
 40
0.0
 40
1.0
 40
1.0
 40
1.0
 40
2.0
 40
2.0
 40
2.0
 40
3.0
 40
3.0
 40
3.0
 40
4.0
 40
4.0
 40
4.0
 40
4.0
 10
26.79195637351034
 20
-10.80449123536311
 30
0.0
 10
26.79195637351034
 20
-11.08065008946074
 30
0.0
 10
26.56809406887881
 20
-11.30451239409227
 30
0.0
 10
26.29196966573603
 20
-11.30451239409227
 30
0.0
 10
26.01584526259326
 20
-11.30451239409227
 30
0.0
 10
25.79198295796173
 20
-11.08065008946074
 30
0.0
 10
25.79198295796173
 20
-10.80449123536311
 30
0.0
 10
25.79198295796173
 20
-10.52833238126549
 30
0.0
 10
26.01584526259326
 20
-10.3045045275888
 30
0.0
 10
26.29196966573603
 20
-10.3045045275888
 30
0.0
 10
26.56809406887881
 20
-10.3045045275888
 30
0.0
 10
26.79195637351034
 20
-10.52833238126549
 30
0.0
 10
26.79195637351034
 20
-10.80449123536311
 30
0.0
  0
SPLINE
  5
7C
330
1F
100
AcDbEntity
  8
Layer 1
370
     0
100
AcDbSpline
210
0.0
220
0.0
230
1.0
 70
    11
 71
     3
 72
    17
 73
    13
 74
     0
 42
0.0000000001
 43
0.0000000001
 40
0.0
 40
0.0
 40
0.0
 40
0.0
 40
1.0
 40
1.0
 40
1.0
 40
2.0
 40
2.0
 40
2.0
 40
3.0
 40
3.0
 40
3.0
 40
4.0
 40
4.0
 40
4.0
 40
4.0
 10
33.06781791708026
 20
-18.33204209611143
 30
0.0
 10
33.06781791708026
 20
-18.47012152316024
 30
0.0
 10
32.9558867647645
 20
-18.58201822452116
 30
0.0
 10
32.81784178867053
 20
-18.58201822452116
 30
0.0
 10
32.67976236162173
 20
-18.58201822452116
 30
0.0
 10
32.56783120930596
 20
-18.47012152316024
 30
0.0
 10
32.56783120930596
 20
-18.33204209611143
 30
0.0
 10
32.56783120930596
 20
-18.19396266906262
 30
0.0
 10
32.67976236162173
 20
-18.08206596770171
 30
0.0
 10
32.81784178867053
 20
-18.08206596770171
 30
0.0
 10
32.9558867647645
 20
-18.08206596770171
 30
0.0
 10
33.06781791708026
 20
-18.19396266906262
 30
0.0
 10
33.06781791708026
 20
-18.33204209611143
 30
0.0
  0
HATCH
  5
7D
330
1F
100
AcDbEntity
  8
Layer 1
 62
   240
420
 15539236
100
AcDbHatch
 10
0.0
 20
0.0
 30
0.0
210
0.0
220
0.0
230
1.0
  2
SOLID
 70
     1
 71
     0
 91
        1
 92
        1
 93
        1
 72
     4
 94
        3
 73
     0
 74
     1
 95
       17
 96
       13
 40
0.0
 40
0.0
 40
0.0
 40
0.0
 40
1.0
 40
1.0
 40
1.0
 40
2.0
 40
2.0
 40
2.0
 40
3.0
 40
3.0
 40
3.0
 40
4.0
 40
4.0
 40
4.0
 40
4.0
 10
33.06781791708026
 20
-18.33204209611143
 10
33.06781791708026
 20
-18.47012152316024
 10
32.9558867647645
 20
-18.58201822452116
 10
32.81784178867053
 20
-18.58201822452116
 10
32.67976236162173
 20
-18.58201822452116
 10
32.56783120930596
 20
-18.47012152316024
 10
32.56783120930596
 20
-18.33204209611143
 10
32.56783120930596
 20
-18.19396266906262
 10
32.67976236162173
 20
-18.08206596770171
 10
32.81784178867053
 20
-18.08206596770171
 10
32.9558867647645
 20
-18.08206596770171
 10
33.06781791708026
 20
-18.19396266906262
 10
33.06781791708026
 20
-18.33204209611143
 97
        0
 75
     2
 76
     1
 98
        0
  0
SPLINE
  5
7E
330
1F
100
AcDbEntity
  8
Layer 1
370
     0
100
AcDbSpline
210
0.0
220
0.0
230
1.0
 70
    11
 71
     3
 72
    17
 73
    13
 74
     0
 42
0.0000000001
 43
0.0000000001
 40
0.0
 40
0.0
 40
0.0
 40
0.0
 40
1.0
 40
1.0
 40
1.0
 40
2.0
 40
2.0
 40
2.0
 40
3.0
 40
3.0
 40
3.0
 40
4.0
 40
4.0
 40
4.0
 40
4.0
 10
33.06781791708026
 20
-19.30603949170127
 30
0.0
 10
33.06781791708026
 20
-19.44411891875008
 30
0.0
 10
32.9558867647645
 20
-19.5560845220207
 30
0.0
 10
32.81784178867053
 20
-19.5560845220207
 30
0.0
 10
32.67976236162173
 20
-19.5560845220207
 30
0.0
 10
32.56783120930596
 20
-19.44411891875008
 30
0.0
 10
32.56783120930596
 20
-19.30603949170127
 30
0.0
 10
32.56783120930596
 20
-19.16802896656216
 30
0.0
 10
32.67976236162173
 20
-19.05606336329154
 30
0.0
 10
32.81784178867053
 20
-19.05606336329154
 30
0.0
 10
32.9558867647645
 20
-19.05606336329154
 30
0.0
 10
33.06781791708026
 20
-19.16802896656216
 30
0.0
 10
33.06781791708026
 20
-19.30603949170127
 30
0.0
  0
HATCH
  5
7F
330
1F
100
AcDbEntity
  8
Layer 1
 62
   240
420
 15539236
100
AcDbHatch
 10
0.0
 20
0.0
 30
0.0
210
0.0
220
0.0
230
1.0
  2
SOLID
 70
     1
 71
     0
 91
        1
 92
        1
 93
        1
 72
     4
 94
        3
 73
     0
 74
     1
 95
       17
 96
       13
 40
0.0
 40
0.0
 40
0.0
 40
0.0
 40
1.0
 40
1.0
 40
1.0
 40
2.0
 40
2.0
 40
2.0
 40
3.0
 40
3.0
 40
3.0
 40
4.0
 40
4.0
 40
4.0
 40
4.0
 10
33.06781791708026
 20
-19.30603949170127
 10
33.06781791708026
 20
-19.44411891875008
 10
32.9558867647645
 20
-19.5560845220207
 10
32.81784178867053
 20
-19.5560845220207
 10
32.67976236162173
 20
-19.5560845220207
 10
32.56783120930596
 20
-19.44411891875008
 10
32.56783120930596
 20
-19.30603949170127
 10
32.56783120930596
 20
-19.16802896656216
 10
32.67976236162173
 20
-19.05606336329154
 10
32.81784178867053
 20
-19.05606336329154
 10
32.9558867647645
 20
-19.05606336329154
 10
33.06781791708026
 20
-19.16802896656216
 10
33.06781791708026
 20
-19.30603949170127
 97
        0
 75
     2
 76
     1
 98
        0
  0
SPLINE
  5
80
330
1F
100
AcDbEntity
  8
Layer 1
370
     0
100
AcDbSpline
210
0.0
220
0.0
230
1.0
 70
    11
 71
     3
 72
    17
 73
    13
 74
     0
 42
0.0000000001
 43
0.0000000001
 40
0.0
 40
0.0
 40
0.0
 40
0.0
 40
1.0
 40
1.0
 40
1.0
 40
2.0
 40
2.0
 40
2.0
 40
3.0
 40
3.0
 40
3.0
 40
4.0
 40
4.0
 40
4.0
 40
4.0
 10
33.06781791708026
 20
-20.23201225622672
 30
0.0
 10
33.06781791708026
 20
-20.37009168327553
 30
0.0
 10
32.9558867647645
 20
-20.48205728654615
 30
0.0
 10
32.81784178867053
 20
-20.48205728654615
 30
0.0
 10
32.67976236162173
 20
-20.48205728654615
 30
0.0
 10
32.56783120930596
 20
-20.37009168327553
 30
0.0
 10
32.56783120930596
 20
-20.23201225622672
 30
0.0
 10
32.56783120930596
 20
-20.09400173108761
 30
0.0
 10
32.67976236162173
 20
-19.98203612781699
 30
0.0
 10
32.81784178867053
 20
-19.98203612781699
 30
0.0
 10
32.9558867647645
 20
-19.98203612781699
 30
0.0
 10
33.06781791708026
 20
-20.09400173108761
 30
0.0
 10
33.06781791708026
 20
-20.23201225622672
 30
0.0
  0
HATCH
  5
81
330
1F
100
AcDbEntity
  8
Layer 1
 62
   240
420
 15539236
100
AcDbHatch
 10
0.0
 20
0.0
 30
0.0
210
0.0
220
0.0
230
1.0
  2
SOLID
 70
     1
 71
     0
 91
        1
 92
        1
 93
        1
 72
     4
 94
        3
 73
     0
 74
     1
 95
       17
 96
       13
 40
0.0
 40
0.0
 40
0.0
 40
0.0
 40
1.0
 40
1.0
 40
1.0
 40
2.0
 40
2.0
 40
2.0
 40
3.0
 40
3.0
 40
3.0
 40
4.0
 40
4.0
 40
4.0
 40
4.0
 10
33.06781791708026
 20
-20.23201225622672
 10
33.06781791708026
 20
-20.37009168327553
 10
32.9558867647645
 20
-20.48205728654615
 10
32.81784178867053
 20
-20.48205728654615
 10
32.67976236162173
 20
-20.48205728654615
 10
32.56783120930596
 20
-20.37009168327553
 10
32.56783120930596
 20
-20.23201225622672
 10
32.56783120930596
 20
-20.09400173108761
 10
32.67976236162173
 20
-19.98203612781699
 10
32.81784178867053
 20
-19.98203612781699
 10
32.9558867647645
 20
-19.98203612781699
 10
33.06781791708026
 20
-20.09400173108761
 10
33.06781791708026
 20
-20.23201225622672
 97
        0
 75
     2
 76
     1
 98
        0
  0
SPLINE
  5
82
330
1F
100
AcDbEntity
  8
Layer 1
370
     0
100
AcDbSpline
210
0.0
220
0.0
230
1.0
 70
    11
 71
     3
 72
    17
 73
    13
 74
     0
 42
0.0000000001
 43
0.0000000001
 40
0.0
 40
0.0
 40
0.0
 40
0.0
 40
1.0
 40
1.0
 40
1.0
 40
2.0
 40
2.0
 40
2.0
 40
3.0
 40
3.0
 40
3.0
 40
4.0
 40
4.0
 40
4.0
 40
4.0
 10
33.06781791708026
 20
-21.20607855372626
 30
0.0
 10
33.06781791708026
 20
-21.34415798077507
 30
0.0
 10
32.9558867647645
 20
-21.45605468213598
 30
0.0
 10
32.81784178867053
 20
-21.45605468213598
 30
0.0
 10
32.67976236162173
 20
-21.45605468213598
 30
0.0
 10
32.56783120930596
 20
-21.34415798077507
 30
0.0
 10
32.56783120930596
 20
-21.20607855372626
 30
0.0
 10
32.56783120930596
 20
-21.06799912667744
 30
0.0
 10
32.67976236162173
 20
-20.95610242531653
 30
0.0
 10
32.81784178867053
 20
-20.95610242531653
 30
0.0
 10
32.9558867647645
 20
-20.95610242531653
 30
0.0
 10
33.06781791708026
 20
-21.06799912667744
 30
0.0
 10
33.06781791708026
 20
-21.20607855372626
 30
0.0
  0
HATCH
  5
83
330
1F
100
AcDbEntity
  8
Layer 1
 62
   240
420
 15539236
100
AcDbHatch
 10
0.0
 20
0.0
 30
0.0
210
0.0
220
0.0
230
1.0
  2
SOLID
 70
     1
 71
     0
 91
        1
 92
        1
 93
        1
 72
     4
 94
        3
 73
     0
 74
     1
 95
       17
 96
       13
 40
0.0
 40
0.0
 40
0.0
 40
0.0
 40
1.0
 40
1.0
 40
1.0
 40
2.0
 40
2.0
 40
2.0
 40
3.0
 40
3.0
 40
3.0
 40
4.0
 40
4.0
 40
4.0
 40
4.0
 10
33.06781791708026
 20
-21.20607855372626
 10
33.06781791708026
 20
-21.34415798077507
 10
32.9558867647645
 20
-21.45605468213598
 10
32.81784178867053
 20
-21.45605468213598
 10
32.67976236162173
 20
-21.45605468213598
 10
32.56783120930596
 20
-21.34415798077507
 10
32.56783120930596
 20
-21.20607855372626
 10
32.56783120930596
 20
-21.06799912667744
 10
32.67976236162173
 20
-20.95610242531653
 10
32.81784178867053
 20
-20.95610242531653
 10
32.9558867647645
 20
-20.95610242531653
 10
33.06781791708026
 20
-21.06799912667744
 10
33.06781791708026
 20
-21.20607855372626
 97
        0
 75
     2
 76
     1
 98
        0
  0
SPLINE
  5
84
330
1F
100
AcDbEntity
  8
Layer 1
370
     0
100
AcDbSpline
210
0.0
220
0.0
230
1.0
 70
    11
 71
     3
 72
    17
 73
    13
 74
     0
 42
0.0000000001
 43
0.0000000001
 40
0.0
 40
0.0
 40
0.0
 40
0.0
 40
1.0
 40
1.0
 40
1.0
 40
2.0
 40
2.0
 40
2.0
 40
3.0
 40
3.0
 40
3.0
 40
4.0
 40
4.0
 40
4.0
 40
4.0
 10
33.81953775196178
 20
-18.33204209611143
 30
0.0
 10
33.81953775196178
 20
-18.47012152316024
 30
0.0
 10
33.70760659964601
 20
-18.58201822452116
 30
0.0
 10
33.56956162355205
 20
-18.58201822452116
 30
0.0
 10
33.43148219650324
 20
-18.58201822452116
 30
0.0
 10
33.31955104418747
 20
-18.47012152316024
 30
0.0
 10
33.31955104418747
 20
-18.33204209611143
 30
0.0
 10
33.31955104418747
 20
-18.19396266906262
 30
0.0
 10
33.43148219650324
 20
-18.08206596770171
 30
0.0
 10
33.56956162355205
 20
-18.08206596770171
 30
0.0
 10
33.70760659964601
 20
-18.08206596770171
 30
0.0
 10
33.81953775196178
 20
-18.19396266906262
 30
0.0
 10
33.81953775196178
 20
-18.33204209611143
 30
0.0
  0
HATCH
  5
85
330
1F
100
AcDbEntity
  8
Layer 1
 62
   240
420
 15539236
100
AcDbHatch
 10
0.0
 20
0.0
 30
0.0
210
0.0
220
0.0
230
1.0
  2
SOLID
 70
     1
 71
     0
 91
        1
 92
        1
 93
        1
 72
     4
 94
        3
 73
     0
 74
     1
 95
       17
 96
       13
 40
0.0
 40
0.0
 40
0.0
 40
0.0
 40
1.0
 40
1.0
 40
1.0
 40
2.0
 40
2.0
 40
2.0
 40
3.0
 40
3.0
 40
3.0
 40
4.0
 40
4.0
 40
4.0
 40
4.0
 10
33.81953775196178
 20
-18.33204209611143
 10
33.81953775196178
 20
-18.47012152316024
 10
33.70760659964601
 20
-18.58201822452116
 10
33.56956162355205
 20
-18.58201822452116
 10
33.43148219650324
 20
-18.58201822452116
 10
33.31955104418747
 20
-18.47012152316024
 10
33.31955104418747
 20
-18.33204209611143
 10
33.31955104418747
 20
-18.19396266906262
 10
33.43148219650324
 20
-18.08206596770171
 10
33.56956162355205
 20
-18.08206596770171
 10
33.70760659964601
 20
-18.08206596770171
 10
33.81953775196178
 20
-18.19396266906262
 10
33.81953775196178
 20
-18.33204209611143
 97
        0
 75
     2
 76
     1
 98
        0
  0
SPLINE
  5
86
330
1F
100
AcDbEntity
  8
Layer 1
370
     0
100
AcDbSpline
210
0.0
220
0.0
230
1.0
 70
    11
 71
     3
 72
    17
 73
    13
 74
     0
 42
0.0000000001
 43
0.0000000001
 40
0.0
 40
0.0
 40
0.0
 40
0.0
 40
1.0
 40
1.0
 40
1.0
 40
2.0
 40
2.0
 40
2.0
 40
3.0
 40
3.0
 40
3.0
 40
4.0
 40
4.0
 40
4.0
 40
4.0
 10
33.81953775196178
 20
-19.30603949170127
 30
0.0
 10
33.81953775196178
 20
-19.44411891875008
 30
0.0
 10
33.70760659964601
 20
-19.5560845220207
 30
0.0
 10
33.56956162355205
 20
-19.5560845220207
 30
0.0
 10
33.43148219650324
 20
-19.5560845220207
 30
0.0
 10
33.31955104418747
 20
-19.44411891875008
 30
0.0
 10
33.31955104418747
 20
-19.30603949170127
 30
0.0
 10
33.31955104418747
 20
-19.16802896656216
 30
0.0
 10
33.43148219650324
 20
-19.05606336329154
 30
0.0
 10
33.56956162355205
 20
-19.05606336329154
 30
0.0
 10
33.70760659964601
 20
-19.05606336329154
 30
0.0
 10
33.81953775196178
 20
-19.16802896656216
 30
0.0
 10
33.81953775196178
 20
-19.30603949170127
 30
0.0
  0
HATCH
  5
87
330
1F
100
AcDbEntity
  8
Layer 1
 62
   240
420
 15539236
100
AcDbHatch
 10
0.0
 20
0.0
 30
0.0
210
0.0
220
0.0
230
1.0
  2
SOLID
 70
     1
 71
     0
 91
        1
 92
        1
 93
        1
 72
     4
 94
        3
 73
     0
 74
     1
 95
       17
 96
       13
 40
0.0
 40
0.0
 40
0.0
 40
0.0
 40
1.0
 40
1.0
 40
1.0
 40
2.0
 40
2.0
 40
2.0
 40
3.0
 40
3.0
 40
3.0
 40
4.0
 40
4.0
 40
4.0
 40
4.0
 10
33.81953775196178
 20
-19.30603949170127
 10
33.81953775196178
 20
-19.44411891875008
 10
33.70760659964601
 20
-19.5560845220207
 10
33.56956162355205
 20
-19.5560845220207
 10
33.43148219650324
 20
-19.5560845220207
 10
33.31955104418747
 20
-19.44411891875008
 10
33.31955104418747
 20
-19.30603949170127
 10
33.31955104418747
 20
-19.16802896656216
 10
33.43148219650324
 20
-19.05606336329154
 10
33.56956162355205
 20
-19.05606336329154
 10
33.70760659964601
 20
-19.05606336329154
 10
33.81953775196178
 20
-19.16802896656216
 10
33.81953775196178
 20
-19.30603949170127
 97
        0
 75
     2
 76
     1
 98
        0
  0
SPLINE
  5
88
330
1F
100
AcDbEntity
  8
Layer 1
370
     0
100
AcDbSpline
210
0.0
220
0.0
230
1.0
 70
    11
 71
     3
 72
    17
 73
    13
 74
     0
 42
0.0000000001
 43
0.0000000001
 40
0.0
 40
0.0
 40
0.0
 40
0.0
 40
1.0
 40
1.0
 40
1.0
 40
2.0
 40
2.0
 40
2.0
 40
3.0
 40
3.0
 40
3.0
 40
4.0
 40
4.0
 40
4.0
 40
4.0
 10
33.81953775196178
 20
-20.23201225622672
 30
0.0
 10
33.81953775196178
 20
-20.37009168327553
 30
0.0
 10
33.70760659964601
 20
-20.48205728654615
 30
0.0
 10
33.56956162355205
 20
-20.48205728654615
 30
0.0
 10
33.43148219650324
 20
-20.48205728654615
 30
0.0
 10
33.31955104418747
 20
-20.37009168327553
 30
0.0
 10
33.31955104418747
 20
-20.23201225622672
 30
0.0
 10
33.31955104418747
 20
-20.09400173108761
 30
0.0
 10
33.43148219650324
 20
-19.98203612781699
 30
0.0
 10
33.56956162355205
 20
-19.98203612781699
 30
0.0
 10
33.70760659964601
 20
-19.98203612781699
 30
0.0
 10
33.81953775196178
 20
-20.09400173108761
 30
0.0
 10
33.81953775196178
 20
-20.23201225622672
 30
0.0
  0
HATCH
  5
89
330
1F
100
AcDbEntity
  8
Layer 1
 62
   240
420
 15539236
100
AcDbHatch
 10
0.0
 20
0.0
 30
0.0
210
0.0
220
0.0
230
1.0
  2
SOLID
 70
     1
 71
     0
 91
        1
 92
        1
 93
        1
 72
     4
 94
        3
 73
     0
 74
     1
 95
       17
 96
       13
 40
0.0
 40
0.0
 40
0.0
 40
0.0
 40
1.0
 40
1.0
 40
1.0
 40
2.0
 40
2.0
 40
2.0
 40
3.0
 40
3.0
 40
3.0
 40
4.0
 40
4.0
 40
4.0
 40
4.0
 10
33.81953775196178
 20
-20.23201225622672
 10
33.81953775196178
 20
-20.37009168327553
 10
33.70760659964601
 20
-20.48205728654615
 10
33.56956162355205
 20
-20.48205728654615
 10
33.43148219650324
 20
-20.48205728654615
 10
33.31955104418747
 20
-20.37009168327553
 10
33.31955104418747
 20
-20.23201225622672
 10
33.31955104418747
 20
-20.09400173108761
 10
33.43148219650324
 20
-19.98203612781699
 10
33.56956162355205
 20
-19.98203612781699
 10
33.70760659964601
 20
-19.98203612781699
 10
33.81953775196178
 20
-20.09400173108761
 10
33.81953775196178
 20
-20.23201225622672
 97
        0
 75
     2
 76
     1
 98
        0
  0
SPLINE
  5
8A
330
1F
100
AcDbEntity
  8
Layer 1
370
     0
100
AcDbSpline
210
0.0
220
0.0
230
1.0
 70
    11
 71
     3
 72
    17
 73
    13
 74
     0
 42
0.0000000001
 43
0.0000000001
 40
0.0
 40
0.0
 40
0.0
 40
0.0
 40
1.0
 40
1.0
 40
1.0
 40
2.0
 40
2.0
 40
2.0
 40
3.0
 40
3.0
 40
3.0
 40
4.0
 40
4.0
 40
4.0
 40
4.0
 10
33.81953775196178
 20
-21.20607855372626
 30
0.0
 10
33.81953775196178
 20
-21.34415798077507
 30
0.0
 10
33.70760659964601
 20
-21.45605468213598
 30
0.0
 10
33.56956162355205
 20
-21.45605468213598
 30
0.0
 10
33.43148219650324
 20
-21.45605468213598
 30
0.0
 10
33.31955104418747
 20
-21.34415798077507
 30
0.0
 10
33.31955104418747
 20
-21.20607855372626
 30
0.0
 10
33.31955104418747
 20
-21.06799912667744
 30
0.0
 10
33.43148219650324
 20
-20.95610242531653
 30
0.0
 10
33.56956162355205
 20
-20.95610242531653
 30
0.0
 10
33.70760659964601
 20
-20.95610242531653
 30
0.0
 10
33.81953775196178
 20
-21.06799912667744
 30
0.0
 10
33.81953775196178
 20
-21.20607855372626
 30
0.0
  0
HATCH
  5
8B
330
1F
100
AcDbEntity
  8
Layer 1
 62
   240
420
 15539236
100
AcDbHatch
 10
0.0
 20
0.0
 30
0.0
210
0.0
220
0.0
230
1.0
  2
SOLID
 70
     1
 71
     0
 91
        1
 92
        1
 93
        1
 72
     4
 94
        3
 73
     0
 74
     1
 95
       17
 96
       13
 40
0.0
 40
0.0
 40
0.0
 40
0.0
 40
1.0
 40
1.0
 40
1.0
 40
2.0
 40
2.0
 40
2.0
 40
3.0
 40
3.0
 40
3.0
 40
4.0
 40
4.0
 40
4.0
 40
4.0
 10
33.81953775196178
 20
-21.20607855372626
 10
33.81953775196178
 20
-21.34415798077507
 10
33.70760659964601
 20
-21.45605468213598
 10
33.56956162355205
 20
-21.45605468213598
 10
33.43148219650324
 20
-21.45605468213598
 10
33.31955104418747
 20
-21.34415798077507
 10
33.31955104418747
 20
-21.20607855372626
 10
33.31955104418747
 20
-21.06799912667744
 10
33.43148219650324
 20
-20.95610242531653
 10
33.56956162355205
 20
-20.95610242531653
 10
33.70760659964601
 20
-20.95610242531653
 10
33.81953775196178
 20
-21.06799912667744
 10
33.81953775196178
 20
-21.20607855372626
 97
        0
 75
     2
 76
     1
 98
        0
  0
SPLINE
  5
8C
330
1F
100
AcDbEntity
  8
Layer 1
370
     0
100
AcDbSpline
210
0.0
220
0.0
230
1.0
 70
    11
 71
     3
 72
    17
 73
    13
 74
     0
 42
0.0000000001
 43
0.0000000001
 40
0.0
 40
0.0
 40
0.0
 40
0.0
 40
1.0
 40
1.0
 40
1.0
 40
2.0
 40
2.0
 40
2.0
 40
3.0
 40
3.0
 40
3.0
 40
4.0
 40
4.0
 40
4.0
 40
4.0
 10
34.56953503910067
 20
-18.28181260393649
 30
0.0
 10
34.56953503910067
 20
-18.4198920309853
 30
0.0
 10
34.45756943583005
 20
-18.53182318330107
 30
0.0
 10
34.31955891069094
 20
-18.53182318330107
 30
0.0
 10
34.18147948364213
 20
-18.53182318330107
 30
0.0
 10
34.06951388037151
 20
-18.4198920309853
 30
0.0
 10
34.06951388037151
 20
-18.28181260393649
 30
0.0
 10
34.06951388037151
 20
-18.14376762784253
 30
0.0
 10
34.18147948364213
 20
-18.03183647552676
 30
0.0
 10
34.31955891069094
 20
-18.03183647552676
 30
0.0
 10
34.45756943583005
 20
-18.03183647552676
 30
0.0
 10
34.56953503910067
 20
-18.14376762784253
 30
0.0
 10
34.56953503910067
 20
-18.28181260393649
 30
0.0
  0
HATCH
  5
8D
330
1F
100
AcDbEntity
  8
Layer 1
 62
   240
420
 15539236
100
AcDbHatch
 10
0.0
 20
0.0
 30
0.0
210
0.0
220
0.0
230
1.0
  2
SOLID
 70
     1
 71
     0
 91
        1
 92
        1
 93
        1
 72
     4
 94
        3
 73
     0
 74
     1
 95
       17
 96
       13
 40
0.0
 40
0.0
 40
0.0
 40
0.0
 40
1.0
 40
1.0
 40
1.0
 40
2.0
 40
2.0
 40
2.0
 40
3.0
 40
3.0
 40
3.0
 40
4.0
 40
4.0
 40
4.0
 40
4.0
 10
34.56953503910067
 20
-18.28181260393649
 10
34.56953503910067
 20
-18.4198920309853
 10
34.45756943583005
 20
-18.53182318330107
 10
34.31955891069094
 20
-18.53182318330107
 10
34.18147948364213
 20
-18.53182318330107
 10
34.06951388037151
 20
-18.4198920309853
 10
34.06951388037151
 20
-18.28181260393649
 10
34.06951388037151
 20
-18.14376762784253
 10
34.18147948364213
 20
-18.03183647552676
 10
34.31955891069094
 20
-18.03183647552676
 10
34.45756943583005
 20
-18.03183647552676
 10
34.56953503910067
 20
-18.14376762784253
 10
34.56953503910067
 20
-18.28181260393649
 97
        0
 75
     2
 76
     1
 98
        0
  0
SPLINE
  5
8E
330
1F
100
AcDbEntity
  8
Layer 1
370
     0
100
AcDbSpline
210
0.0
220
0.0
230
1.0
 70
    11
 71
     3
 72
    17
 73
    13
 74
     0
 42
0.0000000001
 43
0.0000000001
 40
0.0
 40
0.0
 40
0.0
 40
0.0
 40
1.0
 40
1.0
 40
1.0
 40
2.0
 40
2.0
 40
2.0
 40
3.0
 40
3.0
 40
3.0
 40
4.0
 40
4.0
 40
4.0
 40
4.0
 10
34.56953503910067
 20
-19.25584445048118
 30
0.0
 10
34.56953503910067
 20
-19.39392387752999
 30
0.0
 10
34.45756943583005
 20
-19.50585502984576
 30
0.0
 10
34.31955891069094
 20
-19.50585502984576
 30
0.0
 10
34.18147948364213
 20
-19.50585502984576
 30
0.0
 10
34.06951388037151
 20
-19.39392387752999
 30
0.0
 10
34.06951388037151
 20
-19.25584445048118
 30
0.0
 10
34.06951388037151
 20
-19.11779947438722
 30
0.0
 10
34.18147948364213
 20
-19.00586832207145
 30
0.0
 10
34.31955891069094
 20
-19.00586832207145
 30
0.0
 10
34.45756943583005
 20
-19.00586832207145
 30
0.0
 10
34.56953503910067
 20
-19.11779947438722
 30
0.0
 10
34.56953503910067
 20
-19.25584445048118
 30
0.0
  0
HATCH
  5
8F
330
1F
100
AcDbEntity
  8
Layer 1
 62
   240
420
 15539236
100
AcDbHatch
 10
0.0
 20
0.0
 30
0.0
210
0.0
220
0.0
230
1.0
  2
SOLID
 70
     1
 71
     0
 91
        1
 92
        1
 93
        1
 72
     4
 94
        3
 73
     0
 74
     1
 95
       17
 96
       13
 40
0.0
 40
0.0
 40
0.0
 40
0.0
 40
1.0
 40
1.0
 40
1.0
 40
2.0
 40
2.0
 40
2.0
 40
3.0
 40
3.0
 40
3.0
 40
4.0
 40
4.0
 40
4.0
 40
4.0
 10
34.56953503910067
 20
-19.25584445048118
 10
34.56953503910067
 20
-19.39392387752999
 10
34.45756943583005
 20
-19.50585502984576
 10
34.31955891069094
 20
-19.50585502984576
 10
34.18147948364213
 20
-19.50585502984576
 10
34.06951388037151
 20
-19.39392387752999
 10
34.06951388037151
 20
-19.25584445048118
 10
34.06951388037151
 20
-19.11779947438722
 10
34.18147948364213
 20
-19.00586832207145
 10
34.31955891069094
 20
-19.00586832207145
 10
34.45756943583005
 20
-19.00586832207145
 10
34.56953503910067
 20
-19.11779947438722
 10
34.56953503910067
 20
-19.25584445048118
 97
        0
 75
     2
 76
     1
 98
        0
  0
SPLINE
  5
90
330
1F
100
AcDbEntity
  8
Layer 1
370
     0
100
AcDbSpline
210
0.0
220
0.0
230
1.0
 70
    11
 71
     3
 72
    17
 73
    13
 74
     0
 42
0.0000000001
 43
0.0000000001
 40
0.0
 40
0.0
 40
0.0
 40
0.0
 40
1.0
 40
1.0
 40
1.0
 40
2.0
 40
2.0
 40
2.0
 40
3.0
 40
3.0
 40
3.0
 40
4.0
 40
4.0
 40
4.0
 40
4.0
 10
34.56953503910067
 20
-20.18181721500663
 30
0.0
 10
34.56953503910067
 20
-20.31989664205544
 30
0.0
 10
34.45756943583005
 20
-20.43182779437121
 30
0.0
 10
34.31955891069094
 20
-20.43182779437121
 30
0.0
 10
34.18147948364213
 20
-20.43182779437121
 30
0.0
 10
34.06951388037151
 20
-20.31989664205544
 30
0.0
 10
34.06951388037151
 20
-20.18181721500663
 30
0.0
 10
34.06951388037151
 20
-20.04377223891267
 30
0.0
 10
34.18147948364213
 20
-19.9318410865969
 30
0.0
 10
34.31955891069094
 20
-19.9318410865969
 30
0.0
 10
34.45756943583005
 20
-19.9318410865969
 30
0.0
 10
34.56953503910067
 20
-20.04377223891267
 30
0.0
 10
34.56953503910067
 20
-20.18181721500663
 30
0.0
  0
HATCH
  5
91
330
1F
100
AcDbEntity
  8
Layer 1
 62
   240
420
 15539236
100
AcDbHatch
 10
0.0
 20
0.0
 30
0.0
210
0.0
220
0.0
230
1.0
  2
SOLID
 70
     1
 71
     0
 91
        1
 92
        1
 93
        1
 72
     4
 94
        3
 73
     0
 74
     1
 95
       17
 96
       13
 40
0.0
 40
0.0
 40
0.0
 40
0.0
 40
1.0
 40
1.0
 40
1.0
 40
2.0
 40
2.0
 40
2.0
 40
3.0
 40
3.0
 40
3.0
 40
4.0
 40
4.0
 40
4.0
 40
4.0
 10
34.56953503910067
 20
-20.18181721500663
 10
34.56953503910067
 20
-20.31989664205544
 10
34.45756943583005
 20
-20.43182779437121
 10
34.31955891069094
 20
-20.43182779437121
 10
34.18147948364213
 20
-20.43182779437121
 10
34.06951388037151
 20
-20.31989664205544
 10
34.06951388037151
 20
-20.18181721500663
 10
34.06951388037151
 20
-20.04377223891267
 10
34.18147948364213
 20
-19.9318410865969
 10
34.31955891069094
 20
-19.9318410865969
 10
34.45756943583005
 20
-19.9318410865969
 10
34.56953503910067
 20
-20.04377223891267
 10
34.56953503910067
 20
-20.18181721500663
 97
        0
 75
     2
 76
     1
 98
        0
  0
SPLINE
  5
92
330
1F
100
AcDbEntity
  8
Layer 1
370
     0
100
AcDbSpline
210
0.0
220
0.0
230
1.0
 70
    11
 71
     3
 72
    17
 73
    13
 74
     0
 42
0.0000000001
 43
0.0000000001
 40
0.0
 40
0.0
 40
0.0
 40
0.0
 40
1.0
 40
1.0
 40
1.0
 40
2.0
 40
2.0
 40
2.0
 40
3.0
 40
3.0
 40
3.0
 40
4.0
 40
4.0
 40
4.0
 40
4.0
 10
34.56953503910067
 20
-21.15584906155132
 30
0.0
 10
34.56953503910067
 20
-21.29392848860013
 30
0.0
 10
34.45756943583005
 20
-21.4058596409159
 30
0.0
 10
34.31955891069094
 20
-21.4058596409159
 30
0.0
 10
34.18147948364213
 20
-21.4058596409159
 30
0.0
 10
34.06951388037151
 20
-21.29392848860013
 30
0.0
 10
34.06951388037151
 20
-21.15584906155132
 30
0.0
 10
34.06951388037151
 20
-21.01780408545735
 30
0.0
 10
34.18147948364213
 20
-20.90587293314159
 30
0.0
 10
34.31955891069094
 20
-20.90587293314159
 30
0.0
 10
34.45756943583005
 20
-20.90587293314159
 30
0.0
 10
34.56953503910067
 20
-21.01780408545735
 30
0.0
 10
34.56953503910067
 20
-21.15584906155132
 30
0.0
  0
HATCH
  5
93
330
1F
100
AcDbEntity
  8
Layer 1
 62
   240
420
 15539236
100
AcDbHatch
 10
0.0
 20
0.0
 30
0.0
210
0.0
220
0.0
230
1.0
  2
SOLID
 70
     1
 71
     0
 91
        1
 92
        1
 93
        1
 72
     4
 94
        3
 73
     0
 74
     1
 95
       17
 96
       13
 40
0.0
 40
0.0
 40
0.0
 40
0.0
 40
1.0
 40
1.0
 40
1.0
 40
2.0
 40
2.0
 40
2.0
 40
3.0
 40
3.0
 40
3.0
 40
4.0
 40
4.0
 40
4.0
 40
4.0
 10
34.56953503910067
 20
-21.15584906155132
 10
34.56953503910067
 20
-21.29392848860013
 10
34.45756943583005
 20
-21.4058596409159
 10
34.31955891069094
 20
-21.4058596409159
 10
34.18147948364213
 20
-21.4058596409159
 10
34.06951388037151
 20
-21.29392848860013
 10
34.06951388037151
 20
-21.15584906155132
 10
34.06951388037151
 20
-21.01780408545735
 10
34.18147948364213
 20
-20.90587293314159
 10
34.31955891069094
 20
-20.90587293314159
 10
34.45756943583005
 20
-20.90587293314159
 10
34.56953503910067
 20
-21.01780408545735
 10
34.56953503910067
 20
-21.15584906155132
 97
        0
 75
     2
 76
     1
 98
        0
  0
SPLINE
  5
94
330
1F
100
AcDbEntity
  8
Layer 1
370
     0
100
AcDbSpline
210
0.0
220
0.0
230
1.0
 70
    11
 71
     3
 72
    17
 73
    13
 74
     0
 42
0.0000000001
 43
0.0000000001
 40
0.0
 40
0.0
 40
0.0
 40
0.0
 40
1.0
 40
1.0
 40
1.0
 40
2.0
 40
2.0
 40
2.0
 40
3.0
 40
3.0
 40
3.0
 40
4.0
 40
4.0
 40
4.0
 40
4.0
 10
35.32125487398218
 20
-18.28181260393649
 30
0.0
 10
35.32125487398218
 20
-18.4198920309853
 30
0.0
 10
35.20928927071157
 20
-18.53182318330107
 30
0.0
 10
35.07127874557246
 20
-18.53182318330107
 30
0.0
 10
34.93319931852364
 20
-18.53182318330107
 30
0.0
 10
34.82123371525302
 20
-18.4198920309853
 30
0.0
 10
34.82123371525302
 20
-18.28181260393649
 30
0.0
 10
34.82123371525302
 20
-18.14376762784253
 30
0.0
 10
34.93319931852364
 20
-18.03183647552676
 30
0.0
 10
35.07127874557246
 20
-18.03183647552676
 30
0.0
 10
35.20928927071157
 20
-18.03183647552676
 30
0.0
 10
35.32125487398218
 20
-18.14376762784253
 30
0.0
 10
35.32125487398218
 20
-18.28181260393649
 30
0.0
  0
HATCH
  5
95
330
1F
100
AcDbEntity
  8
Layer 1
 62
   240
420
 15539236
100
AcDbHatch
 10
0.0
 20
0.0
 30
0.0
210
0.0
220
0.0
230
1.0
  2
SOLID
 70
     1
 71
     0
 91
        1
 92
        1
 93
        1
 72
     4
 94
        3
 73
     0
 74
     1
 95
       17
 96
       13
 40
0.0
 40
0.0
 40
0.0
 40
0.0
 40
1.0
 40
1.0
 40
1.0
 40
2.0
 40
2.0
 40
2.0
 40
3.0
 40
3.0
 40
3.0
 40
4.0
 40
4.0
 40
4.0
 40
4.0
 10
35.32125487398218
 20
-18.28181260393649
 10
35.32125487398218
 20
-18.4198920309853
 10
35.20928927071157
 20
-18.53182318330107
 10
35.07127874557246
 20
-18.53182318330107
 10
34.93319931852364
 20
-18.53182318330107
 10
34.82123371525302
 20
-18.4198920309853
 10
34.82123371525302
 20
-18.28181260393649
 10
34.82123371525302
 20
-18.14376762784253
 10
34.93319931852364
 20
-18.03183647552676
 10
35.07127874557246
 20
-18.03183647552676
 10
35.20928927071157
 20
-18.03183647552676
 10
35.32125487398218
 20
-18.14376762784253
 10
35.32125487398218
 20
-18.28181260393649
 97
        0
 75
     2
 76
     1
 98
        0
  0
SPLINE
  5
96
330
1F
100
AcDbEntity
  8
Layer 1
370
     0
100
AcDbSpline
210
0.0
220
0.0
230
1.0
 70
    11
 71
     3
 72
    17
 73
    13
 74
     0
 42
0.0000000001
 43
0.0000000001
 40
0.0
 40
0.0
 40
0.0
 40
0.0
 40
1.0
 40
1.0
 40
1.0
 40
2.0
 40
2.0
 40
2.0
 40
3.0
 40
3.0
 40
3.0
 40
4.0
 40
4.0
 40
4.0
 40
4.0
 10
35.32125487398218
 20
-19.25584445048118
 30
0.0
 10
35.32125487398218
 20
-19.39392387752999
 30
0.0
 10
35.20928927071157
 20
-19.50585502984576
 30
0.0
 10
35.07127874557246
 20
-19.50585502984576
 30
0.0
 10
34.93319931852364
 20
-19.50585502984576
 30
0.0
 10
34.82123371525302
 20
-19.39392387752999
 30
0.0
 10
34.82123371525302
 20
-19.25584445048118
 30
0.0
 10
34.82123371525302
 20
-19.11779947438722
 30
0.0
 10
34.93319931852364
 20
-19.00586832207145
 30
0.0
 10
35.07127874557246
 20
-19.00586832207145
 30
0.0
 10
35.20928927071157
 20
-19.00586832207145
 30
0.0
 10
35.32125487398218
 20
-19.11779947438722
 30
0.0
 10
35.32125487398218
 20
-19.25584445048118
 30
0.0
  0
HATCH
  5
97
330
1F
100
AcDbEntity
  8
Layer 1
 62
   240
420
 15539236
100
AcDbHatch
 10
0.0
 20
0.0
 30
0.0
210
0.0
220
0.0
230
1.0
  2
SOLID
 70
     1
 71
     0
 91
        1
 92
        1
 93
        1
 72
     4
 94
        3
 73
     0
 74
     1
 95
       17
 96
       13
 40
0.0
 40
0.0
 40
0.0
 40
0.0
 40
1.0
 40
1.0
 40
1.0
 40
2.0
 40
2.0
 40
2.0
 40
3.0
 40
3.0
 40
3.0
 40
4.0
 40
4.0
 40
4.0
 40
4.0
 10
35.32125487398218
 20
-19.25584445048118
 10
35.32125487398218
 20
-19.39392387752999
 10
35.20928927071157
 20
-19.50585502984576
 10
35.07127874557246
 20
-19.50585502984576
 10
34.93319931852364
 20
-19.50585502984576
 10
34.82123371525302
 20
-19.39392387752999
 10
34.82123371525302
 20
-19.25584445048118
 10
34.82123371525302
 20
-19.11779947438722
 10
34.93319931852364
 20
-19.00586832207145
 10
35.07127874557246
 20
-19.00586832207145
 10
35.20928927071157
 20
-19.00586832207145
 10
35.32125487398218
 20
-19.11779947438722
 10
35.32125487398218
 20
-19.25584445048118
 97
        0
 75
     2
 76
     1
 98
        0
  0
SPLINE
  5
98
330
1F
100
AcDbEntity
  8
Layer 1
370
     0
100
AcDbSpline
210
0.0
220
0.0
230
1.0
 70
    11
 71
     3
 72
    17
 73
    13
 74
     0
 42
0.0000000001
 43
0.0000000001
 40
0.0
 40
0.0
 40
0.0
 40
0.0
 40
1.0
 40
1.0
 40
1.0
 40
2.0
 40
2.0
 40
2.0
 40
3.0
 40
3.0
 40
3.0
 40
4.0
 40
4.0
 40
4.0
 40
4.0
 10
35.32125487398218
 20
-20.18181721500663
 30
0.0
 10
35.32125487398218
 20
-20.31989664205544
 30
0.0
 10
35.20928927071157
 20
-20.43182779437121
 30
0.0
 10
35.07127874557246
 20
-20.43182779437121
 30
0.0
 10
34.93319931852364
 20
-20.43182779437121
 30
0.0
 10
34.82123371525302
 20
-20.31989664205544
 30
0.0
 10
34.82123371525302
 20
-20.18181721500663
 30
0.0
 10
34.82123371525302
 20
-20.04377223891267
 30
0.0
 10
34.93319931852364
 20
-19.9318410865969
 30
0.0
 10
35.07127874557246
 20
-19.9318410865969
 30
0.0
 10
35.20928927071157
 20
-19.9318410865969
 30
0.0
 10
35.32125487398218
 20
-20.04377223891267
 30
0.0
 10
35.32125487398218
 20
-20.18181721500663
 30
0.0
  0
HATCH
  5
99
330
1F
100
AcDbEntity
  8
Layer 1
 62
   240
420
 15539236
100
AcDbHatch
 10
0.0
 20
0.0
 30
0.0
210
0.0
220
0.0
230
1.0
  2
SOLID
 70
     1
 71
     0
 91
        1
 92
        1
 93
        1
 72
     4
 94
        3
 73
     0
 74
     1
 95
       17
 96
       13
 40
0.0
 40
0.0
 40
0.0
 40
0.0
 40
1.0
 40
1.0
 40
1.0
 40
2.0
 40
2.0
 40
2.0
 40
3.0
 40
3.0
 40
3.0
 40
4.0
 40
4.0
 40
4.0
 40
4.0
 10
35.32125487398218
 20
-20.18181721500663
 10
35.32125487398218
 20
-20.31989664205544
 10
35.20928927071157
 20
-20.43182779437121
 10
35.07127874557246
 20
-20.43182779437121
 10
34.93319931852364
 20
-20.43182779437121
 10
34.82123371525302
 20
-20.31989664205544
 10
34.82123371525302
 20
-20.18181721500663
 10
34.82123371525302
 20
-20.04377223891267
 10
34.93319931852364
 20
-19.9318410865969
 10
35.07127874557246
 20
-19.9318410865969
 10
35.20928927071157
 20
-19.9318410865969
 10
35.32125487398218
 20
-20.04377223891267
 10
35.32125487398218
 20
-20.18181721500663
 97
        0
 75
     2
 76
     1
 98
        0
  0
SPLINE
  5
9A
330
1F
100
AcDbEntity
  8
Layer 1
370
     0
100
AcDbSpline
210
0.0
220
0.0
230
1.0
 70
    11
 71
     3
 72
    17
 73
    13
 74
     0
 42
0.0000000001
 43
0.0000000001
 40
0.0
 40
0.0
 40
0.0
 40
0.0
 40
1.0
 40
1.0
 40
1.0
 40
2.0
 40
2.0
 40
2.0
 40
3.0
 40
3.0
 40
3.0
 40
4.0
 40
4.0
 40
4.0
 40
4.0
 10
35.32125487398218
 20
-21.15584906155132
 30
0.0
 10
35.32125487398218
 20
-21.29392848860013
 30
0.0
 10
35.20928927071157
 20
-21.4058596409159
 30
0.0
 10
35.07127874557246
 20
-21.4058596409159
 30
0.0
 10
34.93319931852364
 20
-21.4058596409159
 30
0.0
 10
34.82123371525302
 20
-21.29392848860013
 30
0.0
 10
34.82123371525302
 20
-21.15584906155132
 30
0.0
 10
34.82123371525302
 20
-21.01780408545735
 30
0.0
 10
34.93319931852364
 20
-20.90587293314159
 30
0.0
 10
35.07127874557246
 20
-20.90587293314159
 30
0.0
 10
35.20928927071157
 20
-20.90587293314159
 30
0.0
 10
35.32125487398218
 20
-21.01780408545735
 30
0.0
 10
35.32125487398218
 20
-21.15584906155132
 30
0.0
  0
HATCH
  5
9B
330
1F
100
AcDbEntity
  8
Layer 1
 62
   240
420
 15539236
100
AcDbHatch
 10
0.0
 20
0.0
 30
0.0
210
0.0
220
0.0
230
1.0
  2
SOLID
 70
     1
 71
     0
 91
        1
 92
        1
 93
        1
 72
     4
 94
        3
 73
     0
 74
     1
 95
       17
 96
       13
 40
0.0
 40
0.0
 40
0.0
 40
0.0
 40
1.0
 40
1.0
 40
1.0
 40
2.0
 40
2.0
 40
2.0
 40
3.0
 40
3.0
 40
3.0
 40
4.0
 40
4.0
 40
4.0
 40
4.0
 10
35.32125487398218
 20
-21.15584906155132
 10
35.32125487398218
 20
-21.29392848860013
 10
35.20928927071157
 20
-21.4058596409159
 10
35.07127874557246
 20
-21.4058596409159
 10
34.93319931852364
 20
-21.4058596409159
 10
34.82123371525302
 20
-21.29392848860013
 10
34.82123371525302
 20
-21.15584906155132
 10
34.82123371525302
 20
-21.01780408545735
 10
34.93319931852364
 20
-20.90587293314159
 10
35.07127874557246
 20
-20.90587293314159
 10
35.20928927071157
 20
-20.90587293314159
 10
35.32125487398218
 20
-21.01780408545735
 10
35.32125487398218
 20
-21.15584906155132
 97
        0
 75
     2
 76
     1
 98
        0
  0
SPLINE
  5
9C
330
1F
100
AcDbEntity
  8
Layer 1
370
     0
100
AcDbSpline
210
0.0
220
0.0
230
1.0
 70
    11
 71
     3
 72
    17
 73
    13
 74
     0
 42
0.0000000001
 43
0.0000000001
 40
0.0
 40
0.0
 40
0.0
 40
0.0
 40
1.0
 40
1.0
 40
1.0
 40
2.0
 40
2.0
 40
2.0
 40
3.0
 40
3.0
 40
3.0
 40
4.0
 40
4.0
 40
4.0
 40
4.0
 10
33.14622829032455
 20
-9.836023218027105
 30
0.0
 10
33.14622829032455
 20
-9.974102645075918
 30
0.0
 10
33.03429713800878
 20
-10.08603379739169
 30
0.0
 10
32.89625216191482
 20
-10.08603379739169
 30
0.0
 10
32.75817273486601
 20
-10.08603379739169
 30
0.0
 10
32.64624158255025
 20
-9.974102645075918
 30
0.0
 10
32.64624158255025
 20
-9.836023218027105
 30
0.0
 10
32.64624158255025
 20
-9.697978241933143
 30
0.0
 10
32.75817273486601
 20
-9.586047089617377
 30
0.0
 10
32.89625216191482
 20
-9.586047089617377
 30
0.0
 10
33.03429713800878
 20
-9.586047089617377
 30
0.0
 10
33.14622829032455
 20
-9.697978241933143
 30
0.0
 10
33.14622829032455
 20
-9.836023218027105
 30
0.0
  0
HATCH
  5
9D
330
1F
100
AcDbEntity
  8
Layer 1
 62
   240
420
 15539236
100
AcDbHatch
 10
0.0
 20
0.0
 30
0.0
210
0.0
220
0.0
230
1.0
  2
SOLID
 70
     1
 71
     0
 91
        1
 92
        1
 93
        1
 72
     4
 94
        3
 73
     0
 74
     1
 95
       17
 96
       13
 40
0.0
 40
0.0
 40
0.0
 40
0.0
 40
1.0
 40
1.0
 40
1.0
 40
2.0
 40
2.0
 40
2.0
 40
3.0
 40
3.0
 40
3.0
 40
4.0
 40
4.0
 40
4.0
 40
4.0
 10
33.14622829032455
 20
-9.836023218027105
 10
33.14622829032455
 20
-9.974102645075918
 10
33.03429713800878
 20
-10.08603379739169
 10
32.89625216191482
 20
-10.08603379739169
 10
32.75817273486601
 20
-10.08603379739169
 10
32.64624158255025
 20
-9.974102645075918
 10
32.64624158255025
 20
-9.836023218027105
 10
32.64624158255025
 20
-9.697978241933143
 10
32.75817273486601
 20
-9.586047089617377
 10
32.89625216191482
 20
-9.586047089617377
 10
33.03429713800878
 20
-9.586047089617377
 10
33.14622829032455
 20
-9.697978241933143
 10
33.14622829032455
 20
-9.836023218027105
 97
        0
 75
     2
 76
     1
 98
        0
  0
SPLINE
  5
9E
330
1F
100
AcDbEntity
  8
Layer 1
370
     0
100
AcDbSpline
210
0.0
220
0.0
230
1.0
 70
    11
 71
     3
 72
    17
 73
    13
 74
     0
 42
0.0000000001
 43
0.0000000001
 40
0.0
 40
0.0
 40
0.0
 40
0.0
 40
1.0
 40
1.0
 40
1.0
 40
2.0
 40
2.0
 40
2.0
 40
3.0
 40
3.0
 40
3.0
 40
4.0
 40
4.0
 40
4.0
 40
4.0
 10
33.14622829032455
 20
-10.81005506457179
 30
0.0
 10
33.14622829032455
 20
-10.94813449162061
 30
0.0
 10
33.03429713800878
 20
-11.06006564393637
 30
0.0
 10
32.89625216191482
 20
-11.06006564393637
 30
0.0
 10
32.75817273486601
 20
-11.06006564393637
 30
0.0
 10
32.64624158255025
 20
-10.94813449162061
 30
0.0
 10
32.64624158255025
 20
-10.81005506457179
 30
0.0
 10
32.64624158255025
 20
-10.67201008847783
 30
0.0
 10
32.75817273486601
 20
-10.56007893616206
 30
0.0
 10
32.89625216191482
 20
-10.56007893616206
 30
0.0
 10
33.03429713800878
 20
-10.56007893616206
 30
0.0
 10
33.14622829032455
 20
-10.67201008847783
 30
0.0
 10
33.14622829032455
 20
-10.81005506457179
 30
0.0
  0
HATCH
  5
9F
330
1F
100
AcDbEntity
  8
Layer 1
 62
   240
420
 15539236
100
AcDbHatch
 10
0.0
 20
0.0
 30
0.0
210
0.0
220
0.0
230
1.0
  2
SOLID
 70
     1
 71
     0
 91
        1
 92
        1
 93
        1
 72
     4
 94
        3
 73
     0
 74
     1
 95
       17
 96
       13
 40
0.0
 40
0.0
 40
0.0
 40
0.0
 40
1.0
 40
1.0
 40
1.0
 40
2.0
 40
2.0
 40
2.0
 40
3.0
 40
3.0
 40
3.0
 40
4.0
 40
4.0
 40
4.0
 40
4.0
 10
33.14622829032455
 20
-10.81005506457179
 10
33.14622829032455
 20
-10.94813449162061
 10
33.03429713800878
 20
-11.06006564393637
 10
32.89625216191482
 20
-11.06006564393637
 10
32.75817273486601
 20
-11.06006564393637
 10
32.64624158255025
 20
-10.94813449162061
 10
32.64624158255025
 20
-10.81005506457179
 10
32.64624158255025
 20
-10.67201008847783
 10
32.75817273486601
 20
-10.56007893616206
 10
32.89625216191482
 20
-10.56007893616206
 10
33.03429713800878
 20
-10.56007893616206
 10
33.14622829032455
 20
-10.67201008847783
 10
33.14622829032455
 20
-10.81005506457179
 97
        0
 75
     2
 76
     1
 98
        0
  0
SPLINE
  5
A0
330
1F
100
AcDbEntity
  8
Layer 1
370
     0
100
AcDbSpline
210
0.0
220
0.0
230
1.0
 70
    11
 71
     3
 72
    17
 73
    13
 74
     0
 42
0.0000000001
 43
0.0000000001
 40
0.0
 40
0.0
 40
0.0
 40
0.0
 40
1.0
 40
1.0
 40
1.0
 40
2.0
 40
2.0
 40
2.0
 40
3.0
 40
3.0
 40
3.0
 40
4.0
 40
4.0
 40
4.0
 40
4.0
 10
33.14622829032455
 20
-11.73602782909724
 30
0.0
 10
33.14622829032455
 20
-11.87410725614606
 30
0.0
 10
33.03429713800878
 20
-11.98603840846182
 30
0.0
 10
32.89625216191482
 20
-11.98603840846182
 30
0.0
 10
32.75817273486601
 20
-11.98603840846182
 30
0.0
 10
32.64624158255025
 20
-11.87410725614606
 30
0.0
 10
32.64624158255025
 20
-11.73602782909724
 30
0.0
 10
32.64624158255025
 20
-11.59798285300328
 30
0.0
 10
32.75817273486601
 20
-11.48605170068751
 30
0.0
 10
32.89625216191482
 20
-11.48605170068751
 30
0.0
 10
33.03429713800878
 20
-11.48605170068751
 30
0.0
 10
33.14622829032455
 20
-11.59798285300328
 30
0.0
 10
33.14622829032455
 20
-11.73602782909724
 30
0.0
  0
HATCH
  5
A1
330
1F
100
AcDbEntity
  8
Layer 1
 62
   240
420
 15539236
100
AcDbHatch
 10
0.0
 20
0.0
 30
0.0
210
0.0
220
0.0
230
1.0
  2
SOLID
 70
     1
 71
     0
 91
        1
 92
        1
 93
        1
 72
     4
 94
        3
 73
     0
 74
     1
 95
       17
 96
       13
 40
0.0
 40
0.0
 40
0.0
 40
0.0
 40
1.0
 40
1.0
 40
1.0
 40
2.0
 40
2.0
 40
2.0
 40
3.0
 40
3.0
 40
3.0
 40
4.0
 40
4.0
 40
4.0
 40
4.0
 10
33.14622829032455
 20
-11.73602782909724
 10
33.14622829032455
 20
-11.87410725614606
 10
33.03429713800878
 20
-11.98603840846182
 10
32.89625216191482
 20
-11.98603840846182
 10
32.75817273486601
 20
-11.98603840846182
 10
32.64624158255025
 20
-11.87410725614606
 10
32.64624158255025
 20
-11.73602782909724
 10
32.64624158255025
 20
-11.59798285300328
 10
32.75817273486601
 20
-11.48605170068751
 10
32.89625216191482
 20
-11.48605170068751
 10
33.03429713800878
 20
-11.48605170068751
 10
33.14622829032455
 20
-11.59798285300328
 10
33.14622829032455
 20
-11.73602782909724
 97
        0
 75
     2
 76
     1
 98
        0
  0
SPLINE
  5
A2
330
1F
100
AcDbEntity
  8
Layer 1
370
     0
100
AcDbSpline
210
0.0
220
0.0
230
1.0
 70
    11
 71
     3
 72
    17
 73
    13
 74
     0
 42
0.0000000001
 43
0.0000000001
 40
0.0
 40
0.0
 40
0.0
 40
0.0
 40
1.0
 40
1.0
 40
1.0
 40
2.0
 40
2.0
 40
2.0
 40
3.0
 40
3.0
 40
3.0
 40
4.0
 40
4.0
 40
4.0
 40
4.0
 10
33.14622829032455
 20
-12.71005967564193
 30
0.0
 10
33.14622829032455
 20
-12.84813910269074
 30
0.0
 10
33.03429713800878
 20
-12.96007025500651
 30
0.0
 10
32.89625216191482
 20
-12.96007025500651
 30
0.0
 10
32.75817273486601
 20
-12.96007025500651
 30
0.0
 10
32.64624158255025
 20
-12.84813910269074
 30
0.0
 10
32.64624158255025
 20
-12.71005967564193
 30
0.0
 10
32.64624158255025
 20
-12.57201469954797
 30
0.0
 10
32.75817273486601
 20
-12.4600835472322
 30
0.0
 10
32.89625216191482
 20
-12.4600835472322
 30
0.0
 10
33.03429713800878
 20
-12.4600835472322
 30
0.0
 10
33.14622829032455
 20
-12.57201469954797
 30
0.0
 10
33.14622829032455
 20
-12.71005967564193
 30
0.0
  0
HATCH
  5
A3
330
1F
100
AcDbEntity
  8
Layer 1
 62
   240
420
 15539236
100
AcDbHatch
 10
0.0
 20
0.0
 30
0.0
210
0.0
220
0.0
230
1.0
  2
SOLID
 70
     1
 71
     0
 91
        1
 92
        1
 93
        1
 72
     4
 94
        3
 73
     0
 74
     1
 95
       17
 96
       13
 40
0.0
 40
0.0
 40
0.0
 40
0.0
 40
1.0
 40
1.0
 40
1.0
 40
2.0
 40
2.0
 40
2.0
 40
3.0
 40
3.0
 40
3.0
 40
4.0
 40
4.0
 40
4.0
 40
4.0
 10
33.14622829032455
 20
-12.71005967564193
 10
33.14622829032455
 20
-12.84813910269074
 10
33.03429713800878
 20
-12.96007025500651
 10
32.89625216191482
 20
-12.96007025500651
 10
32.75817273486601
 20
-12.96007025500651
 10
32.64624158255025
 20
-12.84813910269074
 10
32.64624158255025
 20
-12.71005967564193
 10
32.64624158255025
 20
-12.57201469954797
 10
32.75817273486601
 20
-12.4600835472322
 10
32.89625216191482
 20
-12.4600835472322
 10
33.03429713800878
 20
-12.4600835472322
 10
33.14622829032455
 20
-12.57201469954797
 10
33.14622829032455
 20
-12.71005967564193
 97
        0
 75
     2
 76
     1
 98
        0
  0
SPLINE
  5
A4
330
1F
100
AcDbEntity
  8
Layer 1
370
     0
100
AcDbSpline
210
0.0
220
0.0
230
1.0
 70
    11
 71
     3
 72
    17
 73
    13
 74
     0
 42
0.0000000001
 43
0.0000000001
 40
0.0
 40
0.0
 40
0.0
 40
0.0
 40
1.0
 40
1.0
 40
1.0
 40
2.0
 40
2.0
 40
2.0
 40
3.0
 40
3.0
 40
3.0
 40
4.0
 40
4.0
 40
4.0
 40
4.0
 10
33.89794812520606
 20
-9.836023218027105
 30
0.0
 10
33.89794812520606
 20
-9.974102645075918
 30
0.0
 10
33.7860169728903
 20
-10.08603379739169
 30
0.0
 10
33.64797199679634
 20
-10.08603379739169
 30
0.0
 10
33.50989256974752
 20
-10.08603379739169
 30
0.0
 10
33.39796141743176
 20
-9.974102645075918
 30
0.0
 10
33.39796141743176
 20
-9.836023218027105
 30
0.0
 10
33.39796141743176
 20
-9.697978241933143
 30
0.0
 10
33.50989256974752
 20
-9.586047089617377
 30
0.0
 10
33.64797199679634
 20
-9.586047089617377
 30
0.0
 10
33.7860169728903
 20
-9.586047089617377
 30
0.0
 10
33.89794812520606
 20
-9.697978241933143
 30
0.0
 10
33.89794812520606
 20
-9.836023218027105
 30
0.0
  0
HATCH
  5
A5
330
1F
100
AcDbEntity
  8
Layer 1
 62
   240
420
 15539236
100
AcDbHatch
 10
0.0
 20
0.0
 30
0.0
210
0.0
220
0.0
230
1.0
  2
SOLID
 70
     1
 71
     0
 91
        1
 92
        1
 93
        1
 72
     4
 94
        3
 73
     0
 74
     1
 95
       17
 96
       13
 40
0.0
 40
0.0
 40
0.0
 40
0.0
 40
1.0
 40
1.0
 40
1.0
 40
2.0
 40
2.0
 40
2.0
 40
3.0
 40
3.0
 40
3.0
 40
4.0
 40
4.0
 40
4.0
 40
4.0
 10
33.89794812520606
 20
-9.836023218027105
 10
33.89794812520606
 20
-9.974102645075918
 10
33.7860169728903
 20
-10.08603379739169
 10
33.64797199679634
 20
-10.08603379739169
 10
33.50989256974752
 20
-10.08603379739169
 10
33.39796141743176
 20
-9.974102645075918
 10
33.39796141743176
 20
-9.836023218027105
 10
33.39796141743176
 20
-9.697978241933143
 10
33.50989256974752
 20
-9.586047089617377
 10
33.64797199679634
 20
-9.586047089617377
 10
33.7860169728903
 20
-9.586047089617377
 10
33.89794812520606
 20
-9.697978241933143
 10
33.89794812520606
 20
-9.836023218027105
 97
        0
 75
     2
 76
     1
 98
        0
  0
SPLINE
  5
A6
330
1F
100
AcDbEntity
  8
Layer 1
370
     0
100
AcDbSpline
210
0.0
220
0.0
230
1.0
 70
    11
 71
     3
 72
    17
 73
    13
 74
     0
 42
0.0000000001
 43
0.0000000001
 40
0.0
 40
0.0
 40
0.0
 40
0.0
 40
1.0
 40
1.0
 40
1.0
 40
2.0
 40
2.0
 40
2.0
 40
3.0
 40
3.0
 40
3.0
 40
4.0
 40
4.0
 40
4.0
 40
4.0
 10
33.89794812520606
 20
-10.81005506457179
 30
0.0
 10
33.89794812520606
 20
-10.94813449162061
 30
0.0
 10
33.7860169728903
 20
-11.06006564393637
 30
0.0
 10
33.64797199679634
 20
-11.06006564393637
 30
0.0
 10
33.50989256974752
 20
-11.06006564393637
 30
0.0
 10
33.39796141743176
 20
-10.94813449162061
 30
0.0
 10
33.39796141743176
 20
-10.81005506457179
 30
0.0
 10
33.39796141743176
 20
-10.67201008847783
 30
0.0
 10
33.50989256974752
 20
-10.56007893616206
 30
0.0
 10
33.64797199679634
 20
-10.56007893616206
 30
0.0
 10
33.7860169728903
 20
-10.56007893616206
 30
0.0
 10
33.89794812520606
 20
-10.67201008847783
 30
0.0
 10
33.89794812520606
 20
-10.81005506457179
 30
0.0
  0
HATCH
  5
A7
330
1F
100
AcDbEntity
  8
Layer 1
 62
   240
420
 15539236
100
AcDbHatch
 10
0.0
 20
0.0
 30
0.0
210
0.0
220
0.0
230
1.0
  2
SOLID
 70
     1
 71
     0
 91
        1
 92
        1
 93
        1
 72
     4
 94
        3
 73
     0
 74
     1
 95
       17
 96
       13
 40
0.0
 40
0.0
 40
0.0
 40
0.0
 40
1.0
 40
1.0
 40
1.0
 40
2.0
 40
2.0
 40
2.0
 40
3.0
 40
3.0
 40
3.0
 40
4.0
 40
4.0
 40
4.0
 40
4.0
 10
33.89794812520606
 20
-10.81005506457179
 10
33.89794812520606
 20
-10.94813449162061
 10
33.7860169728903
 20
-11.06006564393637
 10
33.64797199679634
 20
-11.06006564393637
 10
33.50989256974752
 20
-11.06006564393637
 10
33.39796141743176
 20
-10.94813449162061
 10
33.39796141743176
 20
-10.81005506457179
 10
33.39796141743176
 20
-10.67201008847783
 10
33.50989256974752
 20
-10.56007893616206
 10
33.64797199679634
 20
-10.56007893616206
 10
33.7860169728903
 20
-10.56007893616206
 10
33.89794812520606
 20
-10.67201008847783
 10
33.89794812520606
 20
-10.81005506457179
 97
        0
 75
     2
 76
     1
 98
        0
  0
SPLINE
  5
A8
330
1F
100
AcDbEntity
  8
Layer 1
370
     0
100
AcDbSpline
210
0.0
220
0.0
230
1.0
 70
    11
 71
     3
 72
    17
 73
    13
 74
     0
 42
0.0000000001
 43
0.0000000001
 40
0.0
 40
0.0
 40
0.0
 40
0.0
 40
1.0
 40
1.0
 40
1.0
 40
2.0
 40
2.0
 40
2.0
 40
3.0
 40
3.0
 40
3.0
 40
4.0
 40
4.0
 40
4.0
 40
4.0
 10
33.89794812520606
 20
-11.73602782909724
 30
0.0
 10
33.89794812520606
 20
-11.87410725614606
 30
0.0
 10
33.7860169728903
 20
-11.98603840846182
 30
0.0
 10
33.64797199679634
 20
-11.98603840846182
 30
0.0
 10
33.50989256974752
 20
-11.98603840846182
 30
0.0
 10
33.39796141743176
 20
-11.87410725614606
 30
0.0
 10
33.39796141743176
 20
-11.73602782909724
 30
0.0
 10
33.39796141743176
 20
-11.59798285300328
 30
0.0
 10
33.50989256974752
 20
-11.48605170068751
 30
0.0
 10
33.64797199679634
 20
-11.48605170068751
 30
0.0
 10
33.7860169728903
 20
-11.48605170068751
 30
0.0
 10
33.89794812520606
 20
-11.59798285300328
 30
0.0
 10
33.89794812520606
 20
-11.73602782909724
 30
0.0
  0
HATCH
  5
A9
330
1F
100
AcDbEntity
  8
Layer 1
 62
   240
420
 15539236
100
AcDbHatch
 10
0.0
 20
0.0
 30
0.0
210
0.0
220
0.0
230
1.0
  2
SOLID
 70
     1
 71
     0
 91
        1
 92
        1
 93
        1
 72
     4
 94
        3
 73
     0
 74
     1
 95
       17
 96
       13
 40
0.0
 40
0.0
 40
0.0
 40
0.0
 40
1.0
 40
1.0
 40
1.0
 40
2.0
 40
2.0
 40
2.0
 40
3.0
 40
3.0
 40
3.0
 40
4.0
 40
4.0
 40
4.0
 40
4.0
 10
33.89794812520606
 20
-11.73602782909724
 10
33.89794812520606
 20
-11.87410725614606
 10
33.7860169728903
 20
-11.98603840846182
 10
33.64797199679634
 20
-11.98603840846182
 10
33.50989256974752
 20
-11.98603840846182
 10
33.39796141743176
 20
-11.87410725614606
 10
33.39796141743176
 20
-11.73602782909724
 10
33.39796141743176
 20
-11.59798285300328
 10
33.50989256974752
 20
-11.48605170068751
 10
33.64797199679634
 20
-11.48605170068751
 10
33.7860169728903
 20
-11.48605170068751
 10
33.89794812520606
 20
-11.59798285300328
 10
33.89794812520606
 20
-11.73602782909724
 97
        0
 75
     2
 76
     1
 98
        0
  0
SPLINE
  5
AA
330
1F
100
AcDbEntity
  8
Layer 1
370
     0
100
AcDbSpline
210
0.0
220
0.0
230
1.0
 70
    11
 71
     3
 72
    17
 73
    13
 74
     0
 42
0.0000000001
 43
0.0000000001
 40
0.0
 40
0.0
 40
0.0
 40
0.0
 40
1.0
 40
1.0
 40
1.0
 40
2.0
 40
2.0
 40
2.0
 40
3.0
 40
3.0
 40
3.0
 40
4.0
 40
4.0
 40
4.0
 40
4.0
 10
33.89794812520606
 20
-12.71005967564193
 30
0.0
 10
33.89794812520606
 20
-12.84813910269074
 30
0.0
 10
33.7860169728903
 20
-12.96007025500651
 30
0.0
 10
33.64797199679634
 20
-12.96007025500651
 30
0.0
 10
33.50989256974752
 20
-12.96007025500651
 30
0.0
 10
33.39796141743176
 20
-12.84813910269074
 30
0.0
 10
33.39796141743176
 20
-12.71005967564193
 30
0.0
 10
33.39796141743176
 20
-12.57201469954797
 30
0.0
 10
33.50989256974752
 20
-12.4600835472322
 30
0.0
 10
33.64797199679634
 20
-12.4600835472322
 30
0.0
 10
33.7860169728903
 20
-12.4600835472322
 30
0.0
 10
33.89794812520606
 20
-12.57201469954797
 30
0.0
 10
33.89794812520606
 20
-12.71005967564193
 30
0.0
  0
HATCH
  5
AB
330
1F
100
AcDbEntity
  8
Layer 1
 62
   240
420
 15539236
100
AcDbHatch
 10
0.0
 20
0.0
 30
0.0
210
0.0
220
0.0
230
1.0
  2
SOLID
 70
     1
 71
     0
 91
        1
 92
        1
 93
        1
 72
     4
 94
        3
 73
     0
 74
     1
 95
       17
 96
       13
 40
0.0
 40
0.0
 40
0.0
 40
0.0
 40
1.0
 40
1.0
 40
1.0
 40
2.0
 40
2.0
 40
2.0
 40
3.0
 40
3.0
 40
3.0
 40
4.0
 40
4.0
 40
4.0
 40
4.0
 10
33.89794812520606
 20
-12.71005967564193
 10
33.89794812520606
 20
-12.84813910269074
 10
33.7860169728903
 20
-12.96007025500651
 10
33.64797199679634
 20
-12.96007025500651
 10
33.50989256974752
 20
-12.96007025500651
 10
33.39796141743176
 20
-12.84813910269074
 10
33.39796141743176
 20
-12.71005967564193
 10
33.39796141743176
 20
-12.57201469954797
 10
33.50989256974752
 20
-12.4600835472322
 10
33.64797199679634
 20
-12.4600835472322
 10
33.7860169728903
 20
-12.4600835472322
 10
33.89794812520606
 20
-12.57201469954797
 10
33.89794812520606
 20
-12.71005967564193
 97
        0
 75
     2
 76
     1
 98
        0
  0
SPLINE
  5
AC
330
1F
100
AcDbEntity
  8
Layer 1
370
     0
100
AcDbSpline
210
0.0
220
0.0
230
1.0
 70
    11
 71
     3
 72
    17
 73
    13
 74
     0
 42
0.0000000001
 43
0.0000000001
 40
0.0
 40
0.0
 40
0.0
 40
0.0
 40
1.0
 40
1.0
 40
1.0
 40
2.0
 40
2.0
 40
2.0
 40
3.0
 40
3.0
 40
3.0
 40
4.0
 40
4.0
 40
4.0
 40
4.0
 10
34.64794541234495
 20
-9.785828176807014
 30
0.0
 10
34.64794541234495
 20
-9.923907603855827
 30
0.0
 10
34.53597980907433
 20
-10.03580430521674
 30
0.0
 10
34.39796928393523
 20
-10.03580430521674
 30
0.0
 10
34.25988985688642
 20
-10.03580430521674
 30
0.0
 10
34.14792425361579
 20
-9.923907603855827
 30
0.0
 10
34.14792425361579
 20
-9.785828176807014
 30
0.0
 10
34.14792425361579
 20
-9.6477487497582
 30
0.0
 10
34.25988985688642
 20
-9.53583482291986
 30
0.0
 10
34.39796928393523
 20
-9.53583482291986
 30
0.0
 10
34.53597980907433
 20
-9.53583482291986
 30
0.0
 10
34.64794541234495
 20
-9.6477487497582
 30
0.0
 10
34.64794541234495
 20
-9.785828176807014
 30
0.0
  0
HATCH
  5
AD
330
1F
100
AcDbEntity
  8
Layer 1
 62
   240
420
 15539236
100
AcDbHatch
 10
0.0
 20
0.0
 30
0.0
210
0.0
220
0.0
230
1.0
  2
SOLID
 70
     1
 71
     0
 91
        1
 92
        1
 93
        1
 72
     4
 94
        3
 73
     0
 74
     1
 95
       17
 96
       13
 40
0.0
 40
0.0
 40
0.0
 40
0.0
 40
1.0
 40
1.0
 40
1.0
 40
2.0
 40
2.0
 40
2.0
 40
3.0
 40
3.0
 40
3.0
 40
4.0
 40
4.0
 40
4.0
 40
4.0
 10
34.64794541234495
 20
-9.785828176807014
 10
34.64794541234495
 20
-9.923907603855827
 10
34.53597980907433
 20
-10.03580430521674
 10
34.39796928393523
 20
-10.03580430521674
 10
34.25988985688642
 20
-10.03580430521674
 10
34.14792425361579
 20
-9.923907603855827
 10
34.14792425361579
 20
-9.785828176807014
 10
34.14792425361579
 20
-9.6477487497582
 10
34.25988985688642
 20
-9.53583482291986
 10
34.39796928393523
 20
-9.53583482291986
 10
34.53597980907433
 20
-9.53583482291986
 10
34.64794541234495
 20
-9.6477487497582
 10
34.64794541234495
 20
-9.785828176807014
 97
        0
 75
     2
 76
     1
 98
        0
  0
SPLINE
  5
AE
330
1F
100
AcDbEntity
  8
Layer 1
370
     0
100
AcDbSpline
210
0.0
220
0.0
230
1.0
 70
    11
 71
     3
 72
    17
 73
    13
 74
     0
 42
0.0000000001
 43
0.0000000001
 40
0.0
 40
0.0
 40
0.0
 40
0.0
 40
1.0
 40
1.0
 40
1.0
 40
2.0
 40
2.0
 40
2.0
 40
3.0
 40
3.0
 40
3.0
 40
4.0
 40
4.0
 40
4.0
 40
4.0
 10
34.64794541234495
 20
-10.75982557239685
 30
0.0
 10
34.64794541234495
 20
-10.89790499944566
 30
0.0
 10
34.53597980907433
 20
-11.00987060271628
 30
0.0
 10
34.39796928393523
 20
-11.00987060271628
 30
0.0
 10
34.25988985688642
 20
-11.00987060271628
 30
0.0
 10
34.14792425361579
 20
-10.89790499944566
 30
0.0
 10
34.14792425361579
 20
-10.75982557239685
 30
0.0
 10
34.14792425361579
 20
-10.62181504725774
 30
0.0
 10
34.25988985688642
 20
-10.50984944398712
 30
0.0
 10
34.39796928393523
 20
-10.50984944398712
 30
0.0
 10
34.53597980907433
 20
-10.50984944398712
 30
0.0
 10
34.64794541234495
 20
-10.62181504725774
 30
0.0
 10
34.64794541234495
 20
-10.75982557239685
 30
0.0
  0
HATCH
  5
AF
330
1F
100
AcDbEntity
  8
Layer 1
 62
   240
420
 15539236
100
AcDbHatch
 10
0.0
 20
0.0
 30
0.0
210
0.0
220
0.0
230
1.0
  2
SOLID
 70
     1
 71
     0
 91
        1
 92
        1
 93
        1
 72
     4
 94
        3
 73
     0
 74
     1
 95
       17
 96
       13
 40
0.0
 40
0.0
 40
0.0
 40
0.0
 40
1.0
 40
1.0
 40
1.0
 40
2.0
 40
2.0
 40
2.0
 40
3.0
 40
3.0
 40
3.0
 40
4.0
 40
4.0
 40
4.0
 40
4.0
 10
34.64794541234495
 20
-10.75982557239685
 10
34.64794541234495
 20
-10.89790499944566
 10
34.53597980907433
 20
-11.00987060271628
 10
34.39796928393523
 20
-11.00987060271628
 10
34.25988985688642
 20
-11.00987060271628
 10
34.14792425361579
 20
-10.89790499944566
 10
34.14792425361579
 20
-10.75982557239685
 10
34.14792425361579
 20
-10.62181504725774
 10
34.25988985688642
 20
-10.50984944398712
 10
34.39796928393523
 20
-10.50984944398712
 10
34.53597980907433
 20
-10.50984944398712
 10
34.64794541234495
 20
-10.62181504725774
 10
34.64794541234495
 20
-10.75982557239685
 97
        0
 75
     2
 76
     1
 98
        0
  0
SPLINE
  5
B0
330
1F
100
AcDbEntity
  8
Layer 1
370
     0
100
AcDbSpline
210
0.0
220
0.0
230
1.0
 70
    11
 71
     3
 72
    17
 73
    13
 74
     0
 42
0.0000000001
 43
0.0000000001
 40
0.0
 40
0.0
 40
0.0
 40
0.0
 40
1.0
 40
1.0
 40
1.0
 40
2.0
 40
2.0
 40
2.0
 40
3.0
 40
3.0
 40
3.0
 40
4.0
 40
4.0
 40
4.0
 40
4.0
 10
34.64794541234495
 20
-11.6857983369223
 30
0.0
 10
34.64794541234495
 20
-11.82387776397111
 30
0.0
 10
34.53597980907433
 20
-11.93584336724173
 30
0.0
 10
34.39796928393523
 20
-11.93584336724173
 30
0.0
 10
34.25988985688642
 20
-11.93584336724173
 30
0.0
 10
34.14792425361579
 20
-11.82387776397111
 30
0.0
 10
34.14792425361579
 20
-11.6857983369223
 30
0.0
 10
34.14792425361579
 20
-11.54778781178319
 30
0.0
 10
34.25988985688642
 20
-11.43582220851257
 30
0.0
 10
34.39796928393523
 20
-11.43582220851257
 30
0.0
 10
34.53597980907433
 20
-11.43582220851257
 30
0.0
 10
34.64794541234495
 20
-11.54778781178319
 30
0.0
 10
34.64794541234495
 20
-11.6857983369223
 30
0.0
  0
HATCH
  5
B1
330
1F
100
AcDbEntity
  8
Layer 1
 62
   240
420
 15539236
100
AcDbHatch
 10
0.0
 20
0.0
 30
0.0
210
0.0
220
0.0
230
1.0
  2
SOLID
 70
     1
 71
     0
 91
        1
 92
        1
 93
        1
 72
     4
 94
        3
 73
     0
 74
     1
 95
       17
 96
       13
 40
0.0
 40
0.0
 40
0.0
 40
0.0
 40
1.0
 40
1.0
 40
1.0
 40
2.0
 40
2.0
 40
2.0
 40
3.0
 40
3.0
 40
3.0
 40
4.0
 40
4.0
 40
4.0
 40
4.0
 10
34.64794541234495
 20
-11.6857983369223
 10
34.64794541234495
 20
-11.82387776397111
 10
34.53597980907433
 20
-11.93584336724173
 10
34.39796928393523
 20
-11.93584336724173
 10
34.25988985688642
 20
-11.93584336724173
 10
34.14792425361579
 20
-11.82387776397111
 10
34.14792425361579
 20
-11.6857983369223
 10
34.14792425361579
 20
-11.54778781178319
 10
34.25988985688642
 20
-11.43582220851257
 10
34.39796928393523
 20
-11.43582220851257
 10
34.53597980907433
 20
-11.43582220851257
 10
34.64794541234495
 20
-11.54778781178319
 10
34.64794541234495
 20
-11.6857983369223
 97
        0
 75
     2
 76
     1
 98
        0
  0
SPLINE
  5
B2
330
1F
100
AcDbEntity
  8
Layer 1
370
     0
100
AcDbSpline
210
0.0
220
0.0
230
1.0
 70
    11
 71
     3
 72
    17
 73
    13
 74
     0
 42
0.0000000001
 43
0.0000000001
 40
0.0
 40
0.0
 40
0.0
 40
0.0
 40
1.0
 40
1.0
 40
1.0
 40
2.0
 40
2.0
 40
2.0
 40
3.0
 40
3.0
 40
3.0
 40
4.0
 40
4.0
 40
4.0
 40
4.0
 10
34.64794541234495
 20
-12.65986463442184
 30
0.0
 10
34.64794541234495
 20
-12.79794406147065
 30
0.0
 10
34.53597980907433
 20
-12.90984076283157
 30
0.0
 10
34.39796928393523
 20
-12.90984076283157
 30
0.0
 10
34.25988985688642
 20
-12.90984076283157
 30
0.0
 10
34.14792425361579
 20
-12.79794406147065
 30
0.0
 10
34.14792425361579
 20
-12.65986463442184
 30
0.0
 10
34.14792425361579
 20
-12.52178520737302
 30
0.0
 10
34.25988985688642
 20
-12.40988850601211
 30
0.0
 10
34.39796928393523
 20
-12.40988850601211
 30
0.0
 10
34.53597980907433
 20
-12.40988850601211
 30
0.0
 10
34.64794541234495
 20
-12.52178520737302
 30
0.0
 10
34.64794541234495
 20
-12.65986463442184
 30
0.0
  0
HATCH
  5
B3
330
1F
100
AcDbEntity
  8
Layer 1
 62
   240
420
 15539236
100
AcDbHatch
 10
0.0
 20
0.0
 30
0.0
210
0.0
220
0.0
230
1.0
  2
SOLID
 70
     1
 71
     0
 91
        1
 92
        1
 93
        1
 72
     4
 94
        3
 73
     0
 74
     1
 95
       17
 96
       13
 40
0.0
 40
0.0
 40
0.0
 40
0.0
 40
1.0
 40
1.0
 40
1.0
 40
2.0
 40
2.0
 40
2.0
 40
3.0
 40
3.0
 40
3.0
 40
4.0
 40
4.0
 40
4.0
 40
4.0
 10
34.64794541234495
 20
-12.65986463442184
 10
34.64794541234495
 20
-12.79794406147065
 10
34.53597980907433
 20
-12.90984076283157
 10
34.39796928393523
 20
-12.90984076283157
 10
34.25988985688642
 20
-12.90984076283157
 10
34.14792425361579
 20
-12.79794406147065
 10
34.14792425361579
 20
-12.65986463442184
 10
34.14792425361579
 20
-12.52178520737302
 10
34.25988985688642
 20
-12.40988850601211
 10
34.39796928393523
 20
-12.40988850601211
 10
34.53597980907433
 20
-12.40988850601211
 10
34.64794541234495
 20
-12.52178520737302
 10
34.64794541234495
 20
-12.65986463442184
 97
        0
 75
     2
 76
     1
 98
        0
  0
SPLINE
  5
B4
330
1F
100
AcDbEntity
  8
Layer 1
370
     0
100
AcDbSpline
210
0.0
220
0.0
230
1.0
 70
    11
 71
     3
 72
    17
 73
    13
 74
     0
 42
0.0000000001
 43
0.0000000001
 40
0.0
 40
0.0
 40
0.0
 40
0.0
 40
1.0
 40
1.0
 40
1.0
 40
2.0
 40
2.0
 40
2.0
 40
3.0
 40
3.0
 40
3.0
 40
4.0
 40
4.0
 40
4.0
 40
4.0
 10
35.39966524722647
 20
-9.785828176807014
 30
0.0
 10
35.39966524722647
 20
-9.923907603855827
 30
0.0
 10
35.28769964395585
 20
-10.03580430521674
 30
0.0
 10
35.14968911881675
 20
-10.03580430521674
 30
0.0
 10
35.01160969176793
 20
-10.03580430521674
 30
0.0
 10
34.89964408849731
 20
-9.923907603855827
 30
0.0
 10
34.89964408849731
 20
-9.785828176807014
 30
0.0
 10
34.89964408849731
 20
-9.6477487497582
 30
0.0
 10
35.01160969176793
 20
-9.53583482291986
 30
0.0
 10
35.14968911881675
 20
-9.53583482291986
 30
0.0
 10
35.28769964395585
 20
-9.53583482291986
 30
0.0
 10
35.39966524722647
 20
-9.6477487497582
 30
0.0
 10
35.39966524722647
 20
-9.785828176807014
 30
0.0
  0
HATCH
  5
B5
330
1F
100
AcDbEntity
  8
Layer 1
 62
   240
420
 15539236
100
AcDbHatch
 10
0.0
 20
0.0
 30
0.0
210
0.0
220
0.0
230
1.0
  2
SOLID
 70
     1
 71
     0
 91
        1
 92
        1
 93
        1
 72
     4
 94
        3
 73
     0
 74
     1
 95
       17
 96
       13
 40
0.0
 40
0.0
 40
0.0
 40
0.0
 40
1.0
 40
1.0
 40
1.0
 40
2.0
 40
2.0
 40
2.0
 40
3.0
 40
3.0
 40
3.0
 40
4.0
 40
4.0
 40
4.0
 40
4.0
 10
35.39966524722647
 20
-9.785828176807014
 10
35.39966524722647
 20
-9.923907603855827
 10
35.28769964395585
 20
-10.03580430521674
 10
35.14968911881675
 20
-10.03580430521674
 10
35.01160969176793
 20
-10.03580430521674
 10
34.89964408849731
 20
-9.923907603855827
 10
34.89964408849731
 20
-9.785828176807014
 10
34.89964408849731
 20
-9.6477487497582
 10
35.01160969176793
 20
-9.53583482291986
 10
35.14968911881675
 20
-9.53583482291986
 10
35.28769964395585
 20
-9.53583482291986
 10
35.39966524722647
 20
-9.6477487497582
 10
35.39966524722647
 20
-9.785828176807014
 97
        0
 75
     2
 76
     1
 98
        0
  0
SPLINE
  5
B6
330
1F
100
AcDbEntity
  8
Layer 1
370
     0
100
AcDbSpline
210
0.0
220
0.0
230
1.0
 70
    11
 71
     3
 72
    17
 73
    13
 74
     0
 42
0.0000000001
 43
0.0000000001
 40
0.0
 40
0.0
 40
0.0
 40
0.0
 40
1.0
 40
1.0
 40
1.0
 40
2.0
 40
2.0
 40
2.0
 40
3.0
 40
3.0
 40
3.0
 40
4.0
 40
4.0
 40
4.0
 40
4.0
 10
35.39966524722647
 20
-10.75982557239685
 30
0.0
 10
35.39966524722647
 20
-10.89790499944566
 30
0.0
 10
35.28769964395585
 20
-11.00987060271628
 30
0.0
 10
35.14968911881675
 20
-11.00987060271628
 30
0.0
 10
35.01160969176793
 20
-11.00987060271628
 30
0.0
 10
34.89964408849731
 20
-10.89790499944566
 30
0.0
 10
34.89964408849731
 20
-10.75982557239685
 30
0.0
 10
34.89964408849731
 20
-10.62181504725774
 30
0.0
 10
35.01160969176793
 20
-10.50984944398712
 30
0.0
 10
35.14968911881675
 20
-10.50984944398712
 30
0.0
 10
35.28769964395585
 20
-10.50984944398712
 30
0.0
 10
35.39966524722647
 20
-10.62181504725774
 30
0.0
 10
35.39966524722647
 20
-10.75982557239685
 30
0.0
  0
HATCH
  5
B7
330
1F
100
AcDbEntity
  8
Layer 1
 62
   240
420
 15539236
100
AcDbHatch
 10
0.0
 20
0.0
 30
0.0
210
0.0
220
0.0
230
1.0
  2
SOLID
 70
     1
 71
     0
 91
        1
 92
        1
 93
        1
 72
     4
 94
        3
 73
     0
 74
     1
 95
       17
 96
       13
 40
0.0
 40
0.0
 40
0.0
 40
0.0
 40
1.0
 40
1.0
 40
1.0
 40
2.0
 40
2.0
 40
2.0
 40
3.0
 40
3.0
 40
3.0
 40
4.0
 40
4.0
 40
4.0
 40
4.0
 10
35.39966524722647
 20
-10.75982557239685
 10
35.39966524722647
 20
-10.89790499944566
 10
35.28769964395585
 20
-11.00987060271628
 10
35.14968911881675
 20
-11.00987060271628
 10
35.01160969176793
 20
-11.00987060271628
 10
34.89964408849731
 20
-10.89790499944566
 10
34.89964408849731
 20
-10.75982557239685
 10
34.89964408849731
 20
-10.62181504725774
 10
35.01160969176793
 20
-10.50984944398712
 10
35.14968911881675
 20
-10.50984944398712
 10
35.28769964395585
 20
-10.50984944398712
 10
35.39966524722647
 20
-10.62181504725774
 10
35.39966524722647
 20
-10.75982557239685
 97
        0
 75
     2
 76
     1
 98
        0
  0
SPLINE
  5
B8
330
1F
100
AcDbEntity
  8
Layer 1
370
     0
100
AcDbSpline
210
0.0
220
0.0
230
1.0
 70
    11
 71
     3
 72
    17
 73
    13
 74
     0
 42
0.0000000001
 43
0.0000000001
 40
0.0
 40
0.0
 40
0.0
 40
0.0
 40
1.0
 40
1.0
 40
1.0
 40
2.0
 40
2.0
 40
2.0
 40
3.0
 40
3.0
 40
3.0
 40
4.0
 40
4.0
 40
4.0
 40
4.0
 10
35.39966524722647
 20
-11.6857983369223
 30
0.0
 10
35.39966524722647
 20
-11.82387776397111
 30
0.0
 10
35.28769964395585
 20
-11.93584336724173
 30
0.0
 10
35.14968911881675
 20
-11.93584336724173
 30
0.0
 10
35.01160969176793
 20
-11.93584336724173
 30
0.0
 10
34.89964408849731
 20
-11.82387776397111
 30
0.0
 10
34.89964408849731
 20
-11.6857983369223
 30
0.0
 10
34.89964408849731
 20
-11.54778781178319
 30
0.0
 10
35.01160969176793
 20
-11.43582220851257
 30
0.0
 10
35.14968911881675
 20
-11.43582220851257
 30
0.0
 10
35.28769964395585
 20
-11.43582220851257
 30
0.0
 10
35.39966524722647
 20
-11.54778781178319
 30
0.0
 10
35.39966524722647
 20
-11.6857983369223
 30
0.0
  0
HATCH
  5
B9
330
1F
100
AcDbEntity
  8
Layer 1
 62
   240
420
 15539236
100
AcDbHatch
 10
0.0
 20
0.0
 30
0.0
210
0.0
220
0.0
230
1.0
  2
SOLID
 70
     1
 71
     0
 91
        1
 92
        1
 93
        1
 72
     4
 94
        3
 73
     0
 74
     1
 95
       17
 96
       13
 40
0.0
 40
0.0
 40
0.0
 40
0.0
 40
1.0
 40
1.0
 40
1.0
 40
2.0
 40
2.0
 40
2.0
 40
3.0
 40
3.0
 40
3.0
 40
4.0
 40
4.0
 40
4.0
 40
4.0
 10
35.39966524722647
 20
-11.6857983369223
 10
35.39966524722647
 20
-11.82387776397111
 10
35.28769964395585
 20
-11.93584336724173
 10
35.14968911881675
 20
-11.93584336724173
 10
35.01160969176793
 20
-11.93584336724173
 10
34.89964408849731
 20
-11.82387776397111
 10
34.89964408849731
 20
-11.6857983369223
 10
34.89964408849731
 20
-11.54778781178319
 10
35.01160969176793
 20
-11.43582220851257
 10
35.14968911881675
 20
-11.43582220851257
 10
35.28769964395585
 20
-11.43582220851257
 10
35.39966524722647
 20
-11.54778781178319
 10
35.39966524722647
 20
-11.6857983369223
 97
        0
 75
     2
 76
     1
 98
        0
  0
SPLINE
  5
BA
330
1F
100
AcDbEntity
  8
Layer 1
370
     0
100
AcDbSpline
210
0.0
220
0.0
230
1.0
 70
    11
 71
     3
 72
    17
 73
    13
 74
     0
 42
0.0000000001
 43
0.0000000001
 40
0.0
 40
0.0
 40
0.0
 40
0.0
 40
1.0
 40
1.0
 40
1.0
 40
2.0
 40
2.0
 40
2.0
 40
3.0
 40
3.0
 40
3.0
 40
4.0
 40
4.0
 40
4.0
 40
4.0
 10
35.39966524722647
 20
-12.65986463442184
 30
0.0
 10
35.39966524722647
 20
-12.79794406147065
 30
0.0
 10
35.28769964395585
 20
-12.90984076283157
 30
0.0
 10
35.14968911881675
 20
-12.90984076283157
 30
0.0
 10
35.01160969176793
 20
-12.90984076283157
 30
0.0
 10
34.89964408849731
 20
-12.79794406147065
 30
0.0
 10
34.89964408849731
 20
-12.65986463442184
 30
0.0
 10
34.89964408849731
 20
-12.52178520737302
 30
0.0
 10
35.01160969176793
 20
-12.40988850601211
 30
0.0
 10
35.14968911881675
 20
-12.40988850601211
 30
0.0
 10
35.28769964395585
 20
-12.40988850601211
 30
0.0
 10
35.39966524722647
 20
-12.52178520737302
 30
0.0
 10
35.39966524722647
 20
-12.65986463442184
 30
0.0
  0
HATCH
  5
BB
330
1F
100
AcDbEntity
  8
Layer 1
 62
   240
420
 15539236
100
AcDbHatch
 10
0.0
 20
0.0
 30
0.0
210
0.0
220
0.0
230
1.0
  2
SOLID
 70
     1
 71
     0
 91
        1
 92
        1
 93
        1
 72
     4
 94
        3
 73
     0
 74
     1
 95
       17
 96
       13
 40
0.0
 40
0.0
 40
0.0
 40
0.0
 40
1.0
 40
1.0
 40
1.0
 40
2.0
 40
2.0
 40
2.0
 40
3.0
 40
3.0
 40
3.0
 40
4.0
 40
4.0
 40
4.0
 40
4.0
 10
35.39966524722647
 20
-12.65986463442184
 10
35.39966524722647
 20
-12.79794406147065
 10
35.28769964395585
 20
-12.90984076283157
 10
35.14968911881675
 20
-12.90984076283157
 10
35.01160969176793
 20
-12.90984076283157
 10
34.89964408849731
 20
-12.79794406147065
 10
34.89964408849731
 20
-12.65986463442184
 10
34.89964408849731
 20
-12.52178520737302
 10
35.01160969176793
 20
-12.40988850601211
 10
35.14968911881675
 20
-12.40988850601211
 10
35.28769964395585
 20
-12.40988850601211
 10
35.39966524722647
 20
-12.52178520737302
 10
35.39966524722647
 20
-12.65986463442184
 97
        0
 75
     2
 76
     1
 98
        0
  0
POLYLINE
  5
BC
330
1F
100
AcDbEntity
  8
Layer 1
370
     0
100
AcDb2dPolyline
 66
     1
 10
0.0
 20
0.0
 30
0.0
  0
VERTEX
  5
BD
330
BC
100
AcDbEntity
  8
Layer 1
370
     0
100
AcDbVertex
100
AcDb2dVertex
 10
24.81342081085393
 20
-0.6036324054480502
 30
0.0
  0
VERTEX
  5
BE
330
BC
100
AcDbEntity
  8
Layer 1
370
     0
100
AcDbVertex
100
AcDb2dVertex
 10
45.62174586533067
 20
-0.6036324054480502
 30
0.0
  0
VERTEX
  5
BF
330
BC
100
AcDbEntity
  8
Layer 1
370
     0
100
AcDbVertex
100
AcDb2dVertex
 10
45.62174586533067
 20
-5.403632268614369
 30
0.0
  0
VERTEX
  5
C0
330
BC
100
AcDbEntity
  8
Layer 1
370
     0
100
AcDbVertex
100
AcDb2dVertex
 10
24.81342081085393
 20
-5.403632268614369
 30
0.0
  0
VERTEX
  5
C1
330
BC
100
AcDbEntity
  8
Layer 1
370
     0
100
AcDbVertex
100
AcDb2dVertex
 10
24.81342081085393
 20
-0.6036324054480502
 30
0.0
  0
SEQEND
  5
C2
330
BC
100
AcDbEntity
  8
Layer 1
370
     0
  0
HATCH
  5
C3
330
1F
100
AcDbEntity
  8
Layer 1
 62
   240
420
 15539236
100
AcDbHatch
 10
0.0
 20
0.0
 30
0.0
210
0.0
220
0.0
230
1.0
  2
SOLID
 70
     1
 71
     0
 91
        1
 92
        1
 93
        4
 72
     1
 10
24.81342081085393
 20
-0.6036324054480502
 11
45.62174586533067
 21
-0.6036324054480502
 72
     1
 10
45.62174586533067
 20
-0.6036324054480502
 11
45.62174586533067
 21
-5.403632268614369
 72
     1
 10
45.62174586533067
 20
-5.403632268614369
 11
24.81342081085393
 21
-5.403632268614369
 72
     1
 10
24.81342081085393
 20
-5.403632268614369
 11
24.81342081085393
 21
-0.6036324054480504
 97
        0
 75
     2
 76
     1
 98
        0
  0
ENDSEC
  0
SECTION
  2
OBJECTS
  0
DICTIONARY
  5
C
330
0
100
AcDbDictionary
281
     1
  3
ACAD_GROUP
350
D
  3
ACAD_LAYOUT
350
1A
  3
ACAD_MLINESTYLE
350
17
  3
ACAD_PLOTSETTINGS
350
19
  3
ACAD_PLOTSTYLENAME
350
E
  3
ACAD_TABLESTYLE
350
C7
  3
ACAD_VISUALSTYLE
350
2A
  0
DICTIONARY
  5
D
102
{ACAD_REACTORS
330
C
102
}
330
C
100
AcDbDictionary
281
     1
  0
DICTIONARY
  5
1A
102
{ACAD_REACTORS
330
C
102
}
330
C
100
AcDbDictionary
281
     1
  3
Layout1
350
1E
  3
Layout2
350
26
  3
Model
350
22
  0
DICTIONARY
  5
17
102
{ACAD_REACTORS
330
C
102
}
330
C
100
AcDbDictionary
281
     1
  3
Standard
350
18
  0
DICTIONARY
  5
19
102
{ACAD_REACTORS
330
C
102
}
330
C
100
AcDbDictionary
281
     1
  0
ACDBDICTIONARYWDFLT
  5
E
102
{ACAD_REACTORS
330
C
102
}
330
C
100
AcDbDictionary
281
     1
  3
Normal
350
F
100
AcDbDictionaryWithDefault
340
F
  0
DICTIONARY
  5
C7
102
{ACAD_REACTORS
330
C
102
}
330
C
100
AcDbDictionary
281
     1
  0
DICTIONARY
  5
2A
102
{ACAD_REACTORS
330
C
102
}
330
C
100
AcDbDictionary
281
     1
  3
2dWireframe
350
2F
  3
3D Hidden
350
31
  3
3dWireframe
350
30
  3
Basic
350
32
  3
Brighten
350
36
  3
ColorChange
350
3A
  3
Conceptual
350
34
  3
Dim
350
35
  3
Facepattern
350
39
  3
Flat
350
2B
  3
FlatWithEdges
350
2C
  3
Gouraud
350
2D
  3
GouraudWithEdges
350
2E
  3
Linepattern
350
38
  3
Realistic
350
33
  3
Thicken
350
37
  0
LAYOUT
  5
1E
102
{ACAD_REACTORS
330
1A
102
}
330
1A
100
AcDbPlotSettings
  1

  2
none_device
  4

  6

 40
0.0
 41
0.0
 42
0.0
 43
0.0
 44
0.0
 45
0.0
 46
0.0
 47
0.0
 48
0.0
 49
0.0
140
0.0
141
0.0
142
1.0
143
1.0
 70
   688
 72
     0
 73
     0
 74
     5
  7

 75
    16
 76
     0
 77
     2
 78
   300
147
1.0
148
0.0
149
0.0
100
AcDbLayout
  1
Layout1
 70
     1
 71
     1
 10
0.0
 20
0.0
 11
12.0
 21
9.0
 12
0.0
 22
0.0
 32
0.0
 14
1.000000000000000E+20
 24
1.000000000000000E+20
 34
1.000000000000000E+20
 15
-1.000000000000000E+20
 25
-1.000000000000000E+20
 35
-1.000000000000000E+20
146
0.0
 13
0.0
 23
0.0
 33
0.0
 16
1.0
 26
0.0
 36
0.0
 17
0.0
 27
1.0
 37
0.0
 76
     0
330
1B
  0
LAYOUT
  5
26
102
{ACAD_REACTORS
330
1A
102
}
330
1A
100
AcDbPlotSettings
  1

  2
none_device
  4

  6

 40
0.0
 41
0.0
 42
0.0
 43
0.0
 44
0.0
 45
0.0
 46
0.0
 47
0.0
 48
0.0
 49
0.0
140
0.0
141
0.0
142
1.0
143
1.0
 70
   688
 72
     0
 73
     0
 74
     5
  7

 75
    16
 76
     0
 77
     2
 78
   300
147
1.0
148
0.0
149
0.0
100
AcDbLayout
  1
Layout2
 70
     1
 71
     2
 10
0.0
 20
0.0
 11
0.0
 21
0.0
 12
0.0
 22
0.0
 32
0.0
 14
0.0
 24
0.0
 34
0.0
 15
0.0
 25
0.0
 35
0.0
146
0.0
 13
0.0
 23
0.0
 33
0.0
 16
1.0
 26
0.0
 36
0.0
 17
0.0
 27
1.0
 37
0.0
 76
     0
330
23
  0
LAYOUT
  5
22
102
{ACAD_REACTORS
330
1A
102
}
330
1A
100
AcDbPlotSettings
  1

  2
none_device
  4

  6

 40
0.0
 41
0.0
 42
0.0
 43
0.0
 44
0.0
 45
0.0
 46
0.0
 47
0.0
 48
0.0
 49
0.0
140
0.0
141
0.0
142
1.0
143
1.0
 70
  1712
 72
     0
 73
     0
 74
     0
  7

 75
     0
 76
     0
 77
     2
 78
   300
147
1.0
148
0.0
149
0.0
100
AcDbLayout
  1
Model
 70
     1
 71
     0
 10
0.0
 20
0.0
 11
12.0
 21
9.0
 12
0.0
 22
0.0
 32
0.0
 14
1.000000000000000E+20
 24
1.000000000000000E+20
 34
1.000000000000000E+20
 15
-1.000000000000000E+20
 25
-1.000000000000000E+20
 35
-1.000000000000000E+20
146
0.0
 13
0.0
 23
0.0
 33
0.0
 16
1.0
 26
0.0
 36
0.0
 17
0.0
 27
1.0
 37
0.0
 76
     0
330
1F
331
29
  0
MLINESTYLE
  5
18
102
{ACAD_REACTORS
330
17
102
}
330
17
100
AcDbMlineStyle
  2
Standard
 70
     0
  3

 62
   256
 51
90.0
 52
90.0
 71
     2
 49
0.5
 62
   256
  6
BYLAYER
 49
-0.5
 62
   256
  6
BYLAYER
  0
ACDBPLACEHOLDER
  5
F
102
{ACAD_REACTORS
330
E
102
}
330
E
  0
VISUALSTYLE
  5
2F
102
{ACAD_REACTORS
330
2A
102
}
330
2A
100
AcDbVisualStyle
  2
2dWireframe
 70
     4
 71
     0
 72
     2
 73
     0
 90
        0
 40
-0.6
 41
-30.0
 62
     5
 63
     7
421
 16777215
 74
     1
 91
        4
 64
     7
 65
   257
 75
     1
175
     1
 42
1.0
 92
        0
 66
   257
 43
1.0
 76
     1
 77
     6
 78
     2
 67
     7
 79
     5
170
     0
171
     0
290
     0
174
     0
 93
        1
 44
0.0
173
     0
291
     0
 45
0.0
1001
ACAD
1000
AcDbSavedByObjectVersion
1070
     0
  0
VISUALSTYLE
  5
31
102
{ACAD_REACTORS
330
2A
102
}
330
2A
100
AcDbVisualStyle
  2
3D Hidden
 70
     6
 71
     1
 72
     2
 73
     2
 90
        0
 40
-0.6
 41
-30.0
 62
     5
 63
     7
421
 16777215
 74
     2
 91
        2
 64
     7
 65
   257
 75
     2
175
     1
 42
40.0
 92
        0
 66
   257
 43
1.0
 76
     1
 77
     6
 78
     2
 67
     7
 79
     3
170
     0
171
     0
290
     0
174
     0
 93
        1
 44
0.0
173
     0
291
     0
 45
0.0
1001
ACAD
1000
AcDbSavedByObjectVersion
1070
     0
  0
VISUALSTYLE
  5
30
102
{ACAD_REACTORS
330
2A
102
}
330
2A
100
AcDbVisualStyle
  2
3dWireframe
 70
     5
 71
     0
 72
     2
 73
     0
 90
        0
 40
-0.6
 41
-30.0
 62
     5
 63
     7
421
 16777215
 74
     1
 91
        4
 64
     7
 65
   257
 75
     1
175
     1
 42
1.0
 92
        0
 66
   257
 43
1.0
 76
     1
 77
     6
 78
     2
 67
     7
 79
     5
170
     0
171
     0
290
     0
174
     0
 93
        1
 44
0.0
173
     0
291
     0
 45
0.0
1001
ACAD
1000
AcDbSavedByObjectVersion
1070
     0
  0
VISUALSTYLE
  5
32
102
{ACAD_REACTORS
330
2A
102
}
330
2A
100
AcDbVisualStyle
  2
Basic
 70
     7
 71
     1
 72
     0
 73
     1
 90
        0
 40
-0.6
 41
-30.0
 62
     5
 63
     7
421
 16777215
 74
     0
 91
        4
 64
     7
 65
   257
 75
     1
175
     1
 42
1.0
 92
        8
 66
     7
 43
1.0
 76
     1
 77
     6
 78
     2
 67
     7
 79
     5
170
     0
171
     0
290
     0
174
     0
 93
        1
 44
0.0
173
     0
291
     1
 45
0.0
1001
ACAD
1000
AcDbSavedByObjectVersion
1070
     0
  0
VISUALSTYLE
  5
36
102
{ACAD_REACTORS
330
2A
102
}
330
2A
100
AcDbVisualStyle
  2
Brighten
 70
    12
 71
     2
 72
     2
 73
     0
 90
        0
 40
-0.6
 41
-30.0
 62
     5
 63
     7
421
 16777215
 74
     1
 91
        4
 64
     7
 65
   257
 75
     1
175
     1
 42
1.0
 92
        8
 66
     7
 43
1.0
 76
     1
 77
     6
 78
     2
 67
     7
 79
     5
170
     0
171
     0
290
     0
174
     0
 93
        1
 44
50.0
173
     0
291
     1
 45
0.0
1001
ACAD
1000
AcDbSavedByObjectVersion
1070
     0
  0
VISUALSTYLE
  5
3A
102
{ACAD_REACTORS
330
2A
102
}
330
2A
100
AcDbVisualStyle
  2
ColorChange
 70
    16
 71
     2
 72
     2
 73
     3
 90
        0
 40
-0.6
 41
-30.0
 62
     5
 63
     8
421
  8421504
 74
     1
 91
        4
 64
     7
 65
   257
 75
     1
175
     1
 42
1.0
 92
        8
 66
     8
424
  8421504
 43
1.0
 76
     1
 77
     6
 78
     2
 67
     7
 79
     5
170
     0
171
     0
290
     0
174
     0
 93
        1
 44
0.0
173
     0
291
     1
 45
0.0
1001
ACAD
1000
AcDbSavedByObjectVersion
1070
     0
  0
VISUALSTYLE
  5
34
102
{ACAD_REACTORS
330
2A
102
}
330
2A
100
AcDbVisualStyle
  2
Conceptual
 70
     9
 71
     3
 72
     2
 73
     0
 90
        0
 40
-0.6
 41
-30.0
 62
     5
 63
     7
421
 16777215
 74
     2
 91
        2
 64
     7
 65
   257
 75
     1
175
     1
 42
40.0
 92
        8
 66
     7
 43
1.0
 76
     1
 77
     6
 78
     2
 67
     7
 79
     3
170
     0
171
     0
290
     0
174
     0
 93
        1
 44
0.0
173
     0
291
     0
 45
0.0
1001
ACAD
1000
AcDbSavedByObjectVersion
1070
     0
  0
VISUALSTYLE
  5
35
102
{ACAD_REACTORS
330
2A
102
}
330
2A
100
AcDbVisualStyle
  2
Dim
 70
    11
 71
     2
 72
     2
 73
     0
 90
        0
 40
-0.6
 41
-30.0
 62
     5
 63
     7
421
 16777215
 74
     1
 91
        4
 64
     7
 65
   257
 75
     1
175
     1
 42
1.0
 92
        8
 66
     7
 43
1.0
 76
     1
 77
     6
 78
     2
 67
     7
 79
     5
170
     0
171
     0
290
     0
174
     0
 93
        1
 44
-50.0
173
     0
291
     1
 45
0.0
1001
ACAD
1000
AcDbSavedByObjectVersion
1070
     0
  0
VISUALSTYLE
  5
39
102
{ACAD_REACTORS
330
2A
102
}
330
2A
100
AcDbVisualStyle
  2
Facepattern
 70
    15
 71
     2
 72
     2
 73
     0
 90
        0
 40
-0.6
 41
-30.0
 62
     5
 63
     7
421
 16777215
 74
     1
 91
        4
 64
     7
 65
   257
 75
     1
175
     1
 42
1.0
 92
        8
 66
     7
 43
1.0
 76
     1
 77
     6
 78
     2
 67
     7
 79
     5
170
     0
171
     0
290
     0
174
     0
 93
        1
 44
0.0
173
     0
291
     1
 45
0.0
1001
ACAD
1000
AcDbSavedByObjectVersion
1070
     0
  0
VISUALSTYLE
  5
2B
102
{ACAD_REACTORS
330
2A
102
}
330
2A
100
AcDbVisualStyle
  2
Flat
 70
     0
 71
     2
 72
     1
 73
     1
 90
        2
 40
-0.6
 41
30.0
 62
     5
 63
     7
421
 16777215
 74
     0
 91
        4
 64
     7
 65
   257
 75
     1
175
     1
 42
1.0
 92
        8
 66
     7
 43
1.0
 76
     1
 77
     6
 78
     2
 67
     7
 79
     5
170
     0
171
     0
290
     0
174
     0
 93
       13
 44
0.0
173
     0
291
     1
 45
0.0
1001
ACAD
1000
AcDbSavedByObjectVersion
1070
     0
  0
VISUALSTYLE
  5
2C
102
{ACAD_REACTORS
330
2A
102
}
330
2A
100
AcDbVisualStyle
  2
FlatWithEdges
 70
     1
 71
     2
 72
     1
 73
     1
 90
        2
 40
-0.6
 41
30.0
 62
     5
 63
     7
421
 16777215
 74
     1
 91
        4
 64
     7
 65
   257
 75
     1
175
     1
 42
1.0
 92
        0
 66
   257
 43
1.0
 76
     1
 77
     6
 78
     2
 67
     7
 79
     5
170
     0
171
     0
290
     0
174
     0
 93
       13
 44
0.0
173
     0
291
     1
 45
0.0
1001
ACAD
1000
AcDbSavedByObjectVersion
1070
     0
  0
VISUALSTYLE
  5
2D
102
{ACAD_REACTORS
330
2A
102
}
330
2A
100
AcDbVisualStyle
  2
Gouraud
 70
     2
 71
     2
 72
     2
 73
     1
 90
        2
 40
-0.6
 41
30.0
 62
     5
 63
     7
421
 16777215
 74
     0
 91
        4
 64
     7
 65
   257
 75
     1
175
     1
 42
1.0
 92
        0
 66
     7
 43
1.0
 76
     1
 77
     6
 78
     2
 67
     7
 79
     5
170
     0
171
     0
290
     0
174
     0
 93
       13
 44
0.0
173
     0
291
     1
 45
0.0
1001
ACAD
1000
AcDbSavedByObjectVersion
1070
     0
  0
VISUALSTYLE
  5
2E
102
{ACAD_REACTORS
330
2A
102
}
330
2A
100
AcDbVisualStyle
  2
GouraudWithEdges
 70
     3
 71
     2
 72
     2
 73
     1
 90
        2
 40
-0.6
 41
30.0
 62
     5
 63
     7
421
 16777215
 74
     1
 91
        4
 64
     7
 65
   257
 75
     1
175
     1
 42
1.0
 92
        0
 66
   257
 43
1.0
 76
     1
 77
     6
 78
     2
 67
     7
 79
     5
170
     0
171
     0
290
     0
174
     0
 93
       13
 44
0.0
173
     0
291
     1
 45
0.0
1001
ACAD
1000
AcDbSavedByObjectVersion
1070
     0
  0
VISUALSTYLE
  5
38
102
{ACAD_REACTORS
330
2A
102
}
330
2A
100
AcDbVisualStyle
  2
Linepattern
 70
    14
 71
     2
 72
     2
 73
     0
 90
        0
 40
-0.6
 41
-30.0
 62
     5
 63
     7
421
 16777215
 74
     1
 91
        4
 64
     7
 65
   257
 75
     7
175
     7
 42
1.0
 92
        8
 66
     7
 43
1.0
 76
     1
 77
     6
 78
     2
 67
     7
 79
     5
170
     0
171
     0
290
     0
174
     0
 93
        1
 44
0.0
173
     0
291
     1
 45
0.0
1001
ACAD
1000
AcDbSavedByObjectVersion
1070
     0
  0
VISUALSTYLE
  5
33
102
{ACAD_REACTORS
330
2A
102
}
330
2A
100
AcDbVisualStyle
  2
Realistic
 70
     8
 71
     2
 72
     2
 73
     0
 90
        0
 40
-0.6
 41
-30.0
 62
     5
 63
     7
421
 16777215
 74
     1
 91
        0
 64
     7
 65
   257
 75
     1
175
     1
 42
1.0
 92
        8
 66
     8
424
  7895160
 43
1.0
 76
     1
 77
     6
 78
     2
 67
     7
 79
     5
170
     0
171
     0
290
     0
174
     0
 93
       13
 44
0.0
173
     0
291
     0
 45
0.0
1001
ACAD
1000
AcDbSavedByObjectVersion
1070
     0
  0
VISUALSTYLE
  5
37
102
{ACAD_REACTORS
330
2A
102
}
330
2A
100
AcDbVisualStyle
  2
Thicken
 70
    13
 71
     2
 72
     2
 73
     0
 90
        0
 40
-0.6
 41
-30.0
 62
     5
 63
     7
421
 16777215
 74
     1
 91
        4
 64
     7
 65
   257
 75
     1
175
     1
 42
1.0
 92
       12
 66
     7
 43
1.0
 76
     1
 77
     6
 78
     2
 67
     7
 79
     5
170
     0
171
     0
290
     0
174
     0
 93
        1
 44
0.0
173
     0
291
     1
 45
0.0
1001
ACAD
1000
AcDbSavedByObjectVersion
1070
     0
  0
ENDSEC
  0
EOF
